<mxfile host="app.diagrams.net" modified="2024-05-20T06:47:55.676Z" agent="Mozilla/5.0 (Windows NT 10.0; Win64; x64) AppleWebKit/537.36 (KHTML, like Gecko) Chrome/124.0.0.0 Safari/537.36" etag="wY3oMYHpyeAskeHGsDiG" version="24.4.4" type="github">
  <diagram name="第1頁" id="OyiMAmMOHUge5wi8I17e">
    <mxGraphModel dx="3741" dy="-6104" grid="1" gridSize="10" guides="1" tooltips="1" connect="1" arrows="1" fold="1" page="1" pageScale="1" pageWidth="827" pageHeight="1169" math="0" shadow="0">
      <root>
        <mxCell id="0" />
        <mxCell id="1" parent="0" />
        <mxCell id="WVwV5zhWrvc61_-DkQyH-78" value="" style="strokeWidth=1;shadow=0;dashed=0;align=center;html=1;shape=mxgraph.mockup.containers.browserWindow;rSize=0;strokeColor=#1A1A1A;strokeColor2=#008cff;strokeColor3=#c4c4c4;mainText=,;recursiveResize=0;spacing=0;" vertex="1" parent="1">
          <mxGeometry x="-1101" y="7212" width="1072.5" height="2958" as="geometry" />
        </mxCell>
        <mxCell id="WVwV5zhWrvc61_-DkQyH-79" value="&lt;font style=&quot;font-size: 14px;&quot;&gt;Weintek&lt;/font&gt;" style="strokeWidth=1;shadow=0;dashed=0;align=center;html=1;shape=mxgraph.mockup.containers.anchor;fontSize=17;fontColor=#666666;align=left;whiteSpace=wrap;" vertex="1" parent="WVwV5zhWrvc61_-DkQyH-78">
          <mxGeometry x="60" y="12" width="110" height="26" as="geometry" />
        </mxCell>
        <mxCell id="WVwV5zhWrvc61_-DkQyH-80" value="&lt;font style=&quot;font-size: 12px;&quot;&gt;https://www.weintek.com&lt;/font&gt;" style="strokeWidth=1;shadow=0;dashed=0;align=center;html=1;shape=mxgraph.mockup.containers.anchor;rSize=0;fontSize=17;fontColor=#666666;align=left;" vertex="1" parent="WVwV5zhWrvc61_-DkQyH-78">
          <mxGeometry x="130" y="60" width="250" height="26" as="geometry" />
        </mxCell>
        <mxCell id="WVwV5zhWrvc61_-DkQyH-81" value="&amp;nbsp; &amp;nbsp; &amp;nbsp; &amp;nbsp; &amp;nbsp; &amp;nbsp; &amp;nbsp; &amp;nbsp; &amp;nbsp; &amp;nbsp; &amp;nbsp; &amp;nbsp; &amp;nbsp; &amp;nbsp; &amp;nbsp; &amp;nbsp; &amp;nbsp; &amp;nbsp; &amp;nbsp; &amp;nbsp; &amp;nbsp; &amp;nbsp; &amp;nbsp; &amp;nbsp; &amp;nbsp; &amp;nbsp; &amp;nbsp; &amp;nbsp; &amp;nbsp; &amp;nbsp; &amp;nbsp; &amp;nbsp; &amp;nbsp; &amp;nbsp; &amp;nbsp; &amp;nbsp; &amp;nbsp; &amp;nbsp; &amp;nbsp; &amp;nbsp; &amp;nbsp; &amp;nbsp; &amp;nbsp; &amp;nbsp; &amp;nbsp; &amp;nbsp; &amp;nbsp;&lt;font style=&quot;font-size: 15px;&quot;&gt;Product&lt;/font&gt;" style="html=1;shadow=0;dashed=0;fillColor=#f8f9fa;strokeColor=none;fontSize=16;fontColor=#1A1A1A;align=left;spacing=15;" vertex="1" parent="WVwV5zhWrvc61_-DkQyH-78">
          <mxGeometry x="1" y="110" width="1067" height="72.05" as="geometry" />
        </mxCell>
        <mxCell id="WVwV5zhWrvc61_-DkQyH-82" value="Service support" style="fillColor=none;strokeColor=none;fontSize=14;fontColor=#1A1A1A;align=center;" vertex="1" parent="WVwV5zhWrvc61_-DkQyH-81">
          <mxGeometry width="70" height="40" relative="1" as="geometry">
            <mxPoint x="652" y="16" as="offset" />
          </mxGeometry>
        </mxCell>
        <mxCell id="WVwV5zhWrvc61_-DkQyH-83" value="News" style="fillColor=none;strokeColor=none;fontSize=14;fontColor=#1A1A1A;align=center;spacingRight=0;" vertex="1" parent="WVwV5zhWrvc61_-DkQyH-81">
          <mxGeometry width="80" height="40" relative="1" as="geometry">
            <mxPoint x="751" y="16" as="offset" />
          </mxGeometry>
        </mxCell>
        <mxCell id="WVwV5zhWrvc61_-DkQyH-84" value="About Us" style="fillColor=none;strokeColor=none;fontSize=14;fontColor=#1A1A1A;align=center;" vertex="1" parent="WVwV5zhWrvc61_-DkQyH-81">
          <mxGeometry width="80" height="40" relative="1" as="geometry">
            <mxPoint x="833" y="16" as="offset" />
          </mxGeometry>
        </mxCell>
        <mxCell id="WVwV5zhWrvc61_-DkQyH-85" value="Downloads" style="fillColor=none;strokeColor=none;fontSize=14;fontColor=#1A1A1A;align=center;spacingRight=0;" vertex="1" parent="WVwV5zhWrvc61_-DkQyH-81">
          <mxGeometry x="507.999991823445" y="15.999999999999991" width="101.94084363915603" height="39.99999999999998" as="geometry" />
        </mxCell>
        <mxCell id="WVwV5zhWrvc61_-DkQyH-86" value="" style="shape=image;verticalLabelPosition=bottom;labelBackgroundColor=default;verticalAlign=top;aspect=fixed;imageAspect=0;image=data:image/png,iVBORw0KGgoAAAANSUhEUgAAAXoAAAA3CAYAAAACEYGWAAAAAXNSR0IArs4c6QAAIABJREFUeF7tfQd4Y1eZ9u1Xsool23LvTe7TZ5KFXRJISA8JCSEhQBqQQsn+sMDCT1kCLDUEUkhCCKEFApsNG9JDep+SKR73XiXLTZbkIt3673fPPda1xpKuPJ7d4fmj55lnbOvce/p7vvN+jSTSfF586fXHKIo8X5ZlgmO5QxYL/+COHVtuI0lSSfdsJt+rqsqPjPsunvL5/z0Wi1XRNE2IokhQFKW/hlx9HUmu/jxRWl5yW3VF2S9JkgxnUl+ysguq6u57+9AflxeXzyS1yuP1qqqa8JhK0CQUUabLysrurago+wlJkgvGQqqqQgdcU1OzreMTE7eEQqEGhmGsDMNQsiSRBMFANaokSTRJkgxFEzQ8L8sSAf2EcYAP1A3/FEXR/k6SlPa/qh7PNCjwYoLn2Ze2bt16tcViGSNJMrGTa/o8PT19tSiK1yuKspOmaQa3CwrhedHHaYhhmD/wPH+r2+1eMyZm5klVVefevft/EY0JewhC9RAExenPQYcVfV5UglChXhX+KYoiK6oy57DZ20tKCm4uLi4eM1PX8ZSZmwv/Q09vz12SJG2FuaEoenWu0DyR+pyhWnie3VdbU//pvLzsowRBCHi8VVXN6R8Y+pLfH7hWVVUPmluYioT1py0nvCXQWoAxMJbT5gItI/0d8IfEdYKnOf7+ZOMA2wD6Bu3BP0O9LMe81eitvd7tdneRJCkZn19eXi49cqTjkZgg7lr73sT6ki23JO0y9l/rqLn1D23HY0pR1DLHcc9taWu8yWq1+pNhWTgczuvo6v6lKIgXaFOrjwPef9p8E2ieYBp4jn+hbWvT1VardSLdPko21qqqWiYnA++a8I1/bWU52kjTTAHGQQ0TFXkVFyRJIBiCJGRZnMvPz3+murr6S1lZWZPrvTvtLL/08uuwibTOQEUsx32zqaH2LqfTOXc8GyTxWVVV3e0dXfeFFsKXwKGCN0kcXNc2FYOK3WF/tr625WMOBzm9Ge1ZWVmpaO/oenllOVqBwAttrGNBXvurNtE0Q040NnqvyMnJec3YBlVVyelQqHohMP/52fm5MyRRrMcHlyRJhNZPgiE4jkPgQKB+K4qsvYZlWSIWi2k/4/HAP8c3dkpcTjMkCqEqCmGxcM/t2bPnQ4mH1HoPz8zMfFEUxW/KsmyD9ZAM6GGh0zR9B8uyX8/Nzc34EFZVNXvv3v2PRGOx96J2GAAOjYg+LoTh8INFLxMMw8zkeXIfLszP+0pOTk5oM9ZFsnfMBCOn9XV3/1KSpBozQM/xbKe3rubDubm5nQlrxTkwMPRNnz/weSMoJQI4kQD06B3HAv2acusCojmgN4I7Xnt4L/Ac21VX1/BBj8fZmzg+i4uLBUc7ul6JxcT6td+dFEAPQuvzLS3bP5IKNyKRSP7Rzu4/ioLwXkUh1hxygAvHAD3PH2zb0nRRVlbW+EbWHODF3Fx4t8839p25+eD7aJomVRVhL8YNDPTwu6rKBK0SRHa24+Xi4uLrPR7PMfOA25EU6F986TU1Lk0joAOwYRjmYFlp6fXl5cUHNtKZZM9Eo9HaQ4c7XhQEoRTqgg0LQAeDiT7HNlWTKlhmuKG18aIcu719M9ozO7vwvr7+3qdEUWZRn2FAk4GpSoD8y1uYvc3NTRc6HI41h83U/HxLYGLqhwsLC2fHYjGS53kYP+2mAv3SfhYU7QAFkIe/WSyWAKEqYVlRQOjn9LOE1A82mSBpWVUUSpZliyzLdoqiWH1wcCONjQV0TERIwzApBEWS81lZlqe3bdt2LUmS6FRJ8ZmZmfmBKIpfgvlJA/SwOH9ntVpvdrlcwXTvTfw+HFZzOzv3PxUTYrpEuD7Q0zRFCIKA16Y2hnCIZtmsQ7m57jvra2vvIklSyLR+s+Xn5kJn9fT2PiBJUpEZoOd5tquutvqSvLy8ngSgz+obGPrOlN//f9C6Q4do/EDT138C0KMyJw7oMbjjfbhGomeY8YaGmnMSDy14ZmFBdXf37NsXi0m1mwr0+GV4HDSJPr2wkyDRg3D1UkvzjsscDnIm2VwvLi4WdnR0PRIThFOTA30cG3meH9iytfl9Vqt1QzfJ6enpbYHA7A/n5mbPECUJsICQJHRrw+3HN0SZUAmGoQiX3dFVUOC5rKioaI3gkNindYH+5VdeU2UZDR46OeLXHtjc2S73TVtaG+42uxnSlVNVlZmZCV3U19/7Z1mWNVADMAQgTCbR43eyLKOWlJV9uaK08E6SJFfS1ZXqe1VVHQNDw9/z+/yfhv6jvqd8gqApgsjLy32wocH7KZIkl3Hpubm5pvHJqZ8G54NnQn/woQkbBgECpfcvTstYrHywrLzss1bOMq6qoqKqtETTqigShMqowEwooswwMVIgKUmKFQmS0CYIUhZBKKSqUgpFqLIKXA6lr3yFIFUSDgKVJ0nSSqiqg1AJG0ERLKnCVVsKKYo8w7Ls21VVVU+nGzuYp9nZ2V+Jovgxk0D/jMPhuNput0+le3fi9yARdnR0vRyNxbzou+QSPQC7LoRo6wV+h03AWyyvV9VUfbEgN/fNTOs3W342GP5Ab3fP/ZIk5ZoDembAW193SU5OzhrBRFVVe//g0I/8Pv8N6wE9bg+mZLTfSaBT1heEVAXfePQtvgnUDQZ9jAcsywQbG2rf63a7DyeOVyik5nR17387FhMrTxjQmwR5qH8doN/b0uw9RjgztnVpaam4vb3zGUEUWkwCvW/L1uZ3W63WYbPrB5dbWFioGR/33T4/P3eudtOnEDWL1z3ebyD8gmAD0+uwWSfLS0u+WFBQ8Kd0VPoxQP/ii69crajKAyzLr+GFAeC1hUxTAZ7lft7UVP9zh8Mxn64CMx1WVdXV1dP/i+B88EMA8FhSxBOE3rH+5QPGwmazvbpje9slJJn8dDbTjkV1sbDnYP8zy8vRNmgHulEkl+bhnTzHzFdX19xcUJD3e1yHqqq2I+0dP5ufn7+WJGlE9Wu8O6JkMO8OgAScLgZ/h8PW1+BtOTc7mx/aKMe3Xj91PQEDVesrBwYTEAJ4VdFsXaqqWmdnZ/8oiuIHzAA9TdNvuFwu4P77zYx/wiYr6ujofHUlGqtJBfQAdAadjeFnBIBOp/OJyoqyT7vd7tFM25CuPIzr/PziB3t6u++TJMllDujZ4Rpv3SX5bvch4/tBJ9E/OPQzv89/9Vqgj0P8+u1JXJ9on2AByTg26Pn00m9iPViixBQCfjfHcUveeu/7c3OdbyQ+o93IuvYf2DjQH9OKJNNhrj+JQM9z3OHmZu9ZibdwYyWgZ2hv73guJghek0A/tXVbyz9aLJaBdGvH+P3MTLh+Zmbq1vm5+fMBxAEfSFqnhqi4IAg4goXgrKysSGFBwbcqKsp+QZJkJF19a9DzxRdfPI2i2cdEUbQzDLcqzWOaQefOZYqmflVbXXFfYWHhYZIkxXSVpPt+eVktaW8/+JwkSw3ASUNHjVdE4xX22HdpuoPxbVu3nWe386Dg2vAnEom0tB/tflZV1SLcjmQHjK4EJDiW6di6tfU843UNeP6DBw/fL4ji+2ga0U9xJWp8IyJlK+AvUrRarNyRpgbv2RuRgDfc6QweBKlzdnb2IVEUzzMJ9IdtNtuVDoejK4NqtKJLS0tFR492gkRfh55dX6IHoMeCAaYX0O+ydrDCLaikuPSP+fk5n92IriBVu3Wgv6Snt+deSRLdJoF+pLam/hKPx3UwEej7Bgbvm/JPXWYE+jhgH8vAxRWxOoQnKG/NHQypZ2atvgDpiuISPR1tavSe63a7X0x8SySiejo69h+ICWL52u/McvRmgN4cyGvH21plLFA33a0tDafb7fZAshFYXl4uO9Le8bwgCHUmgT6wdVvLeywWS1KuPLGuhYVozcTEyB0z0zPn4Ju/NucUxgmkt8MfXQclFOQX/rmwsPrm7Gxy3szeWjPqr772xhRJkgXwMuCGAGyxJA//IwlU4wV6Czw5jzU0eG8xc5qk2yzT85FTBnp7/iLLcj7UbZSA41Yn67+FojTLBrGyovxfSkuL7jXDM6/3JlVVsyYmfJ8eGh79IdQvy8jKIJlEhP/uynY+3tbWDLeJVR44Eok0H+3oul+W5T2YAjNaYOA+asrWlajWX/hnsbKHGht3vd/pJGfNTN7/dBmQOmdnZ/8kiuLZJoG+2263f9hut2d8AOv8KAC9rsxbH+jxgYs3M/xvlEAVRSIsVut4UUHBLVVVFQ+QJImuVZvwAeXZ/PziZT29PXdnCPSXejyutxOA3tHfP/SLqSn/5WvANcHKJHE9qsdcdLG1TrIOmgdH/AY8nsaxhb9xHBNq8NZdvB7QA/XW3tF1SIiJRZsD9Ov3R7MRM2F5sw7QdzU3N56eSqJfWVkpP3Tk6IuiIFSbBPrpbdtbT+N5vtvM8gJqaNI3/Z1AIHBNNBrVjDLgg4VCtKbRcsVzwLKskJuT91BZWdGXUh1SKY/J115/U11cXCQcDocG9JhLhv+NQA8vsdmsf6utafyk2209risxSIl9/cN3Tk1NXaWfVlqndGlsleYAyXo9pSi+ujvsWU9t3771SpIkM1b8QX/Cqpo73NH54Nxs8Cx0wDHawbYe0Bv/VltT8dmSkpI7jQM7NzfX3Nc/9IeVleU2kETxYbUedcPSDJpEQiY4jj28Z8/uM0iS3FSLJjOLzkwZsITRJXqzQD/ocDg+ZLPZ1tAUZurSgf4lMxw93hhYn4R/RzdDglheXiayXa5Xa6srb8rJyekwU7+ZMgD0wWD48u6evrsyAfq6Wu9leXnZ+xOAnh8YGPq+3++/EUyNV8FVB/rEdYiV8ypJgF5qRSUIAVQ5hErmEgShmb2u/8kM6DFdAO8zUjckSS5xHHOwvq7mc+tx9HAjaz/a2R6LiXknFOg1BjL95xjqhuderq/fdZHbvdYc2vimlZWVysNHjoKBSKVJoJ9tbmk9zeHgUypGoY5QKJQzMzP3g6nAzNWSJDEYIzB1A7/DzyxLr1K+FEUpLnfOkzVV5Z/M9NavyQNwBQ2FF+Wuri5NCYo0u0gRi5WiePOAghQaYLFwg0UlRV+rLCv7j+ORkoC2Odpx6IWVlZV6qBfAFU42pFBjVjuZjEIBU0QoTxJKf2vrtvOdTktf+mk/tkQ0Gq3r6Ox6PhRaLEOLGymhod9gLYN1B5KElMQA2jzH+1taWk93Otde1ebmIs09fV2PiIJQn9LoRSMk0AGGgJ4/dOqpu9+30cNqI/3O5BkwgZ2fn//9ysrKufAcBtZEPhhvKqDUnE7npVlZWfsyqQfKmpXoMXWD1y2sBZgb+B2sFrCpLtgcZzuz/6u+vuZTDocjqaVFJu2MA33vzzPg6Efq62quyM3NfSuxrpGRkU/MzwdPF0XRoaoEp1NBJNQDehSWZZasVouPYdgViiIV0B+pJCGRJLVCkrS8MB+sW1xa/CeCIGoA5/HhgGhQJBliShRUNCzLhhVF6eAt1gVFFsHASwVnDkVVSEpTvqmE1WJdYhlmlOO4iObvoWhaXoWmaZmh6EBFRSns/2NMWJeXl0uOtHcejcUEdyqgR/uXIaLRmOB2u/ZGY1EN9UiSYkRRZChQYhGETBKEDJaG2rtgu6D7tn4Mwr2GpAnNppQk4QsoBvITgKMkSTL8xrKMoqpKTBSlJZfL1e90Nny9rCy5AYcZoKcNtArHccGW1tb3pKOQgT0YGxv7pN8f+JYgytlGARALufFDFVnjAfDn5LgfKyku+kxOTk7GVj0Y6PnI4nJ0cHCQWFhY0K8J8TshVGJsDAJ/Kpabl/tIc2PDJ+F0z2SDGMuCw0lvX++Toihmw98B4IHSwBs0XnZ9ZaxmZKJJ4GS0qrLypuLiwt8lOm+Yadv09Py5wyNDjy4vR2FxaUCPuXVje8CRCXPCbrf75fKyxmOkgvn5SEtPT9ejMSFWDWZyqT4Y6OH6abHwb+/evQuA/oTafpsZj/XKgNJ8bm7ut9Fo9AKTQO9zOp2XZWVlvZ5pnTrQv5KOo8fKRQxqxmsv1In1S0Dh0DQdK8jP/1ldXc2/Ha+Fli4gkcHg4oe7e7rvzgDoh+vraq7MTWIJpKoqLBij0tw4dCC+AmKDadoa0RwOg4mJqV0+39TtoiTsAeoR1vEq3aqudXgCoOc4rre2pu5mm40HXQrsYVDOG814sDcW1KnZMZpV3APQHz5y9KggSCmAHptR0zA3nQ3eug/TNO1T1WzV5dLqw7aTxr6uBwTwN/xPw3h90Na7vsDfoD9ghJBSvwi6Nl2ir0om0Wuniu4Yx/HcQktL22l2O3ck2XqH29rEhO+TgcD0l5eXl0olGfkn4Rtc3JwcHdSyjIxCnE7HCwX5ZdcVFblHMt1LqwMCZnOiKLb4/YG/joyOlmFlkPEKDAsG/o6lWeCOsqzWV1pbmy+32Wz+jVQOnR4eHvv2+MTkF/FGxdYu+GCJX1mTAz3UrdmUZmf/Z0tLE9iDZ+SgA/RRb//gj2amp28QRc3hRjOrXAsaujCxOrGqUlFZ+fXK8tJ/T+x7JBJpOtrR9Th4+JoFepJSwXrote3bt557vHqPjcyFmWeAow8Gg79bXl6+0CzQZ2dnX2G1Wl8x835jGbNADwKV0ecCexHC5sBSPqYfYA3zPN9fWl72tYrSoj9n2qbE8jpH/6Ge3u57zQI9x7NDXgT0x0j0x9ueUChU29nV93tBEPaAEIvNk9HNK9GzVQUA6fHWN16dl5e993jrTnxeB/p2QZBy1n5n3MernuXQlgN79uw6iyTNKRc3u73rvU/z7m0H6kasTQX0eC8gib7tvXY7d4y5KRYMAoHZ8yYnJ34cDi16NeZEwy4wyEDrGN9Q8e9w1oEjZkF+0ReKivIyvhnjfmnXQnDRJwiiMBSKvLuzq+tboigWUVScNsHgjqUjxNeB0pTuKi8r/lplZeVfNjLwwPkeOtT+xEIo/C7cWUzZYE4w/t7UQA8CDs/zR1pbmjK2WolEIp6+voEnIouLu0B5ioEeX5+Q4hFJ+Pjk5Th2sLGh7uKcnJxjFI2RSKTx6NGux81I9FguoxkSTAH/0NrafB1JktGNjOeJfgb8DILB4G+Xl5cvMgv0Npvtow6H4xirjHRtRVY3Ha9EY4LucLO+MhaU8Vi5rSiKRNPMoixL2RRFwdrWpFqj0ADz53A6ny8sL762eANX4MR2z81FAOh/cTIAfTgcrW9vP/ywrCitINHjfZsI9IhqUwiOZYe93qYrc3Odm+5noNmgH+08kpqjR0CvqBpN+1Zz8ynnulwb07GlW08b+R6EjaMd3S8IQqwxGdAnUDezLa1tZyST6Kem5k4JBCbvCIXCO4FJ04xO9LAKcYc0FPYEfod1m+10HCosLfpscX7+m8djyo6pG1D32gRBKOvo7P5tOBzekgj0mK/G1xRYKEAxuLIdj7S2tt60EXAKBoMVnV19zwmCUIulD2zNgfQERkVLaupGv+IEKmuqri0rKnoyk4mdn19s7RvofVqICcVxKT5eHzp8dD8C3a7V4XS+uH1r24UkSS4m1hUOh70dnd1PxGKxmnQSPQZ66L87J/uexkbvzSfSkzOTcVlHgrXPz8//dmVl5WKTQD9us9mu2ijQm7GjB4nesFYGPHl5b4UjkS1LS0utRokWU4H6JlLdbvdD1VVlNx8vX38yAf3CwsKO9vbuhwiSqMX7CB+CcWVq3MaeZZmxxgbvlYmhO45njeBndaA/GIuJBakkelj/wMKzLPuW17vrnFTK0c1oVybvgBAIHZ09fxOEWFsyoGd0h1IYX5bj/K2tbe93OPhjFP6zs7O7JiZ8dywEw3ugDat+SaDzBKMPPcQMSPSYk+d5fqSstOTbxcUFv90IHW3s6yqa6U41+QMDI9+dCvivBckWLw6sEYYGYEUbHEbwc5aVf76pqenKTEx99GsMNTY29rGxcf9diqLYcKOM9uZrLQfWB3ot3owmtSFHq7y8nPsaGxo+Z/bgAfpobGzy8xOTvn/Hlj6ojzhoGFLIgkSP/o44ueKSku/WVFV8fT3OMhQK1XV09jwlikJNOmUsLHRtkbAs4cnPv7uurhKA/rh9EzJZ0GbLgiOYDvQfNAn0I9nZ2RDk6WWzdRiB4ujRzlejsVg1+ltyO3osuXIs+1JNTc1Xg8HgBwOB6StkRS6BucvKytK4amxYoFM94YLC/Hvraqq+dXw6Jk2iB4epbJN29Ck5+kzHyVje5wt8tH9g8EdwOzfquLDSHMrC+sX7iuO4sQZv3UdzcnJePZ5613sWKWM79sViYnEqoCcUlWBYCizO3qyr23nuSQb0no7O7qcEQdiRyupGxzNgFMa272g7i+f5NeEtNC/5cd994XDoH1YleaBqNGc/ipBh/+s8vSDENLxxOp2BHHfO7bW1FRDC47h1dmvQEzwf5+cXLu8fGPhVNCqsauiN9uTY5BIWDLI8YXrLysq+VF5e/tdMFgvQAB0dHQ8GFxYvwLcFoxWH0WEKvTe5Zyw6HNACzrJbX2tuaLzU7MEDMTlGxjoeCS1ETsMbAAM97jeia7AHpkLQDDPlrWs4P9EWGvd/djbc0NvX/bgkiTWIGUv+IfWgRSzLEPkFBXfX1lac7ED/65WVlUtNAv1gdnb2tRvh6EEiNAP0RmWshedfbm1t/KggCKzPN3PbzOyM5sGLg8bFFZPosOY4pq+qsvrGgoLcF80qGY0zqXP0l/b0akHNnP+bQA9tGR4e/c6kb+rzBEFYsMBklOiNQA/9Z1h2vKG+9hO5ubnPZrJ3zZSF+TvS3rFXEKTSVECvSDIEBQSQfL2hYdcFJxN1A9ErO7t6nhAEYXc680roo9ViGdyyreX9FotlyIgFMzNTd8/MTJ+mUd80p0cCBdkF0Y5A36wexooMYzFfkF/wR4/H9c3NCh6ZCPRUNBo9raOz+7HFxeUsoxILFga2NsEKUjBZA5Or3BzXAy0tLWB9Y86oFdmR1nZ29jwjiJImseGr5rEesXjI1gdM4GjB3BNMtDSzTys7VVtfe0NhXuGjZhZkKBSt7ew68pIoIukv3kfE7UJf0Y0BOYsBZcVz3Jt79uwCT7Z1T1pwae7t73xaluSqdEAPVjdQL0j0hUX5P6uurvzC8ZirmunzRssgQWAegP4yM0BPUVQfAP1GrG7MAj3MPzZ9BbBobdlxic1GzAfm53cM9w/fCdIYVtCC5B/nQtH8ul3OZysqyj61kRAJumfspT29XfdLkmw3A/S6MvajyaxujmNumL6+/rumArOfwn3E+iSjRI/2F/IPYVkWJPobcnJyntpovcmeg/k7fOToG6Ioa1Fg45+1+xgkWeDoaZp+s7l5z/lmPT03u73rvS8cDud2dfU8li6oGX4WPGJb2xrPxNErIVBjT9fAncvRxbNiURRyHZtPgiRPs0gPChI9Zk+sPEe4c3L+UFxY+tXj9VFKPurIpr5mdHTip+MTk+cbeXnssGSkU5AJKSh1uFebm3dflMkk+f3THxoZHfl1LCZmGU2LMLBqb9YjPILXmNWahSITiggUNWcmCgYIKZ3g0IEP/Gyz2X6zbWvb9em8ZGGjTk3NXDI2PvbQ4uIyhd+LrYswVaWZl4rIrBL4xLy83HsbGryfScabgcNUb9/AE5IkVaxRM2gtXGt1AH9Bim0KJPqfNNTXggWS6QPzf2LB4zogVvbs7OwDoihebtYz1ul0XpeVlZWxss8s0GPPWBhDhmX2bmlt0QJVqarK+XxTnxgZGf2WIAp5EIoC1lYshmKJ4OBQQMm5c7L/UF5a8plMo2xioO/q64bolVka0OtRJ41md0i6RqN4oqxugIIcGBj6ld8X+Ii2R3XuWFtxq/qutfHkOY4ZafDWfcbtdj+5kRtNqrWnz99r0VisCpVL7dlMUdSBLW17zjmZvMIB6Du7eh4VBOFdySR6HL4E1hPLst1trY1nWq1W30I0Wu4fnvjG9MzMxzVHtiSMBASf0w4ACgXjs1j45fKy0htLSgohUFnaaLJm9/8xYjJskLm5hfP6+gd+LQiCM9lJjP6uElr4RkKZqSqr+DQ4T5ipGADjSFfPL2dnpq9kSOQZioFdWxJ6EDCjlQu2a4fofdiSAq582CIGNjoscNjEVqv1cHNTwwVZWVkTqdoDEmpPb/99MzMzV4JZJXa2wZI9lui1cMIxuDVwBEGqU1VV5Z8qKSl5LNm7Z2cjjb19HU9Lklx+rES/dshBIoXDEhxQCvI9t9bUVP/rZm86M3NipgyAyezs7P2iKF5pEug7nU4nSPQZm4WZBXrsR4EcgJh9rS17zsehZ+fm5py+qcBtwfngVYIg0bAZV8P+EkiSBAc4u92+kOdxf7emqur2TBThBqD/jSRJGl2SDuh5CztYV+O9crNNGmFPDQwM/d7vC1ySHOhhb+FEKBp1Ndjgbfic2+18arPXHFhNmVWmw/5iGKazpXnbmTYbuSFTbTPrN9MyEIGzs3v/f4mC8I9JzSvJuHI7y5bV3day7WxVXZF9vpkvBqanLwMLxlT1AmevGbhQoAtEob/zct1/yasou7EgRRyeTPuyLh+ysrJS1dPT/1/BhWAbWI0gIF6vKAJ6UIQ67fY/7dy+7eNmNgposw93dD4riuIWSsXhOBOTe2DFLz3236FuR1ZWonui0SjPscjbUaM7OOzIBQAfN7NjGCZSWlJ6bUVF6cOpBgTMKrt7+p4HCw2QONDNACXKwRQSPjxAogeg4Hj6jcbGhgtTcWcaR9/b9awoiWXJJRnUMqCE4MOytJjvKfip11vz5c3edJkuimTlQQiYnZ39pdkwxTRNH3U4HNfYbLY1cV3MtMcs0Mc5epXgeH5/c+NOkApXQ0jMzc2VTfqnHpibDYIjGsEw6DYYN8lEm8vCs4dLS4tvLC0tNW3fju3ou/q6fytJEp8B0F+RGALBzJikE1oGBob+4PcFLsoA6Ad0oH96s9ecHmYalOkpg9KJIhKgWJadavB6P8Tz9JCiZEl2u+bUpIT5gsCkAAAgAElEQVQSyFHARBgH/L9hTAx/XwRPYgRYNrDzWCLJZS2DkCoIworZjGcA9N3d+/8SE4R/SgX0UBWsKQhs2NTYcM38wkK1b9J3UzQa3YbNxpNK9GviaSEKh2XoqcLigh/XVFX97HitbfD4rAv04EA0Ojr+zdGxsc+pKqmncENF8fhhCkfR7AMVgmfYo43btpyfYyLo/tTU1Ht7BgYfomnaIwtro7PFqSEN6KMcZ9lXVllxW3Bu4br5udnzaQp5zcIHJHoMluAwZbSXdue4/9Da3AT0zTHmj7jzMwsLO/q7e58QRTABi4cSxvoIo3knDp7kcrl+29am6SOSJrMAz9juns6nBUEoOda8cu2QA3UAH4ZhhDxP7q211ZXf2KzJPV7wSHxeVVV2ZmYGLEy0uERYn4HnzLg29DE84nA4rjuRQA/bGc2TQlh4y/7m5oZznU7nmqBwfv/M6ZOTvjsii5FmnDEM3xZh/NG6UYjc3NwnS0uKbjTrYm4A+t9JkoRCFqShbnSJ/kQB/Z/8voBm3LA+dXOMRN/vrW/4bE6O89nNBnoQ5jo7u8GzOWU+ARh/WCugR3HYHROCKIZhXFVVS65DQawXUGNpMUIICEinBThYQ22CIZxKAJBrQRLgKFjdZJIsaAmUSJKSKIqM2Bz27pLG5n/JNeFUqcXU79n/iBAT3pNUGYuCKq7q8zweD5j32peXlmogZWgcz5IbZeB9g2kgoKFdLtdrlRVln0xMULPRPZ20dojX0jfQ/agQk2rW8vJxrg3+LhN6Eg2SECuqKm4oLyn5VRrJgztypPPe+XBIi7tN6wCLOUyslNDNGOezbI7XmxvrbgwGw+8eGR37jShKvGYNA17iJFKe4rAEeMNC/VlW68HW1uZLrFbrui7DAFojYyPf9k0GvgympJiPx9I8njwczM3CawdMuLy84jMVFaW/S9XHYHBxa3dP1xOxWLQ4HdAjekgDejnfk3ur11v3TbOmoRud9I0+Bx7Uc3Nz9wmCcLVJoD/scDiu3UhQMzDPa28Hh6nU5pXYYQqoO4vVeqClqeGcRKCHm8jg8PiXp/z+z0ejURfczOK5XZFjCqw3iAzodjt/VVhQ+GWzIY3n5iKXdfV1/16SJDYDoP9IXl52xnRWOom+v3/o4Sl/4NwMgH7AW++9KScn+7nNB3rV09m5H+avAbU7GUePXf1RbCtsAovtzI2C3/r9T3zvWvVW3JgCha0GfVFzU8NFqaJW4nr05Cn/KQjCaamAHtqI6WSMG2iNoRAUqT4Qrwg7tGFBGoCe4zjB5Xb/sajA81mPx5M23ny6PZ0U6INB1TUyevTPkcjSmVgpi0AwHrtFA2Xdnp5UZHDVfaqttfmiVNIuJCQ42rH3ZVFRm7VwBxRy/40r1dD1BTYezdD9eXn5/9FQX3PLwkK0aHCw74VQOFylSYsUq3GssNGNEiVseHRFZ4L1dTUf83g8T6w3CKBoGRoefXxhIXyKVrse7Q9rxmHTYq4e2mm1cHCo9Hm9de9PZ6GhhSnu7P5bLBotSgf0+GCBfrhc2f9ZWFDy9dxcO2SogcTRiu65DH3KLOxgupnfwPcQh0UH+mvMAD1FUYeAurHb7UljfyRrRqZAr90qLZYDzY27zlrPKABM5cbGfD+fnZsDHwDIa77qcg5tAOoPzTcRKCkt+U5VRdU9Zm5W4DDV1df9oFmgP4HKWOvAwPAjft/U2ZkAfVOj9waXy/X8BpZDykcgHr1ZoEcAh14HwIhjvxh9AeIheBKrTQ30eH9hDLNarB2trU1nmon+iID+wMOCEDs9FdDj+FxQBzbhxfmesQ9SssGKB5+LZ/TDN1SGYUZLy0p+VFFWdvfxGmgkBXqQ3oaHx66d9E/9UFWU1QhrmuJAsytHTQfqRgNmRYZogaDFf0+qq29gfv5d/d29T0sqYUfP4aQAa+OIgz6WYZm3qitrb4YYDxBnpbd/6H6/z38pagNyYMLKOFgU2HwOt9GT7/l1Q30NpPg7xgFpLhJp6j3a9Vw0JhRh8zN0+qNcnXH7YwT4DE3CQfZES0vTh9M52ASDK5W9fZ2vrawsp6Vu8EIEpSBN0zNWq7VbJeSgJEoiRVLgYa2frJoljkgQShToKFWhIG3hikrIkq5PAFoSDgYIeKWQpBaAkAN/BVUl7YoiUhzHLQqCGLDZ7CNbtrT8MdPNrQP9LwRBuNYM0EN+YZvNdu2JBPo1HD3Hvd3UuOv9yay/gsFg5ei4/4HQwoJm04x9QmD8YL1Bn2DuHQ7HkZLiwk8VFRWllbrn5iKX6kBvjrrh2RFvfS04KWUc6C3VfIFhwcDA4F/8vumzMgH6xoZ6MC3NOERFurUTDqt5XV37weomJXWjYYhuXozmJJ6PAtNr69eFJfcUKZENFm1YmON5S3dry87T7XYyacIRXB+yuun9j1RAjy0GsYc2fhZjSHKgR+2HCAS4n/F3IQMNWI82u/3V4sKyT5SWejYUlRe3J6U3z8LCQlVnV9+Tsiw34E2Ar0IA9EbqhkKZfsTqquobSkoK16VvgC4ZHBy6wz8VuD4qoqsaBnqjRI8lLJZhXmxr230laOLBwmF8PPDhsfHRXyqKkoVPQqypRrb0KLwxNiez2W3tzY31Z613es/NBa/p6Oy8H7wWcHl0BYtH6oT34fCuqiLJpaWlX6uurvxROjt3yEzT0dH11vLKSnE6ZSzUiTw7taBxUYZhArKsLMmyoHAcx8gS4DZwkpDjVY2RJLGoqsQ8qVKgplokKA3YIa4LRBYEgIe8sfAz7AArQajZJEk7NfNDhgkJgjhutWb17Nq1PSX9tN7mAqCfnZ29WxTFT54sQI8Pep16OdjU6D0zOzs7adad4XHf2b7xidtFUazDGwt7VmNrL1hD7pzcxxrqa27MysqaTAVqs8HIB7t7NInenNUNz4zWeuuv8rjdGXsLnyCg/wREYU0H3Jl+Dzf3rq79r6cDeiPVgTAGUcEYmOP8dWILzAG9Hqpl1U4dmUDuOc3hIKfT9ckM0MM7EOUUN++GfmgJ6rOyNCoq1UEFN358C8A0McJYJHjIsiyUlpX+sTDf889mlcjr1ZcS6EEa3Lf/4GNLS4vvwWaCVquVgDR7q8GidGUKoWdkynbaIQEIZFw6JlE3BDHbt//Qc8vLyztpDiW5tbC89j44EbF5ox7vnrA7HL/d2tYCnqIL0PiFhZWq7p7OV6PRaIlRCse8Pu4gktC00NShlqb6DyQuZJB+2o923h8MBq9IB8RYYmRocnjr1h0X2e38mqTO6w2qnoLsrVgslhbo4XkEOJp/wAjN0O2kSkQkRRRoilYJLeogpZKklgUa6BxQLocJhVhRSTLGMJTCcUyE47LmWBbdXERRBQUU3AYsJAmHImmDWhRFWaIo1W+327uKiooyjsmuA/0dkiTdAEncjZ7M8ZseuurpAsFhu90O1M260fxSbTSz1A1WYGlB7Sz8oebGhjNTWUSBiWj/4PDXAlPTn5Zl2a2HL16TTUzPibCUm+P+RWNjw9eMSd8T2wzJwbt7egDobaY4eo4dq6urvyYvz/VCOqDJ5HtY04ODw3/x+wJnafomQ5x0LMggCXKNeeVAY0P9CQF63WLljXRAj3VjHIesobDvDG5zHOjXdy1J55CIQ5ZgCZvn+cOtp+45w2kiuQ8AfUdXz59FQXhv0qBmeuY9fECtDTeBnEwB3+DAgQOBpulF3mI5SpGkfXFxsQULmjg6MBIulVUKC+0lYraosPA7dXXVd6YTMpOtmXRAzwyPjn/F7/N9A9gLlPEE5UBdleh0rTOpIIWm3WYdqq6uvDA3N/eYLCvgDdvR1feCEIuVUSwyZaQMIQCw1QxMCs+zgeqqqpsLC/P/hBs/P69mT0z0PDM3P7cHn/r45Dfy9Bh04P+cXPcvmhrqIfbNqvMBTODA4MhTCwvBXXB1WvtJHBJETWU7bX/btk07wNIqRjIFek0pTVNEbm7O/YUFxT/JybFDcvCTLoIl3KpmZmZ+JssyAL0Wt994yOJNiXQs2iIHoL/KbrenPRwTF+hGgN7C84ebmhrOSOc2vrCw4J6YCPx8dm72Q5BDwyg9Gq/PHMeNFxYUfqOqqvzXyTbQ/Hz4gs7eHrC6QbFu0lnd8Ox4XW39tXl5rucyAfJ0ZcGOfnBw6BG/b/qcDIB+sLGh/lq3251xGOl07TEL9FhhifxJ4qHB8TzE61kf6I/dv4ktQ8/p61Tlee75U0/Z80Ez+9gM0McFzrhFIrbWw/sBHVrajT2Um5f7RGllxffFpVjh4PDgvwsxcSd+h9FvCNpszExntzneLCkpu7y4OPOkI9phkX7CQnVdPb1PSaJSgxNm4zRXkHlJ0EMDUCq6aoB1Sn5+/jdqa6u/bXy3Hovj8xOT/u8risKo+sQSMpIAeZ4jVlZWNKUYdJzjuYNb21ovs1gsg/g9oDcYH5/8yvDIyC1xSRwrY9fqKvEgWy2WV5ua6j9kjH0zPz/f1j8w9Jfl5WU9MUiqYUDvLS8r+U5VVQUEwEqtRie01HWQVNiURI9t92makvML8u+ur60CqxtTCX/Tzd1mfw9zODs7+2NJkkAa5k8uoCcJBPT1aYEexsU3P1/uGxn9zfLS8mmY7kPCAzq8MOhk2x37yyurP+bxONdN+Dw/Hzq3s7cXgD7HJNBP1NfVX5eb69rU+DII6Icf9vsC52UC9A3eumtORFAzs0APAg4IkDD2NpvtdYJUFwkFTCsVCqI0kCSpSWJaEja41YLLsf4hVUqVAcdJ7a86WY+AHVSHYIapsZqKqlA0JVE0tcQwbOe2La2wx9J6n5tRxkJdRgOOeEwsDPyr0rmQ7cr+a3FF+ZcLXK4hYEuGR4e/NDHuv15RFA822sAUORgLxAUnhVBlJZaXm/unkrLGz+XkZB7kLC3QQ8TCg4fa/yscjpxh7BRWVoq68oQmkC0pKC3tdvtbdXVbLsQeivqJ6jx8uP2xUHjxnzReDuZB0zQiO2ZszwxXLQC/bKfjobKy5psSgxwtLCztQDbqUh7akNi+H81+3BwL/W6xWAbqaus+jmNuIz3B8A1TgelbFEV2ocxoyT8gaVA0PdVQ773QrJMLSljQsdcsdaPTNkpervsnXm8dUAWb5vq82WA/Ozv7XUEQPifLsh0vcONtCs+BTt28bbPZPuZwOEwlSza2NROHKXyDQNRNfUrqxljH+Ljv4knf5PeXl5e1NJZIV7I2NyrHsITNZn+8tq7iU+sl2JmbC53V1acBved/Gej5wcHhP/t9gQszA/rGq3JynJuqGIYxhmCBPT3730xH3eA8D1lZWX3l1eUfstDuCdlJyG6UBQpnmNKWVRLBFHtz4o18zJV8ZoYgPB7teRDSgP40ZcFmBugxewANRIwEMpeMS+maXChmu9wvVJQVfz43N7cLr0FIVdjbN3BHKBQ6H3J0A1uCrYOwsQmU1ZLoxGIg4U8VlxT/pKam4ieZUjhmgJ4cHh775Nj42G00TWeBxINtXTUbUQp5ztK64wqFgDrQ1NRwnssVz3QPMd97eo4+LohKOQyCKKNokBDPGSthkDJVU6ouV9VUXVOUn39MFiDIW9re0fnX0ELo3bApsQNMnMuLh2HVAUAoLCr8ubeu+qugN4DJGxho/31kMXwOslZJNwSqdnDt2N4G2W9MZa7KBOhx5h+YzGyX867W5sZ/NnNr2GwAN/u+6enpr0qS9HlZlnMTlWbG67ZO3bzidDohTDGYi2b02RDQc5b9TU3bzzYbcwn4+t7e/q/Pzs5dFxPEQhy/HinlkSMPQIIgCLHSsqJf1NfXfSmRUpudXTyju78LQiBouQzMUDf1dfWfOAESPT84OPRHv28agJ42xdGzzJDX2/ix3FznGxlNjonCYJ7d23vgjWgs2oiKr29Hj4wQZNhjELbkLDP27Saq35Qi5uzo4+HMEd6stR6UJEEsKix6obi44F/XS6Lu98+cNjE5fm8oFKnHtvdYgMX6C+3g0AXprCzry8UlFR8tLc1NGd4lcQDSoZxWfnp6sbCvv/05RVGbQSmhp2RDGmUd6Ck9by+h27GXlZXdUllZ/h0wbQTKZXR0/J/HxsZ+AFsI3ikp6FAFjSHSvGtp3oiVlSWQoNq3bmm5AFyKExsM9MHI+PgNvgnf7bFYjKEoiF9i/Kw9rGGwnE7nMw3etqvtdnIqHI16Ow4ffSgWXdmKDofUOV3hhM735N/d2FgLPH9a2gZakgnQY+WYlprRlvXw7p07rjBbz6as5gxfMjs7e9N/u5F/WZbl8jSesQpFUQ/yPP/ZnJycjONpowxTnWCelzIefVwZq4W6fauxYUdGWYrm5+ezfVOBn81Mz0GMGDvmRbHuAecLsFh5X0lJyRfKy0seMg7ZTDByek9P968lSSo3C/QniKPnhoaGf++bDFykKAprFujr6xvAeWvTUwmC4cXevZrVTXNyoAehEFFlLMcebPTuPNPsIZ3hst1QcTOesfjF+g1Wk+gxQIPsm2XLeqWyovTz+fn5h9ZrhGYWOzTyr1P+wD9DbLFVAUMzmkOHBlDmPKv58QBORlwu10OFRXnwzqRe/xsCevAsPHS4/cFwOHwpSNFrktli6gTHa9eBPjvb+XxVVeVlYOoGk370aMeDweDCeZCsXdtEevJt6A72bkXXHZnIy835Q3NzU9KUemD22dc/+NLS0lK5TuGtM4Zx6w+eY9+sqvP+S36O44gvMHvFyNDwD0QxloNO4ERl7NpXsSwzUVVZc11xsfmY3fGkC2asblBaRk0BbbH+9R9O2QV+Aidl4hEYmbm5uUtEUQSg30FBjGo9xCpelPC/fpPqYhjmnvz8/Ds2sss2BPQWyxuN3u3nZxrTHPh6/+jkfeFQ6P34Kg4ei1o/VHXVGsxmtx6qrq68xu12rzqAzc+H393Z0/MbSZaqzQE9M1pbU3+Nx7O5tutASQ4MDD8w5Q9coiiKxSzQNzV5LzPevDcyV0kAzLl374FXo7FoWyqgByUl+GDSNHOwtbn5jEwjiG5We9d7j7mgZnErJuTNizxwQTq3WC1vlxQV/QgiUaZq5/TiYuHs2OQ9s3PzH0AhtXF8McT/gw6DoVDEVfC3oSi6t6g4/9ba2ur7zPbflEQPLxsYGPq43z91uyQr2SB5Ly8vo6S2uqesiuO16yF3aZp+u6Wl6aNOp7NHy6Z++MijgiBuAZ2J5oHIcsj1XI84CRI9/D3b5ZgvKi66qaQw+eCA3uDQkfZHw6Hw+7BEjnna+AmLftKdYvqLCosfdRfm3OcbnrhlIbTwYexBi8yzkg2DSjjs9udqaipgMwTNDqoO9MDRl6Qz30R+AHCroQmGph479dTdAPRJ4+iYbcOJKjc3N3eKJEkXy7J8Kk3T2SAEAFWgRZFC3GdMVdU5iqJeVFX1kcLCwmNy6pppm54cHCTCTCT615oad3xgI1Lh8PDYhyd9/q8LgtCMKCndMVBGDjzYwSrP4/5LbW3N53Bk1NnZ0O7ugd57JVHaag7o2ZHamjoA+pfMjIPZMmD6OjAwct+Uf+oyyNhmFugbUN7jjK2i0rULbkf79u1/ZSUa25YK6LXIrQzowajDTXtOPd2tm1Kne///xPeIutkHuPXuZOaVOLQ5tCcejgOc7pzdbpfzlpqayofN3NADgfm28YnRXy8trWyLO4PqrAccIBISBnFsp2xX9t/Kyoqu9ng8PjNjYRroIUhRe8fRp0VB3oYWPjptjIHEMGcLf7NaLcO5Obk/qq2t/P3IiO+9E76JO0VBKDXyoBp1sqr71s0zHbZ9TU3ei202W8oOTE9Pf7anp+92BWIw6Jpv5HiArHawHgHqkCQpZM2yHKioLL9zdGjk32RF2QLXIc1hi6RXy+KDAf6HPkAyk9ycnDuamhr+JRPw1fNl7jMD9EgthPRMFp5/fPcp28GE86QFevBQXlpaqqBpOg8aLUmS1gPdQQsct8BTN6woyvjx5GPVox+CHXYaoI97VvM8v2GghwOrt3fw64GpwDWqqpawLIckKY7V1geW9FmW8eV7PLfX1lb+FJTmweDSts6ujltlWT4drTUkzWFXfmy0AAc6fM/z7EhRYfFnKitL1w3NYWbTJpGgqcHBoZ/7fdNXKIrixECP9Q1xhfnqjYvgeGawvrYGTKFXFYQbrT/xOVVVs/bu3f9yNBbbmQrowRdQzw9wePfunTCGms/MyfDRHKa6e/4qxIR/SBcCIa7MB4MUaqKwsOB3YHm4nj9RkvkjJyb8nxgdGQNho4zjeOT8SSMhA2Mc9h7meD5ks1keLi0u+mczFI5poAfF1ZH2I3cFg2GgVAiQhOMK0PjiQXy7ttgX7TbbS6WlZd8MzMzcPDc7A8kqOAz0q26/q6n20OmVm+f+TXNzI0SHTElfgE1+V1fPizFB1lKV4XoB6GHh4KxDGLQZhhrMyckdCQSm/oFlWSv2RgOJW7th6JnX4ZBAP2sxNwLlZSVXl5WVPZ3JwtOBHiT60nQSvVH/b7Xwf921Z/uHTmagz2QcjqcsCBZdXd1vrERjNcmBAn2DJZ3jAXp4z8zMjMPnm74rtBD6oCwrNk2gIeJWOFjZbLPZXyouKvhacXH+3mBwqbGnp+sHMUF4N0mSDgB6o4c23qBY6Q7JPoqLir+VyjZ/o+M2MDD0M79v+uNgTWYK6Dmmr7am4QKPx3lc7vVJgMu6d+/+l6Kx2O5UQA9KRojFznHsod27dwHQZ6zP2eh4pXvOTIYpENJw6BWUOISbzvfk/a6gIP/7icH10tU3PT1tn56euys4v/ARRVEZDdM0h0lkoWi0twdrJYYhx4qLiu+qrCwHb/2UlkSmgR4aOTIxcvro0OS9qqrUgSSs0yKrIGs8deBnhmF6PHl5D4ZC4U8sLS9VGBuLG29sHk3TC2XlpddXVJQeY22zjsRga2/v+PNCaFGL1ocdL+CSoJkjGaQweBaAm2VZeWVlhbZYLKtmTADEWFpbm3JOC9Gwr7WlCcLersY3TzdZ8P3GgF6F7DKP7t6z47J3gJ4gIChWV9f+NzMBegvPvdLU5P1gpvNlnFOfL1jh8w3/OhxaPA0AW9TTSWKhBihGkiRncnJynivIL/6/NE24+wcHbhFiMQiOlwvc/moGNE0gQjotkOjhZ4ahhosKC7+XCb9qZs1BmYGBoR/5fYHrFEVxmwF6lmM6mxu9F2VnZw+YrcNsOVAy7t27/4UoGpckVjcqAcnBIQ4Kx3EHGxr2vHcjNuJm25RpOT3D1OOCIJySKsOUwYkUkgc9WllZBtReytAZydoyPT1dNzEx+fvQwuJuJGigD15/gG9YL6ZZK9lsr1dWll+dn5+fcg4zAnqQePr6B/4gitL54JGGo8thDhMvamgY/o638DEhJvD4CgsNNl5FtInWO8Lz/JHmFi/EpkkbcAieGRsbu3xk1He3LMsuZAMNCUlQcDNjbB5kHYKSlehmf+sCPXacQe1RwVrnj9u2tn0ilQv8ehOmc/TgMGVSokdjYLFyj+7evfMdoIcYD2E1r7t7/1uZAD3kjG1uqv/A8QA9AszhqwKB6f8rCmIdBXqoVRtpUBoiupJl2U5XtvOZrCz7IZ9v8ipJlneTJOkEoMe3Q3guEegpihgqLCj4ntdb98tMgSdd+YGBoe/6fYEbFEXJMQP0HM8caqhvvXgzc5PiNoIDlw70p6YCelAyQrBznucO1NbuPONkAnqdo39SEMQ9qagbjGeQK7ayovza/Pzcl9MxEsnmUncsvW7KP/2VaDRaDesP3yQR/YaEWvhoeEbIgseT9+fi4uLPpoqFkxHQw8v3v33otsVI5HqKYqyYn8cnGpbw8QLHp9AaYNcbqJ3x0GAd6OFnZ3b2I21tjVeadf8HhV370e5nY7FYK6aEMDdq9G40uhJDIgMcIxpTUKttMVBAHMcEy8vKvlhaWvyAGS8648RlBvTxG9c7QB8fRQiK1d29f+8GgP6iTK/MiZsO+PqOju6fzs7MXUHSlAsFm0ISOcsyOLqpyDDMEM9ZgpHFcCFJkpUI4I+9QaMrN7qC0zQ5mO/J/15DQ9396YA70+/7+we/5fdPf1pVlFxTQM8xr7e2NF1qJmRvpm0xC/SQuQ3sObKysg43NNS/L1VAukzbcLzlQ6FQTld371OCIOxOx9HDHDuczuGG+uoPbiS2k7GtkAJzeir4s8D01KUqSWiOifGc3WuDvgG2chwzW5Cf/5Pa2uofJnOkyhjoBwcH3+fzB+6XZVXL7o4lFvgfS/G40ZhTwhI7Lo+/R8pYtDEYlp0tLi75UlVVyQNmJwgUPkfaux5aWFi4ANMv+OaA6zTGj0AUD/ZgQxQP9oTEz2NzJrvdesBbXwfWNhk7+2wI6EkFFNh/3bVr50nL0cPC53k+12Kx9Judo42WQ9EP970VjQm1ySVC9A3m6C0892ZTkxfSPK7JMLWRNoTGQznDsxO/nQ/Nn0NTkAYM0TA4VhgWXuDdOO4TBnojpYl/BqCHDwB9QX7Bd+vra0yvc7PtHxwc/ubk5NRnzQI9yzEvtDQ1XHa8N6D12qcD/YvpqBvg6MHqhuctw9XVFRe53W5IFAT+KjBgyNU0bhanpbPLVPDSczpgrIPIriY9Y0M5nd29z4iCsDNVKkEsKPI8P9jUWPcBh8NxTJwvs3OIywUCkI5w/P6FcOg0hGU45SrSGcWV64ghcTrtR8pKKz5eULC+BVXGQK8pKLp7n47FxJ2YhjFeLRJpHKPZo7Fxq6CvZ1ixZvH7q6oqLs7Ly8uI2xofn7pubHzsLkEQeHxljvNZeHPGbV2Nt47E9huVsk6n7a/bt22F24VppwQ8SRkDvR52Qwf6k9KOHkBeUZQtEHvE5XL9LdOFm2n5jQA9OEy1NHsvPB5rH2M7Z2Zmdg4Oj90rxITtWGDAAI/XmHF9I8Fm1aR3NVw2WuuYNiSHPAUF322oq0mZiS3T8YLyINFP+ac/Y5a64TnmGa931+Vu9+ZbuugcfaiBrLQAABH1SURBVFplLMIElBvA6XC0ExQZFKJgEcfSsViMZlkGMisQNMMoLM1OcxwXohhqmaJoUbsnKSgQsQa2KEsGxN5TCQrFxAFVryJDMFdVJWlaUWVZkFVixcLxIc7GvVySxJEJntU5+mcFAeY/nkcaCYXYGibuRU0zTF9LU+v52dmbIwj5/f5zhobHfyRJUnOi8HCsObkWwPEvFWUln1pP0MkY6OFau//Awd8sLa1cjr24sDQPv2N+3BivHB8EePEatccg0cMzNrv1oW3btlxr1hwJvwtCF/f297y4tLgIJn+rGmp8qOABMSpswQ8ABg5z8viAAGUsfMcwjOJ2Ob/Y0FAPyXlRgtoMPuaBXkt2qSmj4HMyAz14N8/Ozp5NkqQrKyvrJWxHnsGwZFRUj2cOsVJSJpfGAgNsdZ6z7G9pqT9vs4AeEKO7t/+rwbngx6EdiSESVg0KDDlDcZ4GvBZxp3FCDYalhj25nu95vbWmnV3MDtzAwNB3/L4AAH22KeqGZ54+Zfeuy0+EpYtuXgmpBHeg9q8fAgFliJM14wm4YcNHy+hmtWrmrUahDRtz4DlH45/asz1upIGs8XR/CBG87l3Z2ffU1VXdmkzC14H+GUEQdqSibjCLYOEtPVu2NJ2TLH2p2XnE5SDw2eEjnbcvL698IBaLuo3GLNqI6v4dsC6j0Sj0b6GsvPzWmqqyf0+89WQM9FDByMj4B/2BwD0ryyserBjAg2+mM0azTBqdjEFvQ82NhSmcpJK9F2JqjI93/yUUDq9GIYQJhY6DdQ3WIyR7HvGua610KJKa2Lq1+RyHw9Fhpj+JZZaW1OJDh996S5blMrwQoR4kDSKzVDQGKkSl0zhK+J1h2MdPOWXXxWYcLDbSruN9ZmFh4Qyw8aUoajQvL29T46knti0ToIdnNaC38AebG+th3tImlTA7Fj6fmjW/0PujmemZCxVF1fxAYB4B0BGYJwZBXLul4oLGqkQ/lu/x/NDrrbvLbBvMlhsYGPyBbzJwEzgrAdBjYQcLVph6wkIPy7HPnrpHowpNxXAy2w4dCxx792o5Y7emAnqc7yGTd68taw7C8O0djwXMnScv7x6vtxpCm6xryq0pY7v2Py2Iwi7YulhgNUr0xlSmOtCfbbVaRzfen7VPhkLRuv6B7l8tLa28G2MZMt9Ffhl4LnHohSxr1tvl5RVXFxbmrMEuc6OU0OqZmZmi/oGR5yVJajRylRvqnKLC6d1dVe19b36+fSrTd8ANY3IycNPg0NBt8Cy+4sS50dR0HNYxGA8Eu81xoLa2/MyNZnTRnMuOdu4VBKESx8vGmy6uVNHtswGkIMazFqrZclIDfSQSaYnFYjtpmg5TFPXSiVScmc1QhNeLBvQ8397SrFltZbyOUq27YDDoGp8IPLCwEDxTlmXNvt54dU8HPGhDogOBYUh/fkHhT+prq3+c6VpPV35wcOhW32TgBpCmAeiNRhCY18WxlaAPHMs8f8opuyA2+4kAehMhELQjIV230nxvDsISgR4O7DyP5w/eukpgEdaNFqsHNfurIAjvSsfRQyMB6NvaGt8P1jfH2anVx+FWGQjMXTA8MvK9aDTaiJ1UwaEKbjzxeFOI/mJZVsrL8/xHSbHnM8b9aW6UEloNC2nfvoP/GY3Fzk7kLI1FEzn59b6DIGgFBYWPNzbWwxVyaSMDFA7HGg4d3v88SZLFEO4Tm1DGnaLSv9Xo5l5WXnZ/bXXFpzcaLhhuGf0DB1+JRCKtDMOtVo6k+PiQa4eMfirLikhYLNan9uzZuW52rvQ9OPElIPTE/Pz8eRCimOO4EYZhOm02WyQSiVgdDgcouTYtjr4ez/zVaCzWlEoijK8xDei72lobz0znVb2RkfL7/aePjU/eGoksbUOZglDiHEMiJ/21x24pBDKIAWQYaj6/oOB2b13NtzbSjlTP9PcP3jblnwbzSi3WTSqJHtrE8ewLp+7RbpAnAuiz9+498ErqWDeZAP2GoEobLnyrMurnNIne4/mTt77q48n8ViDUcnfPgf+MxaKnYwfROF2HOHps164BvcXStaWt6azNpjXhhtbT2//j6enpD6sq6UK6RHSzxDcKo8DNcZy/sMBzd01N1Q9w3zY8egMDI//i8/tvkWXZauTR8EKMS7DoL0a6xsifMzS5WFVV9cWSkqJ7zWrDExe7qqq5Bw8deWp5eVm7YmEpHTtApdoc+ITEV3KKJANNTY0fP54wsmBx0NPbf//09PRHcHviYxC/bml145ySpELYbFlvNjU1XmzWj2CzgcLM+0Kh0FkrKyu7SJIsZFl2WVXVRfB4Bn6Q47i3Uf5MsRIC2fE838vz/Ew0Gp22WCz+TGyLtU3Wve+lmCCkCIq1RnQAoO/e0tYEElVGIVzN9Bt0FL29/f82Mzt/tSiKJRB4Cn0SJdK1WypuYoyAnqbJqCc//+eN3rovmKk3kzI60N8IXuxGoF9rLIEkfVh7YHVz6p5dF5nJtpRJO6AsClO878VoTNgk6mbDULWKP8ZbPqxTjyf3ofq66quSAT30oad3/58FQThzPYke4Zge/E4Lb8EfbWttPGu9vAWZjl9i+VAoVDc4OHJ/KBz5R5T4CQRDixbkDK8xTEuBAOJ02g+VFJd+vqjIo8VU2vDohaLRuq7DHWDDXmkE8Uw6BAPFc2xHXV3L2Xl5G/Mk009sfnzS/43RkZGvwu/IzDOZkiaxy6ommWFFm8ViOdDYsP2sjQTGMvbd75/dFZj2PxkOL+oJUtBhB3bW2IJDmxg9aBaMhcViCZaWFd7I8zykEqRVlbYRhOqkacpOkiRHkpRIkmSQJKklWmWiBKNKYNUK/whCVbT/Oc1gVVt9XByFYEVC0nAtzDLO2iNJ0tLy8vKSx+NZMnvIrqysVEUikeskSTqfpukiiH0jyzIEslxiWTYMfYRE2RRFSTzPzyqKMiOKIkj/7S6X60GzUj8cFG++ue85URJTxErRoVY3e9Ql+rM38+psnFOgcHz+6TtmZmYvlCTZCVxpOo4+LvismlcSnvz8exvqa2/IZK+YKZtI3Rgl+vjNOy7h8hz73J49OwHoN3STTtUmdFDvf04Qhe2o3PrK2OTUTRpoghhXq0mi0tOzRuoGHbjA0Xt+X19fdU0ynRikLu0bOPAfsWjsTKNEr/WGQopdLNHD+3meP9DctP1cY8IlM/NmtozPF3j/2PjEbbFYrAk4ejAciYpaQpLVWwu4n+mKbcXtcj1RU1P1adgPGwZ6VVVdB94+8vTS0tIeHWzNtnf1hIUfsp2OJ7ZubQVv0OWMXpBQeGlpacfhI0dfEkXRjpRlKGPQsTqERIkLHQwAuvAvLzfvV01Nddcfr0IUaI5J39QPR0fHb8KJf7Hjg5E7heidsEiwjiDLZllSVTWs52Rl4X89YBjYD0skQUPAM5EgKYmEpkMuRhXyMWr2OxA5CIdJ0/+mp15TwQoNDgDQBmu7DlIISBxHhzmOO9Da2nqzmfEHznBubu6roijerKpqHqa80OI3eOzpGZt0iyyBpuk3rFbrXQ6H42GT9Tj27t335Eo09u7UQIG+1Tn6EyZR4TZPT4dqR8dH7omEI++lKAry1CV0J7kyFsYHIpXm5+f/wltfe72ZccikTH//wHf9vmlQxrq01Ez61CdTxnIc/ZSeP3XT8xPrQP9MNBbd9b8N9Lpws3qTwTd+jyf33gZv3Y3JhJw5VXX2vLX/YVGIaRL9espYI9BbrNaXvXXbP3CivHuBKejtH/623+e7imFYDwRmJJn4ntMOMMMNEwSvgsKCe4oK8n98PEBPDgyNfWnK7/8mWAYicI2frIlSfuJ32uIjiLmykoIvVFVV/SaTBb1eWQCdI+0dT4TD4d3IwiUOPGvLHwv0uG0cx81VlJd9pLi4YFPyeUKqsKGRsbsXI0tnLy0t6ZQScqnHXB94BqIDCXleripXCAhfjG4lWvtUnMsUUT+rm1if6I2Nn0LIkgCSwXPvete7wHTSlCnpwsLCDdFo9FuyLOfj9ibqavD8G6SNRZ7nf+p0OiEAU1pOGPRA+/e//chKNHpWOqDH1iQo8cj28473NpZuLIdGJy+YnZn59vLS8pZ0HD2eZzgQkDBBqAX5+bfV1dWcCOrmK1P+aaBuykxw9Cs8zz6+Z/fOjxyvUJNkP7r27z/w6Eo09k+bCvR6tFp0uuNDNr1Cdx2rGynfk/uT+vraLyeb7xlVdQzuO/BoLBYzw9HLvIV78pTdOz+cqYl4uvVm/H5mZql40jd678rKynuWl5cdDM9qcbzwh1SQ4Ij7a7c5O0tKSr+1YaCHFwOQdXT03q6oUpOqklmKIjGqSiogoJKaKQmwCJSKWAWIYIsoFRBsSIKOUgxxxFtXe/1meOZBPO7h4bErp2dnPk1TVKkkSRAnnaQoBtoha+3QqSr4w6rkq6jQVFpVyShvYQ+Wl275uMdDRjIZ/FRlwdQyGJy6IjA9c1UsFgNbWC0qnQopi1VVIlUyxjB0TFGA1JFJDdAJGQaLoWmah2xBmGohFEpPeAySOalJ6MjQD8aXUkmYZRDWNQkfDgmZIEgapE6IfQduyPB+SiUVliQgNZdCMTS5QFHU8zt27PiU2T6Hw+FTo9HoPZIktRn1LRjU8AFl5EShzyzL/jwrK+v7ZqgVYJ7efvvgD0VJBuqmGPSYaP5gPeliC8S4JQhJVdQYQRILHMf079i+FZTox3U7TDcO4AzU1zf0rzNzc/9EUZSHJBROJSjIpgni1RrUgVkmKZgZVculRNGULy839zc1NVX3pKsn0++Hh8cuDwQCHyUIsoQgSSuMIdzAKApoQJRWG26BKiEtUxQ7ynLM29u3tkGO4vRImWFj4EZ74MDhe0RZ3EYShFNF86ddJA3ByfV6YRq19WmkeIxtwjgFifo02Qe9S0sZrhAk7B1K0dY/OEtpDrVgs6yQqgo5xiHROE0rCkTQZmB/RWmSGc3Pz3uwsrI8qeMaCBuHDx+9NybE3gUx/mEeYcORJKWQFKkosoKSj6tyTFHJgMXCvbVj25avZKKLynBYteIzMws7BocG/pVQqXKClG2iLNEszZAMTcuiKIoqQUAidBKESBgMl9sVOC6gh0pBYWG1xvIkicwiCFEF8x4N0ePuy6uHjbFTAHIWi2VhM501dFfn7Gg06qIoyioIAslxnAaouku1JgesQxiqqqoKenvSSpsbmRzgspeXlyFuhbbgFUURZTlLVBRCzs4mwI7XmAgZ7QiCoILBIPDf2v2MJLPXzJe2zLXlvqAShItQ1aDqdrtXN0gwGCRJEs6WEImeDWtx4w3/yP9OC7jicrmAW0/kIJJ2E6wA5ufn71xZWbnKSAsYHzAqiHQJQ6Qo6n6WZX9pNqMR1LO0tATp/UDhD940xv5jvQO0W5EkacVuty9vxJN5g/MJJ6ltcXHRQtM0BzoVaJ++9mHNaeOp027amMPvoiguORwOmBhTt6dM2xYOh/MYhrHAeEEmGMN6h5+1sVIURRAE61J2NhE5EdI8brOqqgWxWMwlSZKVoqgsdDllogyjRo0YAZtPy1oTv/Yjd1n0wOp61vujQzxyqdUFJvhf94q1KwQRIVQVrMAiJEE4YElQNE3DeGhXZEVRpKysLNBLQP9TrvtIJOJhWTZHlmVI88dDParKCKqqxsD9BvqhqmpUFC1LDof2vv+RXBIgbBAEwUUiEQYwBa8vGA/4XZIkmyzLWZIkwXfHXjwzXVjvlP//cwSCweAXlpeXv6koikMHtKSWVSDhUxTVzjAM5JB9cqOOaP9/jvTfd6/hRrEq6WUgTJxMvdb7gCKLoduEJpSdiJvQieg3tP+4JfoT0bB33nnyj8DS0tKuSCTyK0VRWgwS3JqG6zqHUY7j3qRp+kWe55/ZTK/Bk3+U3mnhOyNwcozAO0B/cszD310r4LY9Nzd3pyRJH9VS1+kKYrgkUhQVYRhmkKbpVxmGeZaiqAOb7a36dzdg7zT4nRH4XxyBd4D+f3Hw/96rDofD/xgOhz9LEEQ92PnTND3PMMwwy7Igwb9ms9k60nGgf+9j8E773xmBv4cReAfo/x5m6SRu48zMDOT5bGFZFqx3QHIfONFWByfxcLzTtHdG4KQcgXeA/qSclr+fRoEJmq6kip1IC46/nxF5p6XvjMDJNwL/D75DV24mQd5MAAAAAElFTkSuQmCC;" vertex="1" parent="WVwV5zhWrvc61_-DkQyH-81">
          <mxGeometry x="43.24214792299899" y="26.999999999999986" width="175.26999999999992" height="25.499999999999986" as="geometry" />
        </mxCell>
        <mxCell id="WVwV5zhWrvc61_-DkQyH-87" value="" style="html=1;shadow=0;dashed=0;shape=mxgraph.bootstrap.rrect;rSize=5;strokeColor=none;strokeWidth=1;fillColor=#F8F9FA;fontColor=#000000;whiteSpace=wrap;align=center;verticalAlign=middle;spacingLeft=0;fontStyle=0;fontSize=16;spacing=5;" vertex="1" parent="WVwV5zhWrvc61_-DkQyH-81">
          <mxGeometry x="971.8672745694023" y="16.02999999999999" width="64.86322188449849" height="39.99999999999998" as="geometry" />
        </mxCell>
        <mxCell id="WVwV5zhWrvc61_-DkQyH-88" value="" style="shape=image;html=1;verticalAlign=top;verticalLabelPosition=bottom;labelBackgroundColor=#ffffff;imageAspect=0;aspect=fixed;image=https://cdn1.iconfinder.com/data/icons/iconoir-vol-2/24/language-128.png" vertex="1" parent="WVwV5zhWrvc61_-DkQyH-81">
          <mxGeometry x="971.8672745694023" y="28.529999999999987" width="14.999999999999991" height="14.999999999999991" as="geometry" />
        </mxCell>
        <mxCell id="WVwV5zhWrvc61_-DkQyH-89" value="&lt;font style=&quot;font-size: 8px;&quot;&gt;Register / Login&lt;/font&gt;" style="text;html=1;align=center;verticalAlign=middle;whiteSpace=wrap;rounded=0;" vertex="1" parent="WVwV5zhWrvc61_-DkQyH-81">
          <mxGeometry x="993.4883485309018" y="21.02999999999999" width="64.86322188449849" height="29.999999999999982" as="geometry" />
        </mxCell>
        <mxCell id="WVwV5zhWrvc61_-DkQyH-90" value="" style="verticalLabelPosition=bottom;shadow=1;dashed=0;align=center;html=1;verticalAlign=top;strokeWidth=2;shape=mxgraph.mockup.markup.line;strokeColor=#999999;direction=north;rotation=90;" vertex="1" parent="WVwV5zhWrvc61_-DkQyH-78">
          <mxGeometry x="525" y="-351" width="20" height="1070" as="geometry" />
        </mxCell>
        <mxCell id="WVwV5zhWrvc61_-DkQyH-91" value="" style="rounded=0;whiteSpace=wrap;html=1;strokeColor=none;fillColor=#EDEDED;" vertex="1" parent="WVwV5zhWrvc61_-DkQyH-78">
          <mxGeometry x="1.75" y="205" width="1067.25" height="426" as="geometry" />
        </mxCell>
        <mxCell id="WVwV5zhWrvc61_-DkQyH-92" value="&lt;font color=&quot;#cccccc&quot;&gt;&amp;nbsp; &amp;nbsp; &amp;nbsp; &amp;nbsp; &amp;nbsp;Home / Breadcrumb/ Path..&lt;/font&gt;" style="html=1;shadow=0;dashed=0;shape=mxgraph.bootstrap.rrect;rSize=5;strokeColor=none;strokeWidth=1;fillColor=#fcfcfc;fontColor=#6C757D;whiteSpace=wrap;align=left;verticalAlign=middle;spacingLeft=0;fontStyle=0;fontSize=14;spacing=10;sketch=1;curveFitting=1;jiggle=2;" vertex="1" parent="WVwV5zhWrvc61_-DkQyH-78">
          <mxGeometry x="1.75" y="185.05" width="1064.5" height="23.95" as="geometry" />
        </mxCell>
        <mxCell id="WVwV5zhWrvc61_-DkQyH-93" value="&lt;font style=&quot;font-size: 13px;&quot;&gt;&lt;b style=&quot;&quot;&gt;Carousel&amp;nbsp;&amp;nbsp;feature 1&lt;/b&gt;&lt;/font&gt;&lt;div&gt;&lt;div style=&quot;font-size: 13px;&quot;&gt;&lt;font style=&quot;font-size: 13px;&quot;&gt;&lt;span style=&quot;&quot;&gt;&lt;font style=&quot;font-size: 12px;&quot; color=&quot;#cccccc&quot;&gt;List-based media object&lt;/font&gt;&lt;/span&gt;&lt;br&gt;&lt;/font&gt;&lt;/div&gt;&lt;/div&gt;" style="html=1;shadow=0;dashed=0;shape=mxgraph.bootstrap.rrect;rSize=5;strokeColor=none;html=1;whiteSpace=wrap;fillColor=#7EA6E0;fontColor=#ffffff;align=center;spacing=10;" vertex="1" parent="WVwV5zhWrvc61_-DkQyH-78">
          <mxGeometry x="239" y="518" width="188" height="64" as="geometry" />
        </mxCell>
        <mxCell id="WVwV5zhWrvc61_-DkQyH-94" value="&lt;font style=&quot;font-size: 13px;&quot;&gt;&lt;b style=&quot;&quot;&gt;Carousel&amp;nbsp;&amp;nbsp;feature 1&lt;/b&gt;&lt;/font&gt;&lt;div&gt;&lt;div style=&quot;font-size: 13px;&quot;&gt;&lt;font style=&quot;font-size: 13px;&quot;&gt;&lt;span style=&quot;&quot;&gt;&lt;font style=&quot;font-size: 12px;&quot; color=&quot;#cccccc&quot;&gt;List-based media object&lt;/font&gt;&lt;/span&gt;&lt;br&gt;&lt;/font&gt;&lt;/div&gt;&lt;/div&gt;" style="html=1;shadow=0;dashed=0;shape=mxgraph.bootstrap.rrect;rSize=5;strokeColor=none;html=1;whiteSpace=wrap;fillColor=#7EA6E0;fontColor=#ffffff;align=center;spacing=10;" vertex="1" parent="WVwV5zhWrvc61_-DkQyH-78">
          <mxGeometry x="451" y="518" width="188" height="64" as="geometry" />
        </mxCell>
        <mxCell id="WVwV5zhWrvc61_-DkQyH-95" value="&lt;font style=&quot;font-size: 13px;&quot;&gt;&lt;b style=&quot;&quot;&gt;Carousel&amp;nbsp;&amp;nbsp;feature 1&lt;/b&gt;&lt;/font&gt;&lt;div&gt;&lt;div style=&quot;font-size: 13px;&quot;&gt;&lt;font style=&quot;font-size: 13px;&quot;&gt;&lt;span style=&quot;&quot;&gt;&lt;font style=&quot;font-size: 12px;&quot; color=&quot;#cccccc&quot;&gt;List-based media object&lt;/font&gt;&lt;/span&gt;&lt;br&gt;&lt;/font&gt;&lt;/div&gt;&lt;/div&gt;" style="html=1;shadow=0;dashed=0;shape=mxgraph.bootstrap.rrect;rSize=5;strokeColor=none;html=1;whiteSpace=wrap;fillColor=#7EA6E0;fontColor=#ffffff;align=center;spacing=10;" vertex="1" parent="WVwV5zhWrvc61_-DkQyH-78">
          <mxGeometry x="664" y="518" width="188" height="64" as="geometry" />
        </mxCell>
        <mxCell id="WVwV5zhWrvc61_-DkQyH-153" value="" style="edgeStyle=orthogonalEdgeStyle;rounded=0;orthogonalLoop=1;jettySize=auto;html=1;" edge="1" parent="WVwV5zhWrvc61_-DkQyH-78" source="WVwV5zhWrvc61_-DkQyH-96" target="WVwV5zhWrvc61_-DkQyH-122">
          <mxGeometry relative="1" as="geometry" />
        </mxCell>
        <mxCell id="WVwV5zhWrvc61_-DkQyH-96" value="" style="html=1;shadow=0;dashed=0;shape=mxgraph.bootstrap.rrect;rSize=5;strokeColor=#DFDFDF;html=1;whiteSpace=wrap;fillColor=#FFFFFF;fontColor=#000000;" vertex="1" parent="WVwV5zhWrvc61_-DkQyH-78">
          <mxGeometry x="1" y="2347" width="1067" height="313" as="geometry" />
        </mxCell>
        <mxCell id="WVwV5zhWrvc61_-DkQyH-97" value="Resource express" style="html=1;shadow=0;dashed=0;shape=mxgraph.bootstrap.topButton;strokeColor=inherit;fillColor=#F7F7F7;rSize=5;perimeter=none;whiteSpace=wrap;resizeWidth=1;align=center;spacing=20;fontSize=14;" vertex="1" parent="WVwV5zhWrvc61_-DkQyH-96">
          <mxGeometry width="1067" height="23" relative="1" as="geometry" />
        </mxCell>
        <mxCell id="WVwV5zhWrvc61_-DkQyH-98" value="&lt;div style=&quot;text-align: left;&quot;&gt;&lt;br&gt;&lt;/div&gt;" style="perimeter=none;html=1;whiteSpace=wrap;fillColor=none;strokeColor=none;resizeWidth=1;verticalAlign=top;align=center;spacing=20;spacingTop=-10;fontSize=14;" vertex="1" parent="WVwV5zhWrvc61_-DkQyH-96">
          <mxGeometry width="1067" height="48" relative="1" as="geometry">
            <mxPoint y="40" as="offset" />
          </mxGeometry>
        </mxCell>
        <mxCell id="WVwV5zhWrvc61_-DkQyH-99" value="&lt;font color=&quot;#b3b3b3&quot;&gt;&amp;nbsp;&amp;nbsp;&lt;/font&gt;&lt;div&gt;&lt;font color=&quot;#b3b3b3&quot;&gt;&amp;nbsp; [Doc list]&lt;br&gt;&lt;/font&gt;&lt;div&gt;&lt;font color=&quot;#b3b3b3&quot;&gt;&amp;nbsp; [Topic 1] Easybuilder Pro +&amp;nbsp;UserManual + PLC手冊&lt;/font&gt;&lt;/div&gt;&lt;div&gt;&lt;font color=&quot;#b3b3b3&quot;&gt;&amp;nbsp; [Topic 2] IIoT Application MQTT(&lt;span style=&quot;background-color: initial;&quot;&gt;with AWS、Azure)&lt;/span&gt;&lt;span style=&quot;background-color: initial;&quot;&gt;、&lt;/span&gt;&lt;span style=&quot;background-color: initial;&quot;&gt;Sparkplug B、&lt;/span&gt;&lt;span style=&quot;background-color: initial;&quot;&gt;OPC UA、SQL&lt;/span&gt;&lt;/font&gt;&lt;/div&gt;&lt;div&gt;&lt;div&gt;&lt;font color=&quot;#b3b3b3&quot;&gt;&amp;nbsp; [Topic 3] Datasheet、Installation instruction、CAD model、CE、UL&lt;/font&gt;&lt;/div&gt;&lt;/div&gt;&lt;/div&gt;" style="text;html=1;align=left;verticalAlign=middle;whiteSpace=wrap;rounded=0;fontSize=20;spacingBottom=0;" vertex="1" parent="WVwV5zhWrvc61_-DkQyH-96">
          <mxGeometry x="124" y="94.60476821192054" width="883" height="192.48463576158943" as="geometry" />
        </mxCell>
        <mxCell id="WVwV5zhWrvc61_-DkQyH-100" value="&lt;span style=&quot;font-family: Helvetica; font-style: normal; font-variant-ligatures: normal; font-variant-caps: normal; font-weight: 400; letter-spacing: normal; orphans: 2; text-align: center; text-indent: 0px; text-transform: none; widows: 2; word-spacing: 0px; -webkit-text-stroke-width: 0px; white-space: normal; text-decoration-thickness: initial; text-decoration-style: initial; text-decoration-color: initial; float: none; display: inline !important;&quot;&gt;&lt;font style=&quot;font-size: 35px;&quot; color=&quot;#808080&quot;&gt;Resource&lt;/font&gt;&lt;/span&gt;" style="text;whiteSpace=wrap;html=1;fontColor=default;labelBackgroundColor=none;" vertex="1" parent="WVwV5zhWrvc61_-DkQyH-96">
          <mxGeometry x="128" y="31.53652392947103" width="349.25" height="55.18891687657431" as="geometry" />
        </mxCell>
        <mxCell id="WVwV5zhWrvc61_-DkQyH-101" value="&lt;div style=&quot;forced-color-adjust: none; font-family: Helvetica; font-style: normal; font-variant-ligatures: normal; font-variant-caps: normal; letter-spacing: normal; orphans: 2; text-indent: 0px; text-transform: none; widows: 2; word-spacing: 0px; -webkit-text-stroke-width: 0px; white-space: normal; background-color: rgb(255, 255, 255); text-decoration-thickness: initial; text-decoration-style: initial; text-decoration-color: initial; text-align: left; font-size: 23px;&quot;&gt;&lt;span style=&quot;font-size: 20px; color: rgb(153, 153, 153); font-family: Tahoma; background-color: initial;&quot;&gt;Product document to technical supports to , including advanced produce information.&lt;/span&gt;&lt;br&gt;&lt;/div&gt;&lt;div style=&quot;forced-color-adjust: none; font-family: Helvetica; font-size: 23px; font-style: normal; font-variant-ligatures: normal; font-variant-caps: normal; font-weight: 400; letter-spacing: normal; orphans: 2; text-align: center; text-indent: 0px; text-transform: none; widows: 2; word-spacing: 0px; -webkit-text-stroke-width: 0px; white-space: normal; background-color: rgb(255, 255, 255); text-decoration-thickness: initial; text-decoration-style: initial; text-decoration-color: initial;&quot;&gt;&lt;br&gt;&lt;/div&gt;" style="text;whiteSpace=wrap;html=1;" vertex="1" parent="WVwV5zhWrvc61_-DkQyH-96">
          <mxGeometry x="128" y="79.80239061170701" width="767" height="68.5919395465995" as="geometry" />
        </mxCell>
        <mxCell id="WVwV5zhWrvc61_-DkQyH-102" value="" style="shape=line;html=1;shadow=0;dashed=0;strokeColor=#CED4DA;gradientColor=inherit;fontColor=inherit;fillColor=#E9ECEF;rSize=5;perimeter=none;whiteSpace=wrap;resizeHeight=1;fontSize=14;align=left;spacing=2;labelPosition=center;verticalLabelPosition=bottom;verticalAlign=top;spacingTop=10;" vertex="1" parent="WVwV5zhWrvc61_-DkQyH-96">
          <mxGeometry x="128" y="83.02791390728349" width="770" height="3.70151371807001" as="geometry" />
        </mxCell>
        <mxCell id="WVwV5zhWrvc61_-DkQyH-103" value="" style="html=1;shadow=0;dashed=0;strokeColor=none;strokeWidth=1;fillColor=#FFFFFF;fontColor=#555555;whiteSpace=wrap;align=center;verticalAlign=middle;fontStyle=0;fontSize=40;" vertex="1" parent="WVwV5zhWrvc61_-DkQyH-78">
          <mxGeometry x="0.5" y="631" width="1068" height="324" as="geometry" />
        </mxCell>
        <mxCell id="WVwV5zhWrvc61_-DkQyH-104" value="" style="html=1;verticalLabelPosition=bottom;labelBackgroundColor=#ffffff;verticalAlign=top;shadow=0;dashed=0;strokeWidth=4;shape=mxgraph.ios7.misc.more;strokeColor=#a0a0a0;" vertex="1" parent="WVwV5zhWrvc61_-DkQyH-103">
          <mxGeometry x="1" y="0.5" width="7" height="14" relative="1" as="geometry">
            <mxPoint x="-50" y="-7" as="offset" />
          </mxGeometry>
        </mxCell>
        <mxCell id="WVwV5zhWrvc61_-DkQyH-105" value="" style="flipH=1;html=1;verticalLabelPosition=bottom;labelBackgroundColor=#ffffff;verticalAlign=top;shadow=0;dashed=0;strokeWidth=4;shape=mxgraph.ios7.misc.more;strokeColor=#a0a0a0;" vertex="1" parent="WVwV5zhWrvc61_-DkQyH-103">
          <mxGeometry y="0.5" width="7" height="14" relative="1" as="geometry">
            <mxPoint x="43" y="-7" as="offset" />
          </mxGeometry>
        </mxCell>
        <mxCell id="WVwV5zhWrvc61_-DkQyH-106" value="&lt;span style=&quot;font-family: Helvetica; font-size: 40px; font-style: normal; font-variant-ligatures: normal; font-variant-caps: normal; font-weight: 400; letter-spacing: normal; orphans: 2; text-align: center; text-indent: 0px; text-transform: none; widows: 2; word-spacing: 0px; -webkit-text-stroke-width: 0px; white-space: normal; text-decoration-thickness: initial; text-decoration-style: initial; text-decoration-color: initial; float: none; display: inline !important;&quot;&gt;&lt;font color=&quot;#808080&quot;&gt;Cast slide&lt;/font&gt;&lt;/span&gt;" style="text;whiteSpace=wrap;html=1;fontColor=default;labelBackgroundColor=none;" vertex="1" parent="WVwV5zhWrvc61_-DkQyH-103">
          <mxGeometry x="143" y="60" width="204" height="70" as="geometry" />
        </mxCell>
        <mxCell id="WVwV5zhWrvc61_-DkQyH-107" value="&lt;span style=&quot;color: rgb(33, 37, 41); font-family: Helvetica; font-size: 14px; font-style: normal; font-variant-ligatures: normal; font-variant-caps: normal; font-weight: 400; letter-spacing: normal; orphans: 2; text-align: left; text-indent: 0px; text-transform: none; widows: 2; word-spacing: 0px; -webkit-text-stroke-width: 0px; white-space: normal; text-decoration-thickness: initial; text-decoration-style: initial; text-decoration-color: initial; float: none; display: inline !important;&quot;&gt;Some quick example text to build on the card title and make up the bulk of the card&#39;s content.&lt;/span&gt;" style="text;whiteSpace=wrap;html=1;labelBackgroundColor=none;" vertex="1" parent="WVwV5zhWrvc61_-DkQyH-103">
          <mxGeometry x="147" y="120" width="594" height="56" as="geometry" />
        </mxCell>
        <mxCell id="WVwV5zhWrvc61_-DkQyH-108" value="" style="html=1;shadow=0;dashed=0;shape=mxgraph.bootstrap.rrect;rSize=5;strokeColor=#DFDFDF;html=1;whiteSpace=wrap;fillColor=#E6E6E6;fontColor=#000000;" vertex="1" parent="WVwV5zhWrvc61_-DkQyH-78">
          <mxGeometry x="1.75" y="955" width="1069" height="299" as="geometry" />
        </mxCell>
        <mxCell id="WVwV5zhWrvc61_-DkQyH-109" value="&lt;div style=&quot;font-size: 24px;&quot;&gt;&lt;span style=&quot;font-size: 18px; background-color: initial; color: rgb(179, 179, 179);&quot;&gt;Weintek ensures trustworthy product quality through rigorous testing procedures, backed by extensive R&amp;amp;D and investment in advanced equipment, resulting in high production yield rates.&lt;/span&gt;&lt;br&gt;&lt;/div&gt;" style="perimeter=none;html=1;whiteSpace=wrap;fillColor=none;strokeColor=none;resizeWidth=1;verticalAlign=top;align=left;spacing=20;spacingTop=-10;fontSize=14;" vertex="1" parent="WVwV5zhWrvc61_-DkQyH-108">
          <mxGeometry width="331" height="100" relative="1" as="geometry">
            <mxPoint x="126" y="76" as="offset" />
          </mxGeometry>
        </mxCell>
        <mxCell id="WVwV5zhWrvc61_-DkQyH-110" value="&lt;span style=&quot;font-family: Helvetica; font-style: normal; font-variant-ligatures: normal; font-variant-caps: normal; font-weight: 400; letter-spacing: normal; orphans: 2; text-align: center; text-indent: 0px; text-transform: none; widows: 2; word-spacing: 0px; -webkit-text-stroke-width: 0px; white-space: normal; text-decoration-thickness: initial; text-decoration-style: initial; text-decoration-color: initial; float: none; display: inline !important;&quot;&gt;&lt;font style=&quot;font-size: 35px;&quot; color=&quot;#808080&quot;&gt;Stabalizing Quality&lt;/font&gt;&lt;/span&gt;" style="text;whiteSpace=wrap;html=1;fontColor=default;labelBackgroundColor=none;" vertex="1" parent="WVwV5zhWrvc61_-DkQyH-108">
          <mxGeometry x="141.75" y="38" width="349.25" height="70" as="geometry" />
        </mxCell>
        <mxCell id="WVwV5zhWrvc61_-DkQyH-154" value="&lt;font color=&quot;#808080&quot;&gt;Image cap&lt;/font&gt;" style="html=1;shadow=0;dashed=0;shape=mxgraph.bootstrap.topButton;rSize=5;perimeter=none;whiteSpace=wrap;fillColor=#D9D9D9;strokeColor=#DFDFDF;fontColor=#DEE2E6;resizeWidth=1;fontSize=18;" vertex="1" parent="WVwV5zhWrvc61_-DkQyH-108">
          <mxGeometry x="539.25" y="33" width="480.75" height="237" as="geometry" />
        </mxCell>
        <mxCell id="WVwV5zhWrvc61_-DkQyH-111" value="&lt;div style=&quot;font-size: 25px;&quot;&gt;&lt;font style=&quot;font-size: 25px;&quot;&gt;&lt;b style=&quot;&quot;&gt;&lt;font color=&quot;#999999&quot;&gt;High quality&lt;/font&gt;&lt;font color=&quot;#cccccc&quot;&gt; and integrity HMI&lt;/font&gt;&lt;/b&gt;&lt;/font&gt;&lt;/div&gt;&lt;div style=&quot;font-size: 25px;&quot;&gt;&lt;font style=&quot;font-size: 25px;&quot;&gt;&lt;b style=&quot;&quot;&gt;&lt;font color=&quot;#999999&quot;&gt;Powerful &lt;/font&gt;&lt;font color=&quot;#cccccc&quot;&gt;PLC communication connection&lt;/font&gt;&lt;/b&gt;&lt;/font&gt;&lt;/div&gt;&lt;div style=&quot;font-size: 25px;&quot;&gt;&lt;font style=&quot;font-size: 25px;&quot;&gt;&lt;b style=&quot;&quot;&gt;&lt;font color=&quot;#999999&quot;&gt;Integrate&lt;/font&gt;&lt;font color=&quot;#cccccc&quot;&gt; IoT applications&lt;/font&gt;&lt;/b&gt;&lt;/font&gt;&lt;/div&gt;" style="text;whiteSpace=wrap;html=1;fontColor=default;labelBackgroundColor=none;align=left;" vertex="1" parent="WVwV5zhWrvc61_-DkQyH-78">
          <mxGeometry x="229" y="284" width="742" height="114" as="geometry" />
        </mxCell>
        <mxCell id="WVwV5zhWrvc61_-DkQyH-112" value="" style="group" vertex="1" connectable="0" parent="WVwV5zhWrvc61_-DkQyH-78">
          <mxGeometry x="1" y="2668" width="1065" height="287" as="geometry" />
        </mxCell>
        <mxCell id="WVwV5zhWrvc61_-DkQyH-113" value="" style="rounded=0;whiteSpace=wrap;html=1;strokeColor=none;fillColor=#F7F7F7;" vertex="1" parent="WVwV5zhWrvc61_-DkQyH-112">
          <mxGeometry width="1065" height="287" as="geometry" />
        </mxCell>
        <mxCell id="WVwV5zhWrvc61_-DkQyH-114" value="&lt;span style=&quot;font-size: 18px;&quot;&gt;Weintek Labs., Inc.&lt;/span&gt;&lt;br&gt;Cras sit amet nibh libero, in gravida nulla. Nulla vel metus scelerisque ante sollicitudin. Cras purus odio, vestibulum in vulputate at, tempus viverra turpis. Fusce condimentum nunc ac nisi vulputate fringilla. Donec lacinia congue felis in faucibus.&lt;br&gt;&lt;br&gt;Donec sed odio dui. Nullam quis risus eget urna mollis ornare vel eu leo. Cum sociis natoque penatibus et magnis dis parturient montes, nascetur ridiculus mus." style="strokeColor=none;fillColor=none;fontColor=#000000;perimeter=none;whiteSpace=wrap;resizeWidth=1;align=left;spacing=2;fontSize=14;verticalAlign=top;html=1;" vertex="1" parent="WVwV5zhWrvc61_-DkQyH-112">
          <mxGeometry x="185" y="54" width="759" height="154.5" as="geometry" />
        </mxCell>
        <mxCell id="WVwV5zhWrvc61_-DkQyH-115" value="" style="shape=image;verticalLabelPosition=bottom;labelBackgroundColor=default;verticalAlign=top;aspect=fixed;imageAspect=0;image=data:image/png,iVBORw0KGgoAAAANSUhEUgAAAk0AAAGoCAYAAABbm9H0AAAAAXNSR0IArs4c6QAAIABJREFUeF7sfQm8HFWVflfv+/7WLJAQlkBAFhVZdFxQFCJhFUVFhbfkERJxX/86Og7oOKJAEkhCgqgs4gaCOo7LOOOgqKMCgSQEhZAQ3tKv9+7qruql/nM6dTM3RferXqq6q6pP/X7J6/fqLud853bdr84991zGhBcioAACgiAwJpPJns/ng7lczl2pVOzlctkiNs3YbLYqfC6VSma4yN9NJpPQavcMw1hKpVJT1Ww2W60cKc8cuszlcpnIYBIEoSZbvYvUJ+VBdmgLGmlKAJPJZLVaazpWKhUL/KtWq7W+rVarqVwuL9gMKQMyVyqVmuyVSsVM+hcEYUH8oL7YN1Mqlay03M3oYLFYQG745wB7CoJAbArNCgzDNMSOtA/1qtWqvVKpWMVxAreqZrO5SrCoB4IgCKAr1LVVq1XoH34Su0H9BXUHrHiet1arVVe5XHZCfRE7wWKxVBmGkR17PM87YCxXKhWoawf9AXOQnWGYislkepktiN7VatWSy+V8JpPJDXoT7EQMaipbLJaFBoA1mUwOwPcK+hH/wbg7PPZE+zfSw1woFOALQI/Vl41bMoYAD/Ef2BTarEQikb+fcsopPzjhhBP+4PV6p+12ezwQCGRE3Zv9CmA5RMAwCDT94DeMxqiI4ggIguCOxWKLDhw4cMLjjz9+9fPPP7+yXC5bnU4nTDS1BzFFjsziBAKTSG3ilQpET+Yiv6pNcPB3sS5pAyYdYBINJz+YlcX2a5MtzHd0fyL3WWjyJPegT6ham7TIxCeShkb1a98vkA/0qFarDEz6RH+z2Vz5P/7Y2Cxiv6T/2qQNEyj8tFqtMHE3uqpACKvVKmAH5AF0JzIBpkA8joBD2hB0Jf6rkRcJdjXyYDKZ6hGnw/0A5iLZOMTgDmEC/ZeBFB0ya410v+wym81ws0aegGNQ9aFOFciPhBQcLiL2A8yM/COEA/SuEbcGdQ/LUStUrRLbEfuD/IftKvOFqmFOxg41hggOZOzU07+meydf2P8b/vVbkXJuGA/U+wBgzLlcrpzJZMo6HI7M8ccf/+tXvepV3z7qqKP2MgyT70Q2rIsI6BEBJE16tJpGZIaJsFAojDz22GNn/+lPf/pkLBZbzHFcBB704qQCpOawtOQBTSZiuCHjKDl8X+rYkatHTa49RQvkpIkJ0Z3g04pwULdVHKBvGitSn/yUm1Sl5aXyytVvZAfSrpwdpTq34OB7GbT16sq1R/CjxyyxHfxsVn967NOCNUOaWxkj0rJy+tXTi5YJ9ANPI8/ztZ9utzu7ePHiv51++um3rlq16ufRaHR2IW9jJ7JjXURAiwggadKiVXQgExCm55577sRf/epXH52enn5jKpVaLL7Z1yYSIEtkaUdKkupN4o1Ulnvoy01a0vqtkg5arnqyyPVPMJGSBDLxNlO/EV5y2NTDVI6kSOvQpEWqQz0SV69+I9u2Ur+RrnKkg+hL16fHY7P15cZBIx1J+41wl+u/00eBnL3p8UeTQZosU0vbNfIES8qjo6P7V65c+b1zzjnn1pGRkReROHVqKayvFwSQNOnFUhqSE5ZS9u/fv/IXv/jFjc8+++ybOY6DmI0aSSITEvEwQUwQtcTzMs+SXExPJyRHCcjkiIncpCT1tEgJkFz9Rh4ZObkWIipwj/RLewLbIVly8tNt1isrp4fUUybFsx0b016fZkjLQjLKyQ/eGSkGcnXo8s3I1w4GpE4jDxrICPeI/OQnxMgR+a1W68wb3vCG217zmtfcHgwGk53IgXURAb0ggKRJL5bSkJy5XG7ogQce+PxTTz11dbFY9MCD1OFw1Jah4OEKD1VCoIAU0ZOU9M2/mUlbOtnSv7cyqbQywTeanFtto9EEWc8DImdiad/NLA8R70ErHiDppF2vX6KXXEB+PdJHezHk8GxUn+jVav9Se8iNn3reMFpmOfkbtd8scZJrv9l2FhpbUiIvbRO+34RA0T9Bt3A4/NTq1avXnnrqqX9iGIaXG8N4HxHQOwJImvRuwS7LLwiC/Yknnnj9D3/4wzvS6fQyt9tt4jjuMFmCBy48ZMHtD38HMkV7NqTiyi1PLbS80cyEUa9MK5Nep56uZmRsdkKrV06ufblJV440NLKPXL+NSBpNmJoZuvX6b4V0yWEmpwfpn3hepF4jOdIv9TRJybhc/81g1EmZenrRMhFiDuMIxgr8gxch0Au8yDzPc6eddtqDq1ev/lA0Gp1pZkdiJ/JiXUSg1wggaeq1BXTW//T09NH33nvv3bOzs+cUi0XYyVXTAB6gMIEQz1I9D0E9VeUmHdpLJX2YawE6OVJC4yAlDGQiWkgPOdLSaFImbRIvwULEtR0c5fSWkoN6fTSjfyPyRf7erhzNevrkSHOz/dfDox5hadUWcv3LkTI60B36pstD2zD+4MUHfoJXD8YTfNfhe068fC6Xa+911133jkWLFu3E2KZWLYjl9YYAkia9WayH8gqCYNu5c+fZDz744Lfn5uaW2O2QPub/4mPqPcDlHtpy9+XU7bS+3KQj17/W78vho3f95fSTs0+n9eXwk2tfrr6c/HL35cihdGenlFxLlyelxB8Cw51OZ+yCCy741Ote97rvMgwD6QnwQgQMiwCSJsOaVnnFMplM9Kc//enn/vCHP1xbqVTcTqfziOSMC00AcpOH8tJii/2AQKfjqtP6zZKeRv00W79dW9aLyaLbkiNN4GGq5+Gl/8ZxHH/SSSf97LLLLpsaGBiYbldWrIcI6AEBJE16sJJGZJyZmVm2devWH0xPT5/m9XoPxzdI304biSudOEi8RC/VU3vS6lS3bk3q7crZqXzt9kvq9br/duVvdvm63fabrSeNGaSXw6Xf63rkCZbrWJY1eb3eXR/84AdXDw8PP99s31gOEdAjAkia9Gi1HsgMaQZmZmZOvPXWW7+bz+dPIgHg9d5U64kndetDGfibXEyOnKpaJz1y8svd75QUqI1Pp/LJ6a/2fbXll/P0qK2fXPvSlA7NkibSLvn+O53O3Rs2bLhocHDwb3J94n1EQM8IIGnSs/W6KDtk+f7b3/726m9/+9vfSqfTx0I8EwSCktQCrXiX6LKdTupyu++6CJEqXXVjUu9EcLXl60S2btSV058e33JluyGvtA9p4Lf0uyknMyGFoVDo8Q984APvHB0dheNVZM/064Wu2CcioAQCSJqUQLEP2oAM4Lt37z7n/vvvvyuRSCwH0iQ9cLbeBCH30O0Uuk5Jk9rydapfp/Xl9OuUtHYqn97rN4OvXBktYyAnO3iaCoWCKRqNPv3+97//HUuXLt2DO+i0bFGUrVMEkDR1imCf1AfStGvXrrPuu+++b2az2WPAwwRbj+nkgvV26iz0Jtsn0C2optykpDZG/U6aeok/9N0p/nL1F9IP6srtjqtXn+6TxDT5/f5nJycnL1+8ePFTSJrU/tZi+71EAElTL9HXUd/E03TPPffs4Hn+GIhFgn8L5VlqRJjkHvStwNLppNdp/VZkrVdWrn8lsepU1nr1ey1fp/3LJfdUAzMlXyTk9G80vqSxS3TMYb2Ab+myHfmdkC6Hw7FnfHz8qqOOOupJhmGOPDtGDRCxTUSgRwggaeoR8HrrlpCm++677658Pr8c5Jeb8JuZZOFNFdz7QL7gMxAxknlY7ogMaL/epEdPAHLLd1LvmFQnuUlJzo6NJkhaxoXaIIHyjd74O530G+2ektNLL/fpjN60zIAn/JMbH+2M8VawaeTpId8vOfnIfbodWmby/QKvMCSpLBaLh7N50/o30pP8faHvASS6DIVCz1x99dVXL1u27M9ImloZAVhWbwggadKbxXokL5CmPXv2vPbee+/d3glpAvHpBzAQI9iJRzIOw8MdPgNZgIc8JM+DiZ3ch7okngo+05NKvQd7s6SiXl0llk8WWt5oZmcVmdwbvenLTapyw0VKmpQmjXL4y5FSpUmLNO5ODj+5/uXkl7svh4+c/cj3SaoX/TIA3xf4nbyEwAsK6A1kBz4vpGMz3wH4rgaDwWff/e53v2/FihV/RNLUjNWwjF4RQNKkV8t1WW6KNN2Zz+ePadfTRMQmD3V4aMMZdXDBw528/RJCIX2DJiQCHtQwCUizkpNJhEwEcpMifYxEPa+TXP1mzVCPjDRDmuQmXbljaOTkk+onXaaRIw2N6pPx0WlKCbn+5fSTjlMpnnL4NtP+QmValb9VeeAlQ/oiQn/HwD7iGXE1ogQJaenvjhLjG9rw+Xx/f+c733nNypUrf8cwTLlT3LA+IqBVBJA0adUyGpNLSU8TrRohPjBZwD+yREcOBIVJB7xNJH6KvBnD3+EzLDc0mjTqeWkWglX6tg5lO/UEgNz0xNnMcgctY6NlvFYn10Z6yy3LyJEeaX2536VyyOkhd1/uayIlwqR8q3ZoFT/py4Fa9WlPIY29VG+y7A3fGfjOwX0gUM0sgct9Z6Atn8/3whVXXDGxatWq3zAMw8vZBe8jAnpFAEmTXi3XZbnVIk3k1HTwGMEbK5Agj8dTI0SxWKz22el0Fux2e4lhGAYe8nScitVqFcQJgoEEnBBqRX5vQHqOGPPiMRF0XplafWhL/AfNkDqt5J+plRU9WUe0RfLYwE85UiCd3KVydUrqIP8W/Du0alrD74jlU8qTBfrAffKzKv4OP6GNmi4S+YAwSusthCF9j9SrwUj1W6+9enLVylHHgNDtwVACuQmhbfgclNjnZeXMZrNUnpa+mY3s3yqpo9shLyDEkwljBLxNZIkOXkygffiuEU9VS0KLhaE9wBfa93g8L15yySXrTjvttH9nGObQmwxeiIABEUDSZECjqqESkKZnnnnmdffccw/ENC2jJpyOuoO3XTiGgfYcwVuxy+WqHQQaiUT+vmzZsn9btGjRC+IkzVsslrLoZWKsVqu5Wq3C5AgTt0UkARZaKLhfT0iGYaCuTRKDYYXylUrFUa1W4XOtzVaUpJlQuVy2QzuCIEB7FlEWQSRTVZBBEITaBF7vEsvXSAmQh3K5DPLYRXJS070V2US71cgJtMFxHMh1aI3HZLLCf5VKBUhFjUSJkzHoD7Ie+iMwDgDcbIb+q4APTJ4i9rZKpQLtCaJNDotHJz0kGDUgDYQ8McVi0U/IXD09JfXrETJQplZVlBN0MRNZzGbzgktJMqS2BomIaV07mM3mun8H/QE/4ukRZYT2wNZ0nSN2okEBCgf41SZiWSOvYA7RFmAjsG0kl8uFYLxBjCDcg+8O/A6kCQhUqxeNCfEAu93umQsuuOAjZ5111oMMw7CttonlEQG9INDyA1cviqGcyiKgBmmC57+YGM+Uz+drsU0QFJ7NZssjIyNPrF69+kujo6NP2u32RDAYBJc/TS5qk4SoJT2OWyI4DVAyz8/Pw+TScVuhUMicTqdhkmq5rXpuKJhUicz05zp6NOUVo9tgWfZlzwOwR7NXoVCoeYRk5GqqOaK72Ww+ggA3VfnIQkd4EaV2ANLXRpuqVGk0RqQyEuJEfsJ3iL5qzOsQIfP/6U9/esvevXsvPnjw4OkMwzjAs0SWjElW/0bKEE+V9D5Nmoinyel0xs8///zPvO51r7uHYZicKgBho4iABhBA0qQBI+hBhHqkSXpuVSt6kBdmePtNpVK1gG5oj+f54oknnvjrt7zlLZ9fvnw5JMpDV38rwGJZRIBCQBCE0B//+MdX//rXv/7CgQMHXulwOCzgaQLiBF6mRpyxUSyY1PMGv8P31m63p88777wvnXrqqVsjkUgGjYAIGBUBJE1GtazCetGkiWXZZY3eQlvtFh7gEOgtkqjiihUrHr7ooou+tHjx4qdx63KraGJ5RODlCAiC4P/973+/+uGHH/5COp1eAUvf5Go1dkraurgUaPJ6vZlTTz31tvPOO+9rwWAwiXZABIyKAJImo1pWYb3UIk0kD0ypVKoMDw//59VXX/2RRYsW7UTCpLABsbm+RmB6evron/3sZ1/btWvXm1mW9Xm9XtkcZ80ARjxVbrc7d8opp2x529vedpPf7483UxfLIAJ6RABJkx6t1gOZ1SJNEIwKS3QOh+OFyy67bOKMM874D9gk1wMVsUtEwLAIwPf3ySefPPu+++7bmsvlToClOToIXG4XZyNgCGlyuVz5lStXfmvNmjWf8/v984YFEhXrewSQNPX9EGgOALVIEzysK5VKNRKJ/PljH/vYO1wu177mJMJSiAAi0AoC8Xh8yT333LPlhRdeeBPHcXbYuUquTkgTeIvtdnvh2GOPvf8d73jHJ30+31wrcmFZREBPCCBp0pO1eiirWqRJTC+QOPnkk7dccMEFX8V4iB4aGbs2NAKCILgeffTRdzz00ENf4Xl+iM7R1Clpslqt/NFHH/3Q1Vdfvd7r9c4aGkhUrq8RQNLU1+ZvXnm1SBOkGhgZGdl7xRVXrFu5cuVvGYY5dKYKXogAIqAoApD/ad++fa+48847H8hms8eCp4k+8LedzkjKAbPZXBkZGfnZ5OTkhMfjmW6nLayDCOgBASRNerCSBmRUizTBG67L5dozMTHxnqVLlz6B51ZpwNgogmEROHjw4PHbtm37fiKRWAWxhMTD1ImnSUxBJgwNDf3HNddcc3U0Gj1oWABRsb5HAElT3w+B5gBQizRBygFBEPZcd9117zr66KOfJMdbNCcVlkIEEIFWEIjFYsffcsstP6hUKidRqT6OODqnlfZIhnEgXdFo9L/Hx8ffiaSpFQSxrN4QQNKkN4v1SF4gTbt27fqH+++//04l8zSBOk6nc8+111575bJlyyCZpWYyNPcIauwWEVANgbm5uRWbN2/+QTqdPqWNJPULyuXz+f68fv36iyORyIuqKYANIwI9RgBJU48NoJfu1SZNY2Nj6GnSy2BAOXWLAJCmTZs2PZDJZE5TijSRRLc+n++J9evXr0bSpNvhgYI3gQCSpiZAwiK1w05V8zS5XK7dk5OT71y8eDF6mnCwIQIqIqA0aaKPW0HSpKLhsGnNIICkSTOm0LYgapEmeOi63e6dk5OT70HSpO0xgNLpHwFxee576XT6VCU8TUia9D8mUIPWEEDS1BpefVtaTdLk8Xh2TkxMvFs8bw5jmvp2lKHiaiOgMml6fMOGDWvC4fB+tfXA9hGBXiGApKlXyOusXzVJk9frfeLaa69999KlS3djILjOBgaKqysE1CZN69evfzvGNOlqSKCwLSKApKlFwPq1uCAI1l27dr1O6d1zsGXZ5/P9dWpq6r3Dw8NImvp1gKHeXUFAJE3fT6fTr1ByeQ6E9/v96GnqihWxk14igKSpl+jrqG8kTToyFoqKCDRAQGXS9MSGDRsuwuU5HH5GRgBJk5Gtq6BuapEmCCSFmCZIOYDLcwoaDJtCBOogAKRp48aNP0ylUifb7fa2k1qSpulM4j6fb9cNN9xwQSgUegHBRwSMigCSJqNaVmG9kDQpDCg2hwj0AAGRNP0olUqtUoM0rV279sKRkZF9PVANu0QEuoIAkqauwKz/TpA06d+GqAEioCZp8vv9T09OTq5G0oTjzMgIIGkysnUV1A1Jk4JgYlOIQI8QQNLUI+CxW8MggKTJMKZUVxEkTerii60jAt1AQCRND6ZSqZNUWJ57ampq6qLh4eHnu6EL9oEI9AIBJE29QF2HfSJp0qHRUGREQIKAWqSJYRiT1+tF0oQjzvAIIGkyvImVURBJkzI4YiuIQC8RQNLUS/SxbyMggKTJCFbsgg5Amp555pnX3nPPPdtZll1GTjbvtGtMOdApglgfEWgegdnZ2WM2bdr0kFLLc3TPPp9v59q1a9fg8lzz9sCS+kMASZP+bNYTidUkTW63+6mJiYl3LVmyZBceo9IT82KnfYKA6GkC0nSiw+E4nKeJzrfUChTk5alSqZhCodBTk5OTGNPUCoBYVncIIGnSncl6IzCSpt7gjr0iAkoioBZpguOQgsEgkiYljYVtaRIBJE2aNIv2hELSpD2boESIQKsIqEGa4Aw78DQhaWrVGlhejwggadKj1XogM5KmHoCOXSICCiMgkqYfp1KplUosz4F4sHNOJE07JycnMaZJYZthc9pCAEmTtuyhWWmQNGnWNCgYItA0AmqTprVr114yNDT096YFwoKIgM4QQNKkM4P1SlwkTb1CHvtFBJRDQA3SBMtz5XIZAsHB04SkSTlzYUsaRABJkwaNokWR1CRNHo/n6fHx8Xfi7jktWh5lMhICc3Nzx27cuBF2zym2PEfFNCFpMtJgQV3qIoCkCQdGUwiomdwSUw40ZQIshAh0jIDSpAnimSQxTehp6thK2ICWEUDSpGXraEg2tUgTbFX2+Xxw/MKVw8PDezBPk4aMjqIYDgEgTbfddttD+Xx+JSE8oGS7eZqgLiFN4XD4yYmJiUsxpslwwwYVohBA0oTDoSkEkDQ1BRMWQgQ0jYBImn6cz+dPUJo0BYPBnVNTU5cNDg4+q2kQUDhEoAMEkDR1AF4/VaVI0zaWZZcrdYwKepr6aRShrr1GQGlPE50RPBgM7lq3bt0lAwMDe3utJ/aPCKiFAJImtZA1WLtImgxmUFSnLxFQmjTBSw8JBA8EArvHx8cvXrx4MZKmvhxd/aE0kqb+sHPHWiJp6hhCbAAR6DkCSpMm8DQR0uT3+3eNj49fgqSp52ZGAVREAEmTiuAaqWkkTUayJurSrwioQZosFkstT5Pf70dPU78OrD7SG0lTHxm7E1WRNHWCHtZFBLSBwOzs7DEbN26EQPATlQgEB08TIU0+n2/PxMTEGvQ0acPWKIU6CCBpUgdXw7UKpGnPnj3n3nvvvTtYll2GgeCGMzEq1AcIKE2aIKbJarXWPE1er/eZycnJi5A09cFA6mMVkTT1sfFbUR1I01NPPXXuAw88sKNQKNRIEwkCbaUdUpbkhYGfPp/vyampqXdhnqZ2kMQ6iEDzCABp2rRp08OQEdxutx+u2G6eJvLyBM+CYDD49LXXXnspkqbm7YEl9YcAkib92awnEgNp2r1799n333//N4mnSUHS9MTU1NRVSJp6YlrstI8QUJo00S9BgUAASVMfjaV+VRVJU79avkW9BUEw792795z77rvvrlwudwy8YXayRIeephYNgMURAQUQUJo0QVwUXPACFQgEnrr22msvQ0+TAobCJjSLAJImzZpGW4IBaXrmmWfOuv/++4E0HYukSVv2QWkQgWYQUJo0QboBuCqVCpKmZgyAZXSPAJIm3ZuwOwpQpGlHLpc7Dt4syVtmOxKgp6kd1LAOItAZAkiaOsMPayMCSJpwDDSFAE2astnscSSpXScBpNAxBoI3BT8WQgQUQUBp0kRenERP066xsTFMbqmIpbARrSKApEmrltGYXPTyXCaTORbEg/ws4HFq50JPUzuoYR1EoDME1CBN8F0WSdPuycnJS0dHR/d0JiXWRgS0iwCSJu3aRlOSEdJ07733fjObza4A4SA/C5ImTZkJhUEEFkRAadJEOhNJ057JyclLkDThIDQyAkiajGxdBXUjpOm73/3uXeBp6nR5jn7YQibh66677jJMOaCgwbApRKAOAkqTJlieI6lHILnlxMTExUiacOgZGQEkTUa2roK6UaRpRyaT6TimSUKadk9NTV02MjLyDMMw7a33KagrNoUIGBUBkTQ9kkqlTlAiuaWENMExKuhpMurgQb1qCCBpwoHQFAJqkSYxv8vTExMTVyBpasoUWAgRaBsBIE2bN29+JJlMImlqG0Ws2M8IIGnqZ+u3oLtapAmW+fx+/xPj4+NXLlq06JkWRMKiiAAi0CICKpMmXJ5r0R5YXH8IIGnSn816IjGSpp7Ajp0iAooiMDs7u3zz5s0/Ictz9C7WdjrCmKZ2UMM6ekYASZOerddF2dUiTeLyHHqaumhL7Kp/ERBJE8Q01Q7sRdLUv2MBNW8PASRN7eHWd7XUIk2wVTkYDCJp6rsRhQr3AgEgTbfffvuPk8nkSUiaemEB7FPvCCBp0rsFuyS/yqRp5/j4+BUY09QlY2I3fYuA2qQJkluOjIzs6luAUXHDI4CkyfAmVkZBmjTBMSqdnj1HpBKPUXlqYmLiciRNytgKW0EEGiEApGnjxo2PZDKZlZDRnxy42+5xSBDTBHXhJ+Rpuuaaay5fsmTJ0wzDCGgFRMCICCBpMqJVVdAJSZMKoGKTiECXERBJ008ymcwJSJq6DD52ZwgEkDQZwozqK4GkSX2MsQdEQG0E1CRNHo9n77XXXnsZeprUtiK230sEkDT1En0d9Y2kSUfGQlERgQYIIGnCoYEIdIYAkqbO8Oub2kia+sbUqKiBEUDSZGDjompdQQBJU1dg1n8nSJr0b0PUABFA0oRjABHoDAEkTZ3h1ze1kTT1jalRUQMjgKTJwMZF1bqCAJKmrsCs/05UJk27JiYmLsWUA/ofJ6iBthFQkzRhygFt2x6lUwYBJE3K4Gj4VtQiTQCcx+PZs3bt2ktHR0d3Gx5IVBAR6CECYnLLh5PJ5Ik2m+2wJJ3kaYJGxOOQ9kxMTFw2PDy8G/M09dDI2LWqCCBpUhVe4zSuFmmCh7XX60XSZJyhgppoGAEkTRo2DoqmCwSQNOnCTL0XUmXStHvt2rWXoaep93ZGCYyNAH2MCnqajG1r1E4dBJA0qYOr4VpVizSBW9/n8+2CM6swpslwwwYV0hgC09PTR2/ZsuUROLAXSZPGjIPi6AIBJE26MFPvhVSTNAUCgafHx8cvQ9LUezujBMZGAEmTse2L2qmPAJIm9TE2RA9qkaZKpWIKBoM7161bd/nAwMBeQ4CFSiACGkVAJE0/wUBwjRoIxdI8AkiaNG8ibQioFmkql8umUCj0xLp1696BpEkbtm5HCkEQrCaTyWIymXjcOdUOgt2pg6SpOzhjL8ZFAEmTcW2rqGZImhSF0xCNCYIAJMnD8/xooVA4qVKpHOVwOH7l8XieZhimbAglDaYEkiaDGRTV6ToCSJq6Drk+O1SLNEHKAb/fv3NsbOzFciBkAAAgAElEQVTyxYsX4/KcDoYHjAWRLB1VLBbfmE6nLykWi8stFkvF5XI96Pf7v+L1emd1oErfiUhimuLx+El2u71j/Rnm0BSCeZo6hhIb0AkCSJp0Yqhei6kmafL5fE9BIDiSpl5beeH+CVnK5XJAlt7M8/wVpVJpJcdxQYhNg8vlcj0djUav93q9jzIMU9K2Rv0nHZKm/rM5aqwsAkialMXTsK0haTKsaWUVE8mSN5/PLysUCucVCoWLOI47uVwuh8DDQHsbrFZrNhKJfCMajX6DYZiEbONYoKsIIGnqKtzYmQERQNJkQKOqoRKSJjVQ1XabYsySL5/Pg2fprfl8/tJCoXBcpVIJguRAlmB51WKx1D6Dt0nM8P54NBodc7vdjzMMc8gFhZcmEEDSpAkzoBA6RgBJk46N103RkTR1E+3e9iWSpVA2mz2BZdnzeZ5/M8dxJ5TL5QA5o4x4l4ikhECB58lisaRCodCXBgcHtzAMk+utNtg7jQCQpjvuuOPhRCKxSoWYpt0TExOX49lzOOaMjACSJiNbV0HdkDQpCKZGmxIEAU5wDeVyuZOy2ezFHMe9lef5JdVq1QVeJCBGZrP5sIcJCBL8DkSKeJzgZ6VSEXw+32+Gh4evczgcezSqbl+KhaSpL82OSiuIAJImBcE0clNqkyZ4Q8WM4L0ZQYIg2PP5fLhSqZzOsuzbWZZ9I8/zS6vVqhOW3oAIAUGCi/Ywwd+BNMElephqv5dKJZPD4ZiNRCKfCAaD32UYptgbzbBXKQJImnBMIAKdIYCkqTP8+qY2kibjmVoQBIfJZBrIZrNnZLPZKwuFwjmVSmUYSBSQIPAuEc8SIUeAAlmiI5+BWJHdc/AZEpYyDFP1+Xw/jUajG5xO5z5MeKmN8aNyTBMuz2nDzCiFigggaVIRXCM1rTZpwpQD3RstQJaKxeIQz/NnJxKJK8HDVC6XF1WrVUhWedibBORIGrvUjJRUnemRkZGP+P3+H6G3qRnk1C8DpGnz5s0/y2QyJ8CBvTQBbqd3SZ4mJE3tgIh1dIUAkiZdmat3wiJp6h32SvQspg1wAlkCj1I+n7+yWCy+ShCEIfAq0ctvZCJsd0KlSFM5FArd6/V6P+XxeF5SQg9sozMEkDR1hh/WRgSQNOEYaAoBJE1NwaS5QuKZcHDUyUg+n38Ty7IXF4vFk0ul0hBZfqN3xJFlOBLc3Y6nifZWORyOv4fD4XV+v//XmOyy98MDSNOmTZt+ms1mV6Knqff2QAn0hwCSJv3ZrCcSq0ma/H7/U2NjY5gRXEHLimQpWCgUVhSLxTcVi8WLWJY9nuf5WtoAIEfwj8Qi0UQHPhPSRMcytSIeIVuVSqUYjUZvHxwc/DLDMHOttIFllUcASZPymGKL/YUAkqb+snfb2qpMmp4cGxu7Ao9Rads8R1SEPEscx62A4O5MJvOOSqVydKVS8dTbAUdSBkh7bpSPqRUJgTjBTrpAIPAUJLt0uVz/g8kuW0FQ+bLi8txPMpnMiehpUh5fbNH4CCBpMr6NFdFQLdIEwvl8vsfHxsauRNKkiKnAS+ROJBJrE4nEDaVSaQm91AZERpKI8nCndOB3O3FN9QLHgajZ7fZsKBT650gkAskuU8poia20gwB6mtpBDesgAv+HAJImHA1NIaA2abruuuuuGBwc/FtTwmChBRGA3XGJROLtiUTi5kqlcpg00d4jQp7os+PoRtslTdAGHQcFnyEFgd/v/6+hoaEpu92+G9MP9G4AI2nqHfbYszEQQNJkDDuqrgVFmu7KZrPHNpps2xHE7/f/ZWpq6kokTe2g9/I6giAwHMcdk0gkNiUSiTebzWaGLMOB3YhHiJAbabA3vWuulUDwevUgbxPLsiaPxzM/NDT0KZ/Pdy/DMKwymmIrrSKg8u65PRMTE5fhMSqtWgXL6wkBJE16slYPZQXStG/fvldv3779O8Vi8Rj6CI1OxIKJ1u/37xwbG7scl+c6QfLIuoIgeHO53FXT09P/xHHcIJAX+MfzfK2g1WqtpRloN9C7WUmhfZLSwOPx/Nvw8PD1DofjOfQ2NYugsuWANN1+++0/zWQyK0ni0k56oMePy+V6dmxs7NIlS5Y8jfbtBFWsq2UEkDRp2Toakg1I0/PPP//Ku+666x7YkaWUpwlIk8/newqTWyprbAgG53n+2JmZmU35fP6N5Gw4WCqDCwhUN0gT9EViqlwuFxytcoPf73+IYZiCshpja80gIJKmWiA4kqZmEMMyiMCRCCBpwhHRFAJAmp577rkz7r777ntYllVseQ5JU1Pwt1VIEARfPB7/QCqV+kKxWAzSOZhIMLjaniY6jspisVTdbvf3w+HwR91u94G2lMJKHSGgBmkiy70ej+fZa665Bj1NHVkIK2sdASRNWreQRuQD0rR///7Ttm/ffm+hUDiO5PdpJealnipImtQzMMQ2sSx7ajwevzOTyZwOPdHEif5dPSkOtUxyQlmt1n1wHl0oFPo3THapNuovb1/p5Tk6Ls7j8TxzzTXXXI7Lc923K/bYPQSQNHUPa133REgTLM/l8/njlSRNGNOk3tAQBCEci8U+lEgkPlwqldywLAeXNBhcPQn+jzSJS4N8OBzePjw8/EWGYWbU7hfbPxIBNUgTGUter/eZycnJS0dGRnYh7oiAURFA0mRUyyqsF5ImhQHtUnMQ25TL5c6Zn5/fxrLscXQqAZJ2QE1R6OU5klzT4/HsjUQi416v93cMwxwKssKrKwioSZo8Hs/utWvXXo6757piSuykRwggaeoR8HrrlpCmHTt23AuTL3iaOl2aIx4P9DSpOxoEQYjOzc19IZlMjlerVRv0RoLAlbDhQtIT0kSOboGyZrM5HwgEvj40NPR1hmES6mqPrdMIqEGayFjy+Xy7YEPH6OjoHkQdETAqAkiajGpZhfWqF9OkxISLKQcUNlSd5gRBsCWTyfPn5+fvKJfLi7pJmqTZx+F3SHvg8Xj+DMku3W73nxmGqaqPAvYACCBpwnGACHSGAJKmzvDrm9qENN155521QHD6aI5OQEDS1Al6zddlWXZJMpncmMlk3g4B4iR/khLEdyEpSEZw+EnSHICX0uVypQKBwBej0eidDMNkm9cES3aCAH32HOTqUuICu8IZgz6fb8/atWsvQU+TEqhiG1pFAEmTVi2jMbmQNGnMIC2KA0erxOPxd6ZSqZuKxeIIkBi10w2AiNAPyelFPgNpstvtQJx+Ix6tshe9TS0atM3iapEmCPKHQPC1a9dejKSpTeNgNV0ggKRJF2bqvZBqkiZMbtkd+xaLxeWxWOyWdDq9Gjx8Spxy36zkxKNFsoMDYbNarfHBwcFPBAKB+xmGyTfbFpZrHwGRND2SyWROUtLTJJ4v+MzExAR4mna3LyHWRAS0jQCSJm3bRzPSIWnSjCnaFkQQBGcymXx/LBa7ief5IHh7yI62thuVqUhnHad30kE1cWn2x9Fo9MN4tIpaFjiyXZE01Y5RUYI0kWVXWJ7z+/1ImrpjRuylhwggaeoh+HrqGkmTnqzVWNZsNntiPB7fwbLsmWrHMxFiRKc5gL+RZUEgVHa7fTocDn8kFAo9iEerqD/GlF6eQ9Kkvs2wB20hgKRJW/bQrDRImjRrmpYEg6NVYrHYhlQq9Sme5z0k2WVLjbRQmCZM9TxNkP0gGAz+MBgM3uB2uw+20DQWbQMBpUkTiABjiCzPjY+Pr1m0aNEzbYiGVRABXSCApEkXZuq9kEiaem8DJSQAO2YymVcnk8ktuVzulG6QJrIEKPU4EX3sdvuBgYGBKb/f/wuGYXgl9MQ26iOgJmnyer2we+5SjGnC0WdkBJA0Gdm6CuqGpElBMHvcVCaTieTz+c+nUqlJk8lkV1Mc8C6R3XOEoJEjeGCZTtxRx0Wj0S0DAwM34dEqalrjUJ6mzZs3Kx4ILqYc2Lt27do1uHtOXRti671FAElTb/HXTe9qkSaYQIPB4BPXXXfd5YODg3/TDSA6FlQQBGsmk3lTLBbbyvP8UnKYLqgEwcFAcsAusLtO7UBx6FOMi3l60aJF4y6X6094tIp6gwtI06ZNmx7OZrOrwNZkyZTYoV7P9WLfyBE8ME4gWSm0FQgE9qxbt27NwMDAXvU0wJYRgd4igKSpt/jrpne1SdPU1NSlQ0NDz+kGEJ0LyrLsokQicXMmk7ncbDabgRzRh/iSY0/oSVVNla1Way4YDP5LNBrdyDBMUs2++rltkTQ9lM1mT2ll9xzJ7E6wI0TK6XTW4pkymQxked/z8Y9/HElTPw+wPtAdSVMfGFkJFZE0KYGidtqA9AOZTOaymZmZr1ar1RGS4Z2QpW5lDAdEgLCBV8tms/1xdHR03G63P80wTEU7aBlHEnF57seZTOZkIE2N4sxA4waB+4fBIMlKIXUFeJsCgcCz69atW42eJuOMF9Tk5QggacJR0RQCSJqagklXhSDZ5ezs7G0sy14AyyzkmBOSLZzEIqmtFOXhSg8MDHw+HA7fxTBMRu1++7H9ZDJ51M033/wwIU2tYECINdQhZAsIE8dxteVcSFILx6gsWbIEl9lbARbL6goBJE26MlfvhEXS1Dvs1epZEAR3Op1+z9zc3JeLxWIIJkC4YAIETxMhM2r1T9ol59MBaXM6nb8dHR29zm6370Zvk/LIA2n62te+9mOyPNcopqmRB0paHjyEMF7g706n86kNGzZcgrGJytsNW9QOAkiatGMLTUuCpEnT5mlLODi4l+f5lbOzs1symcy5ZLmGTILdOJuOLAdCXIwYY5MYGRn5nN/vv5thmFxbimGlhgiIpOmhTCbzCjrQn5AkOuibjmMin+klO/hbsVis2U08e27PJz/5yQuDwSDGJuIYNCwCSJoMa1plFaNI0z2FQuF44qrvNKs02T03NTV12dDQ0N+VlRpbk0NAEARvIpGYSCQSnyuVSgESywT2Bc+P2oHgZByR9AMwHvx+/68gb5PD4fg7HuQrZ8HW7ouk6cFMJgOB4OaFds/V+25LSROMEY7jBIZh5pYuXfr4lVdeOTE6Orq/NamwNCKgHwSQNOnHVj2VVGXStHNqauoSJE3dN7EgCJZ8Pn9yPB7fnM1mz6LjmbpFmsBLAbuwiIfLYrHMjI6Orvd6vT/Bo1WUHRPxeHzJ17/+9R+Bp8lqtVoXIsWNvE4gkZhyoGS322M+n+/AmWeeueOUU075bSQS+RvDMCVlpcbWEAHtIICkSTu20LQkapEmUNrj8ey6/vrr12AsRG+GgCAIobm5uQ+lUqmPVqtVF0lISbw/akpFL/uQz5AVPBAI3DUyMvIFhmGm1ey/39oG0nTzzTc/lM/nIRu8BQirw+GoLa9BgkqXy1XbzQjLbh6Pp7YrDi6yVCvGu6VCodB0NBp9/I1vfOP2QCDw3NDQ0BzDMPl+wxP17T8EkDT1n83b0hhJU1uw6aISJLtMpVKvTaVS2wqFwjFEaJg8u3HMCp01nPTt9Xr/Eo1Gr3O5XH9Bz4Vyw0j0NP0wm82eyjAMOJtqBAk2ARDPIpAosEk2m639DcpUKhWOYZj4kiVLnn/lK1/5rWOPPfZ3Xq835vF44piMVDn7YEvaRwBJk/ZtpAkJkTRpwgyqCSEIwtDMzMz/S6VS44Ig2MGzAN4HtUkTTdDIchCQNafTmfH7/V8eGBjYCpO1aor3WcPxeHwxpBwQSVMtPxYdpwSeJLJ70mq1Vu12+6zD4ZhfsWLFH84444x7h4aGni+VSvODg4MYpN9nYwfVPYQAkiYcCU0hgKSpKZh0W0gQBFsmkzkvFott5jjuaHKcitoKkQmbzkZOcka5XK4/RKPRCVi+RW+GMpYA0vS1r33tByzLngHLc6RVcmwO/M7zPO/1eqcHBgaeO+OMM749PDz8x+Hh4Tmv15vANBDK2AFb0S8CSJr0a7uuSo6kqatw96QzOFolmUz+SyqVehfDMAzJ1aSmMOBVovuhd+/Z7fZUJBL5bCgU+jYmu1TGCkCa/vVf//XhfD5/KmANMUvgbbLb7YLZbI4xDBNbuXLl788+++zveDye50dGRmD5DWOVlIEfWzEAAkiaDGDEbqiApKkbKPe2D0EQHMlk8rL5+flv8Dw/0I2luXqkicQ4Qf8+n+/fI5HIBofD8SymH+h8fLAsu/imm256MJVKrapUKlafz1cSBGEuGo0+c84553xr+fLlf/F4PHM+ny+JXqXO8cYWjIcAkibj2VQVjZA0qQKr5hqFo1Ug/UAmkzm/GxnBSbA5vWOP5G4C0gTej4GBgY8Gg8EfoMej8+Fy8ODBJZs2bfqeyWTyezyexNDQ0O7Xvva134pGo/vC4fC8yWQqMgwjdN4TtoAIGBMBJE3GtKviWqlMmnZff/31F2HKAcXN1nKDcLRKMpl8bzwev6lcLodabqDFCkCaIH4KiBLE1dDHd5Bg9MHBwYcGBwfXm0ymg+htahFgSfFYLDb64IMP3nTcccf99KSTTnrC4XDEvV4veJXKnbWMtRGB/kAASVN/2LljLYE0Pffcc6fv2LHjPp7nV9TbJt5OJzAxut3uPevWrXs7kqZ2EFS2DhytksvlTvzfrenb8/n8mUBiwOMDhIZOQUAO8+00I7yc9NC+zWY7GA6HrwsGg/8GOZzk6uD9xghAMlOWZQfdbnfaZDIV0KuEowURaA0BJE2t4dW3pdUiTTApwu6odevWYXJLjYwuQRD8MzMzazOZzP+rVqteknSSxB+BmN1YuoN+oE+bzVYOBAI7BgcH/xGTXWpkkKAYiECfIoCkqU8N36raFGm6l+f5Y5XyNMGE7PV6n56amlqDx6i0ahV1yoM3IpvNnplIJCDZ5YmEJMFPKmv34c/qSHGoVZJ+wOl0PhuNRse9Xu+juJSkJuLYNiKACCyEAJImHB9NIUBimrZt23ZfsVg8lp5Im2pggUJer/fJqampi4eHh5/vtC2srwwCgiAMxGKxzyQSiclKpeIkZ9LRBzUTAqVMj/VbofI3scFg8MahoaHNDMMk1eyz07aBdJpMJmcul/NAW16vF7btVzptF+sjAohA7xFA0tR7G+hCAoh12b9//+nbtm27p1gsHr/QQZ+tKoSkqVXE1C8vJrt8UywW21gsFo8BgkQCtqVpAtSX5tByoNfrfWxoaGjCbrdDsktNkRB4qTCZTHbYlZbNZldwHHcmx3GnmEym6XA4fLvL5XpJazJ3w27YByJgNASQNBnNoirpA6TphRdeOHX79u33six7AnSjhKcBJkOfz4eeJpXs1kmzgiCMvPTSSzdmMpn3VqtVCyRBhOUysBkE8JPjNjrpQ64unTHc4XCkw+Hwp0Oh0LcYhtHEMR5wbh+cOZ3JZAbL5fLpHMe9uVQqncVx3Ei5XHZarVbIrP1FMWWCJmSWwxzvIwKIQGMEkDTh6GgKAYo0fYdl2Vqci1Kkye/371y7du0aXJ5ryhRdKyQIgjOdTl80Pz9/C8dxw+LBrTXSBJ/hbDogT2peZJceGW8ej+cXg4OD1zkcjud6lX5AXH6zsywbKpfLS0ul0j/k8/kLOI5bUS6XIyaTyUHIntlsrvh8vp9FIpH1Tqdzf69kVtNG2DYi0E8IIGnqJ2t3oCshTTt27PhOPp8/kXgbOl2mg/pImjowjMpVYWluZmbmFpZlL4TUA6VSqUaWu0WapGfS2Wy22aGhoQ/7/f4fMQxTUFn9I5qHJUsIUcrn80s4jjujWCyez7LsKyqVymilUvETYkdeJkB2wMxqtb4UjUZvCAQCj3RbZiXwEZceQXewPadEm9gGIqBXBJA06dVyXZabkKZvfvOb96ZSqRPsdntteabTCzwJwWDwqcnJyYvQ09QpmsrXFwTBMz8//95kMvnPpVIpDISA3kGnfI8vb5HsoIN+Ybz4fL7vR6PRjzidzgNq5xkSCYOjUCiEq9XqCSzLvjGfz7+Z5/mjy+Uy4HH40Nt6WABpEgSBDwaDdw8NDX2OYZiZbmDWaR/wfScxWvl8flGxWFxlMpkskUjkQYZhIMcTXohAXyKApKkvzd660oQ03XXXXfek0+mVCpOmJycnJ3H3XOtmUb0GkIZcLnd8IpHYyrLsud1KakkUo5a5asuC0L/T6XwxHA6vCwaD/84wTFENEOAcPtGrtIjjuFdxHPdWlmVfWSqVhgRBcBHyCPIsdJHYL7fbrYuUCSJZchaLxeFcLncyz/NvqlQqr4bfrVbrgXA4/KVAIPAbTDKqxqjDNvWAAJImPVhJAzIiadKAEXokgiAIgXg8vjaZTH6W47hasksgA91IcEmWgUF16ny6cigU2jE0NPR5JT03YqwSeJUipVJpFc/zr8/lcudWKpVjyuVytFKpWGjSSDCQM4uYoLMQDAY3Dw4O3sgwTEKuTrfvix41F8SusSx7Vj6fX8Pz/KvK5fJgqVRyiTpk/H7/3T6f74t+vx/OqcMLEeg7BJA09Z3J21MYSVN7uBmhFkyohULhVXNzc3fmcrlVvSBNdH4oWK5zu93PQLJLn8/3+06SXVLLUD6WZZcUCoWzYQdcsVg8tVQqDVQqFTfxKtHn4hF55ALhCbGEnyDz4ODg+10u15+0kn5A3P3nzufzy4rF4tn5fP6SYrF4SqVSicJyHMSuQRwbXKCrw+HYGQwG14VCod9pRYdG3zEYtxh4b4QnkLZ0QNKkLXtoVhokTZo1TVcEEwQhOjc397FUKrW+XC67uuVpIsqR3FDQL0ziVquVCwQCtwwPD/8LwzDxVkEgCSiLxSJ4Ul7BsuwbWJY9p1QqHV2pVMIQ80yIAiFIZKmQJlFyGyFEDw3ZachGIpEvR6PRjb1M0EkRxUA2mz2+UCi8gez+M5lMEKfFUF69I1JLmM3mVDAY3Dg0NPR1jXrMIMbMUywWwVu42GQyzfl8vudxObHVbwiWb4QAkiYcG00hgKSpKZgMWwg8Eul0+nWpVOr2QqFwHH0OndpK014dIE2Q6gCIi8Ph2DMyMnKt6Lk55A6RuSCNQi6X81Wr1WXlcvkcIAsQ4A1epXK57KgXs0XnioLmicepmcOKwStG4v/gs9/v/2M4HJ70eDxPdtsLQhNFlmXPKJVKF+dyuTMrlcpwuVz20jsV6R2AUvLodrsfj0Qi63w+3x+04m0SdzYGWJY9CghwoVA4j+O4oN/vf9Tj8XzV6/XqIgBfbvzi/d4jgKSp9zbQhQRImnRhJlWFzGazgyzLfjGVSl1bKpWsJEO4mp3C5A1kgywJAqkhcU6wfR8CkwcGBrYs5G2iyUKxWDytWCyeVygUXsvz/KJyuRwiniMgZIQIkX4IOSRlQFfa89Ts8hzUE71OqUgk8o/hcHh7txJ00qkSeJ5/bbFYfFsulzuV53kIareCDuIuv5qMUvJEL0vCfYvFkgkEAjcPDw+Dtymjpv3l2oaA/Xw+HyyVSsdzHPc2nuffDPmyeJ4PlMtlwePxQAD+egxel0MS7zeLAJKmZpHq83JImvp8ABwiC450Or16dnZ2I8/zw5AhXG55qlPUCGmCSR0+8zxfi60hiTbdbvfvI5HIhNfr3UPHNolLULADLlgoFJYVCoWzcrnc24rF4olivI5dSsSky2+07FI9m/EyEQ8N8YwR743X6/3voaGhcbvdvldNb5MgCHCsSxjOiszlcpAqYTUQikqlEiQeM7K7j3jYCM7wO8n4TlI90ITS6/X+D8SU9chjBhlVHcVicaBYLL6S47gLYWdnoVBYXK1WazFooJe4lMuOjIzcGolEvsYwDAavd/qFxPqH1u3xQgTkEFCLNMFkFAwGd05MTGBGcDkjaOB+oVA4OpVK3ZJIJC6i45pobwTxxpCJWU2xLRbLfCQS+VQ4HP6eyWQCrwcca+LkeX5xqVQ6PZVKvbVYLJ7B8/yoyWQK0B4V0Wuipng1zw25iCcLJu9QKPSxgYGB7zEMk1dSAJIyAHYACoJwSiqVurRYLJ7DcdwSiPUhnjGQqxn96ZQPYGMggGJQe9zj8XxlcHDwDoZhskrq0Kgt0WPohiNqcrnc2SzLroFlRpPJNAJ2ly6jEtLKMMzjixYt+kAvCF43cME+uosAkqbu4q3b3pA06dZ0igoOOYoSicS74vH4v4hHhhzRPu2B6VZKglAo9LDf7/+C2WxOlEqlUY7jXlMoFN7OcdyJDMNEyuWymSzxScldsx6jdkGkJ3IqgLzq9XofiUajH3I4HBCkLLTbPqlHEwrwquXz+QsBBzg/sFwuW9vVn3jHCAEmZAu8jE6n87/C4fB1Xq93t8oeM8hG7kun08s5jnt9sVh8e6lUqnkM6xElmrTDfZvNlgqHw5+JRCJ36TEje6djA+sriwCSJmXxNGxrSJoMa9qWFINxkM1mj0un05uz2ewb6wUMt9Rgh4VhEne73QmHwwGeJmepVFrJ8/yxEKtEn41Hp0noRYJOOk5ITNB5MBgMfigcDnd0tIqYMgDSJSzL5/Ov5TjuIo7jVpZKpUHIK0UHrUsJYzN5psjSHPHakF118LvFYolHo9HPRyKRbyrtMROJDywvwg6/E4rF4oX5fP6NHMeBbWvLi3QMWqNhBGPA6XQCcfolLIm6XK59HQ45rN7nCCBp6vMB0Kz6KpOmJ8bHxy8eGRnBB1qzBulhOUEQfLFY7P3JZPKfIPFlo7gm2kuhlrjQtxiHU6pUKky1WrUSggR90nE5xANBxy6pJZe0XZqoictiJZfL9d2BgYFPulyul1r1NokZy/2pVOqkUqn0lkKh8DZYOiXxSiSmh8RTkWU5Ot9Vs/YhS4yEpNDB4h6P59dDQ0NTDofj2VZ1qIc9dWxNLcFoLpdbXSqVgCzBsTWHM7ETW8p5CkF/h8MBy4ozw8PDHwmFQt/H9APdGvXG7AdJkzHtqrhWapKmUCj0+NjY2CVImhQ3myoNwsSWz+dXxePx7fl8/pXQCR1UTQcVyx0z0qmAtAdHSt66sTzYjPy0t4YOqoaluWg0us7v9/+qmYmcZCyH3FIQywO7xSAAuksus1sAACAASURBVFKpLIYzAqWEiJZNukzYjNyEmJCytFeR2nE4G41GPxcOh7/DMAzbbLvScpKM5K9hWXY1z/OvLpfLcBiyk4wjOlCdjsmqZ3siP9Qpg3sqGPz+okWLPqRkFvl29cV6+kUASZN+bddVydUkTcFg8K/j4+OXImnqqkk76kwQhGA8Hv/I3Nzch2DCprfkk/gZ2OGmNmkiBI0QN6IUnduJfKbJHXym63YExgKVSXoEWh7iqbFarZAy4bZoNPrVhXZ2iSkDfPl8HjKWv4bjuDXFYhHOhRsUd8gdsVRFp0Qgge/1CFWzpFKacoDgKO5sFAKBwM8HBgbWtROfJRJBTz6fP7pYLL6WZdmLOY47uVwuD1SrVdgld3gnHMgLY4smyrQHrR5JpL1pVqt1/9DQ0KTf7/9lJ1nk1Ror2K4+EEDSpA879VxKNUlTKBT6y9jY2GVImnpu5qYFgFiabDZ71tzc3JZyubySxA/R3ggyYTfdaBsFaYJAT+bE80UIHE0a6B1kcss7bYh0RBWyfEgvadEEyuVy/U84HL7B5/P9kWGYwwk6xV1wsBMwmMvlTsrlchAAfT7P88srlcoA3Id2gJgSj4qUHBJb1Is7oz1eC+lIE6ZGy7AWi2VmYGDgo6FQ6IfNBlqLsVh+lmWPLhQK5+fz+YsLhcKKcrkM2dgPey7J8iqJv6JxbGZ8icSOnJVYDAQCW0dHR/+xlxnZOx1TWL+3CCBp6i3+uukdSZNuTNU1QQVBGJqenv5HlmXHOI47HEsknbzVFIiOT6LJAf33erE4xNMkl5yyU9lhkidJQAmBIyRHJALJwcHBr0Yika0mkwkO8gUWZIMcRNVqdVUymbywVCqdVyqVIBGnmyYuxItFe/mkxIZewiJeP5oINUMa6TZJX8TGQFx4ni+Hw+Hvh8PhT7tcrucXwozEYuVyuZPhjL9MJnN+uVyGA5H9hGASO5LEovUSbtJ/IySL7pfWkRAvkWQ+vWzZsvfZbLa/KBGD1en4wPr6QwBJk/5s1hOJ1SRNgUDgycnJyYuHh4cXfOD2RHHstCECMAFms9kL5ubmNhYKhVGS7FIafI0QNkYAJn+v1/tfoVDoMz6fby/HcYF8Pn96oVCAmJ6zi8UinJ8Gu8jqXs2QHrXxBy+j2+1+PhKJfCwQCMBuQE7aJxxfUygUBniePxPSIRQKhXMgI7vJZHI34+lqVwcgppAQFcYmYFUulzORSOQrQ0NDt3Urv1S7smM9bSKApEmbdtGcVCqTpp2Tk5OY3FJzVpcXqFAoLJ2fn78lm81eTN74pZ4J+Vb6u4TVas16PJ77bTbbAUjEyXHc6WIA9OGUAVolTSTOCOKz/H7/jlAo9BWXy3UQ8jaRwHWe55eKySgv4zju1EqlAse3wMG6sjFvSpBCIPHE2weHPQcCgd8ODw9P2u12yCLfcY6s/h69/ac9kqb+s3lbGiNpags2w1eCZJepVOry+fn5r3IcN0R2N8FEBZfay196B5gsc1mt1rLZbC6VSiUXHaCudfxIbBTo4XQ6n4ElumAw+B8QlsSy7PJCoXC2uMvvNPGsu5rHh5AhJUjRQmOAYEmOi4Fx6XA4EpFI5LNifqmC3scQyt9dBJA0dRdv3famMmnC5TmdjgwYFxzHLY/FYt/IZDKryYTY7QSSOoWvthOMLGcC4aRzIoFOjYKvtaavGC/EeTyeH7nd7p+WSqXj8vn8+ZCMslqtHnHWHfEwkZglNXUBbAFX2qsF3iW/3/+zSCSyzul0voDeJjUtYLy2kTQZz6aqaISkSRVYDdGoIAjuZDJ59fz8/I2QiZtM9s3sbjIEAB0oIcbZHN5WT6doaOZsuA66VqSq1CsG3jKIFapUKo5yuVw7666RN4lOB6CIMHUaIUtzNBmFzw6H42AoFIIdfw8yDFNUq39s13gIIGkynk1V0QhJkyqwGqJRGBuQ7DKZTG7J5XJn0UsievGU9MoQQCogzoakSKB3uJHdcb2SrZl+6V2KtAcJ9CGkuV7aAkKm1B4fBEOyXAyxTWJ6jJLb7f5uNBr9hMfjeakZXbEMIgAIIGnCcdAUAkiamoKpbwvBcSrxeHx9IpH4RLlc9qodq2IkoEkqAvosuGbOhdMCBtIEmXQOKpoQkmVbKYHq1jihyR0h9Xa7fV80Gp0MBAK/xmSXWhhN+pABSZM+7NRzKZE09dwEmhYAdkNls9kzY7HYVp7nT4IJkz4wV9PC91g4EttDgpXJpN6Mp6lbpKMRRHR6CdrDCOXhHmz1h7/TMW4keLyZjOyd6kdIndSjJZ7NVwyFQnc4nc4bfT5frMfDALvXCQJImnRiqF6LCaRp3759r9ixY8f9LMseL33DbFc+aCcUCj0JB/ZinqZ2UdRGPUEQotPT05/OZDLrqtVqLbdQp5OeNjRDKYyKgN1u3zkwMDDl8/keYxjm0JZPvBCBBRBA0oTDoykEgDS9+OKLJ2/duvW7LMueQCbETmMS4G0zGAzi7rmmrKDtQnA0RiKROC+ZTG7jeX4xEiZt2wulq6XEyEYikX+JRCKQ7DKNmCACcgggaZJDCO/XECCkadu2beBpWtnI7d0qXODCD4VCmNyyVeA0Wp5l2UWJROJfs9nsO7uxO0qjMKBYOkEAXtp8Pt8fgsHg+yEjOyTl1InoKGaPEEDS1CPg9datlDQRTxO9RbodnYA0BYPBnWvXrsWM4O0AqLE6cFxGMpm8NB6Pf61UKg2jt0ljBkJxjkAAnj92uz0ZiUQ+Hg6H72UYhkWIEIGFEEDShOOjKQRE0rRq+/bt98Gp60iamoKtLwsVCoWj5+fnvw5HqyBp6sshoBulyUtfMBh8OBwOr3e5XC/oRngUtCcIIGnqCez661RNT1MoFPrr+Pj4JaOjo/jA0t/QeJnEcLRKPB6/EpbpKpVKxAAqoQoGRgCIk8vlejEcDt/Q6MBhA6uPqrWIAJKmFgHr1+JqxTSJgeB/Xb9+/cXhcHh/v+JrJL3Fo1WOjcVim3O53JuMpBvqYjwExMzrJZ/P961AIPAZr9c7azwtUSOlEEDSpBSSBm+HIk33sSx7olKB4NBOMBj86/XXX4+kyUBjSBAE39zc3NpEIvFZk8nkN5BqqIqBECDJOIE4eTyefYODg2Mej+c/MdmlgYyssCpImhQG1KjNkZimO++8895MJrOKHIKpUMqBJ8bHx9fg8pxxRo8gCOZSqXTqwYMHt+Xz+dNBM7vdXkt4CGMGxg/JhG0crVETvSEASS45jqud/ed0Ojm3273J6/Xe6Pf743rTBeXtDgJImrqDs+57AdJ04MCBkyAQHEmT7s3ZFQXgaJXp6en12Wz206VSyQXnftHHbDSTEborgmInfY0AycgOmxYcDseTQ0NDa10u1x8w/UBfD4uGyiNpwnHRFAJImpqCCQtRCIhHq7w6kUh8M5/PH0fOH6O9k7i7DodMLxEQ45lqmevh4GSr1ZoLh8NfGRgYuJVhmEwvZcO+tYkAkiZt2kVzUiFp0pxJdCGQIAgDs7Ozn04mk9fB0Sr0ga2EROlCERTSkAjAEjF4QAlpAiV9Pt8f/3dTyjVer3cXwzCCIRVHpdpGAElT29D1V0UkTf1lb6W0haNVMpnMm+bn528vFovLaNIEcSR4IQK9RIA+Q5MsHdtstmQoFPpENBr9NsMwxV7Kh31rDwEkTdqziSYlQtKkSbPoQqh8Pj+STqe/kslkrqpWqxYQmgSDd7qRQBcAoJCaRoCOswNBYcnO6/X+dHBwcMrlcmEaFE1br/vCIWnqPua67BFJky7NpgmhBUFwpNPp1fPz87eWSqVRMjHBDjokTZowUd8KQadOIcvFsGTncDheDIVCHwqHww8zDMP1LUCo+MsQQNKEg6IpBJA0NQUTFmqAABytMjc3d2uhUFgNYwkmK1ieQ9KEQ6aXCIBXCWKa4CcJChd/lj0ez/2LFi36BMMwL/VSRuxbWwggadKWPTQrDSFNO3bsqKUcgAkP3sw6PbBXTG75xPr169eEQiE8RkWzI6AzweBolVQq9c75+fmbOI4bAi8T2erdWctYGxHoHIF6OzoZhtk3MjIy5ff7f4nJLjvH2CgtIGkyiiVV1kMt0gQTZygUQtKksv163TyMn0wmsyKdTm/O5/Pn0QG4vZYN++9fBODFj8Q00SiIGxa4SCRy+8DAwI0Mw8T6FyXU/IixgXAgAs0goBZpgviBUCi0c3x8/O2YEbwZS+i3jCAI3kQiMZFIJD7HcVzAZrN17KnULxoouRYQkJImKZl3u91PhUKha/1+/58ZhqloQWaUobcIoKept/jrpne1SFO5XK6RpomJCSRNuhkN7QkKY4hl2dNisdj2TCZzKhyrgjFN7WGJtZRBoB5pols2m82ZaDT6pWg0ugWTXSqDud5bQdKkdwt2SX6VSdOTExMTF6GnqUvG7GE3giCEpqenP55MJm9gGMaJGcF7aAzs+ggEaAJPPsPPcDj8m3A4POlwOJ7FZJc4aJA04RhoCgG1SJO4PPfX8fHxS5A0NWUKXReCo1XS6fQ/JBKJbYVCYTkmuNS1OQ0pvJQ8OZ3O+XA4/PFgMHg/wzAFQyqNSjWNAJKmpqHq74JqkSYxEPyv119//cX/e3QBJpLrg2GWy+WGcrncTYlE4mqGYWrJLvFCBLSKQLVaFQKBwI8ikciHXS4X7vDVqqG6JBeSpi4Brfdu1CJNYsqBP19//fWXImnS+yhpTn5BEOypVGr17OzsbYIg1JJd4oUI9BoB6VIxCQovFotwHt3+gYGB630+388ZhuF7LSv23zsEkDT1Dntd9QykaWZm5sQtW7bcT/I0gQKdBvJCfb/f/8SGDRsuQtKkqyHRkbCFQmFpIpG4JZ1OXww5m2CZliQahDFBDlLtdHx1JCRWRgTEZ5wgCCW/3393KBT6rNfrnUVg+hcBJE39a/uWNAfSND09fcLWrVsfQNLUEnRYuA4CgiA4U6nUu+bm5m4ymUxDQJLgghgnIE94Nh0OG60gQIi72+3+Wzgc/oDP5/s9ph/QinW6LweSpu5jrssekTTp0myaFrpYLK6YnZ3dWCgUzidHWMAEBZ/JOWDoadK0CQ0vHD3+bDZbwev1fnl4ePgWhmHShlceFayLAJImHBhNIYCkqSmYsFALCAiC4InH4+9PJBJf4nk+CGeA0SfOI2FqAUwsqgoCZAySfE4Oh+N3g4ODE16vdxemH1AFcs03iqRJ8ybShoBImrRhByNJAWOK5/mV09PT23O53Gvo9ANkmQ7zOBnJ4vrThSZNsIRssVjiQ0NDnw2FQt9iGIbVn0YocacIIGnqFME+qY+kqU8M3WU1BUHwzc3NfTiVSn20XC57ybIciIHn03XZGNjdyxCgxyCQJiDzPp/v3wcGBqacTudzCFn/IYCkqf9s3pbGSJragg0rySAgCII5m82emUgk7igUCqcQsoSB4Dh0tIAAIU1k2RhIvd1unwsEAjdEo9EfMQxT1IKcKEP3EEDS1D2sdd0TkiZdm0/TwguCEJmZmfliJpMZgxxOEAgO//BAX02brW+EA6JE7+40mUxVv99//+jo6McZhjnYN0CgojUEkDThQGgKASRNTcGEhdpAQBAEWyaTecvc3NzmarW6lOd5iB2p7aCjY0raaBqrIAIdIQDLcXCoOFwwJkk6DI/H83e/3/+hUCiEyS47Qlh/lZE06c9mPZFYZdL0+IYNG9ZgcsuemFYTnbIsuygej38jm81eBi9zUrKEAeGaMFNfCgFECS46h5jT6Sy63e6tIyMj/8wwzFxfAtOnSiNp6lPDt6o2kqZWEcPyrSAgJrt8x8zMzFcYhhkmyyGELCFpagVNLKsUAtK0F+R38DpZrdanR0dHJ1wu1x8w2aVSiGu/HSRN2reRJiRE0qQJMxhaCEh2OT09fSvHcW8jb/dEYSRNhja9ppUjY4+MSWosZiORyJcHBgY2YbJLTZtQUeGQNCkKp3EbQ9JkXNtqRTNBENzxePx98/PzNwmCEAC5MKZJK9bpXzlIbB0ZiySfGJAoj8fz30NDQ2MOh2MvJrvsjzGCpKk/7NyxlmqTpvXr118UiUQOdCwoNqBbBMRklye/+OKLd/M8fyq9NIKeJt2a1RCC0ykHyFgU02LMRqPRT4XD4e9isktDmFpWCSRNshBhAfGNX80Dex9H0oTjTBxngbm5uRvS6fTHSqWSB2OacFz0GgEpYZIcrQLpBx6JRCIfdDqdL6C3qdfWUr9/JE3qY2yIHihP0/cymcxJxEXd6flgUN/v9yNpMsQo6VwJQRAskOwyFott4ThuFWkRPU2dY4sttIcAHfwNLdA5m2CJzuFwHATSFAgEHmEYhmuvF6ylFwSQNOnFUj2Wk5CmO+644/uZTOZEpRIPwkPH7/f/dcOGDbA892KP1cTuNYCAIAjRubm5G2Ox2PstFosNJi0g6fCTHGWBZ9NpwFAoQi2XWLVa5YPB4LdGRkY+g+kHjD8okDQZ38aKaXjw4MHjt2zZ8sNsNnsinEgv3eHUTkdImtpBzdh1ICt4KpVaHYvFbqtUKqOENJG3fJiokDQZewzoRTtC5L1e79ORSGTK5/P9DtMP6MV67cmJpKk93PqyFpCmrVu3/hA8TUia+nIIdE3pQqGwNB6P357NZi8AYk0yhEuXRnDZrmsmwY7qIEBIk81mS0cikZuj0egtmH7A2EMFSZOx7auodiJpguW5VUiaFIUWG5MgAMkuk8nkB2Kx2D+VSqUIeJboYyyQLOGQ0QIC5EBfMf3AY9FodK3H49nJMMyhNOJ4GQ4BJE2GM6l6CiFpUg9bbPlIBMT0AysPHjx4e7FYfB1MSkDU6Z1MiBki0GsEyMHScD6d2WxORKPRz0UikW8zDJPptWzYvzoIIGlSB1dDtiolTWQC60RZjGnqBD1j1xUEwTs3N/fhdDr9UZ7nfeBpgou83Rtbe9RODwjAcrHdbq9tUKhWq0IgEPhlNBq93uFwPIvpB/RgwdZlRNLUOmZ9W0Nl0rQGk1v27dCqq7ggCOZCofCq2dnZbSzLngxLdOJupcPlcZkOx0wvEaAJPHy22+3TwWDwU5FI5HuY7LKXllGvbyRN6mFruJaRNBnOpJpXSBCE8PT09I3pdPp9JpPJKT3SAkmT5k1oaAGByJdKpdpuTjF3Xdnr9f40Go1+yOFwPI/eJuOZH0mT8WyqmkZAmu68884H0un0Kc0mt2y0lEIv7Tkcjic/9rGPrUZPk2qm023DgiDYMpnMm+bn529lWfZYEtcEyyGQK6zT5Kq6BQYF7woCJLUFhBEAQSf/oHP4G7lPZwl3OBzT4XD4+mAw+HOGYfJdERQ76RoCSJq6BrX+OwLStG3bthppouNLFtJsIdIE9QqFgmloaOiJiYmJNSMjI/vxzUz/40RpDbLZ7GA6nf5yJpN5N8MwdjJhwRhE0qQ02tgejQAEeANRJ887MXapVoR4PYmXCcYilLdYLGwwGNzu8/n+2ev1ziKixkIASZOx7KmqNiJp+l46nT4cX9LupEXqcRxnGh4e/vPk5OS7BgcHn1VVAWxclwiAtykej789mUzeUiqVFtPn0bU7/nQJBArddQSAJJEcYSQnE0m2SlJg0AQKgsFtNttsKBR6xOv1/qPb7T7YdaGxQ1URQNKkKrzGapzENKXT6VX0g6QTLR0OB7i5X1i9evXUOeec82s8u6kTNI1bl2XZxfPz85tyudxqCBBHL5Nxba0lzcjGA0LOyWYE+J0s2Yk/K3a7PeFwOPa6XK4fuVyuX3o8nj34PNOSNZWRBUmTMjj2RStqkCYArlQqcccdd9wj11xzzQ1utxvPn+uL0dSakoIgOObn56+Ox+NfLJVKw4S0t9YKlkYEWkOA9mTSy3DggRLj6nir1TrjcDj+4vV6H3K5XL+DmCaTyZTHBJetYa2X0kia9GIpDcip5PIccWlDDAA8mILB4O4LL7zww6961at+wzBMUQPqoggaQgCSXXIct2J6enpTPp9/Mzl/TkMioigGRIB4k0A1+EyW5ux2e85ms73kdDp/7nK5fm6z2Z50uVwxfHYZcBBIVELSZHwbK6bhgQMHjt2+ffv3WwkEb9Q5iUtxOp2mYrEIb2388PDwY5deeuknVqxY8Tg+fBQzm2EaEgTBPT8/P5VIJD5bqVSChHgbRkFURNMIAGGyWCxxSFwJXiW73f5fPp/v7yaTKc4wTFnTwqNwiiGApEkxKI3f0Nzc3LG33347BIK/otmUAzQq9E46Qpogx4nH46ntohOJ05/WrFnzpcHBwSej0egcPoyMP66a1RC8Tel0+rREInEnx3GnkS3fzdbHcohAqwiIniXOarXOwRKc2+1+2Ov1/t5ut0MYQQ6X4FpFVP/lkTTp34Zd0wBI0+bNm7+fy+VqeZpIUrdOBADyBMcQ8Dxf8zi5XK6S2WzePzIy8se3vvWt28Lh8AGz2VywWq1sIBDgTSYTvNEJ4C0X+33ZwZjwIIMJFtMXdGIZbdYVBMEfi8W+MDc3N2mxWFwgJSHjZAs4kCm4MFhcmzbshlTkpQzijmiPJPk7nSeO5F6ig7th7FgslrzNZnsRluDcbvcvbTbbTqfTOQeZUvDZ0g0rarMPJE3atIsmpXrxxRePu/POO7+XzWZreZogHqnTjMyiy7umL6QfgISFcPE8zwUCgf3wMRgMTi9ZsuTPixYt2h0MBhNWqxXiCUpQxel0lgVBqFarVdi9AhMoECYgVbXPBEibzQZ/pwlWrQxcULkR4LB8SC5J/Y5tpHR7CwnEMIy5Y4GbaKBBPwLHcbX+y+VyadGiRcl2k/7Bzrl0Ov36WCx2R7lcPrbe5EfEJCSqCbGxiAERkB65Q48L8flwhNYi+YaUAUmXy/V3m832M7/f/8tKpbLX4/HgEpwBx0g7KiFpage1Pq0DpGnbtm0/yGazqyDhmxKkCTxWJBcKeJvgs8vlqnkPgETBfSBoNpuNBW+TIAi8OFFWGIYpWSyW2qskvPmBawm4kjhxV8XfoS3imYJ78PfaM5PUA95Uc0sdump/Fk1Mfq/9CiSHcsfXTo+FSZxwr0O/1ho4TMjk3PeEZBDPmPSnKAu019R3FerTw5P0D3ISWcXJoVZOTj6R2EFZomcNVoI1patZJJ9QDvqqiQE2qlQqFbPZ7DGbzWWfzzdz7rnnbjnzzDN/wjBMoZ2vUiaTiWSz2a9mMpn3mkwmq5Q4tbN03I4cWKf3CMgRY3r3W70XPDEZJSSwBG/2rMPh+Kvdbv93l8v1qMfjgSW4DMMwh9xVeCECzT6IESlEABAA0rR169bvZ7PZk4E0LeCgaRowaAMeXODRgckOiBM83EjiuHrudGpCJuc9NeyP3v1CCtV7eMolSWzkUaPrkc/1/tZIQJJpuGnAWixYTyaRzLTkJZROPgQPMgZo4iKSSUI0a/2AF5BlWbBv+bjjjvuvsbGxa0Kh0AstqkPatKbT6YtjsRgkuxyVykJIE8Y8tYOuvurQz4dmJJeOY7PZnLLb7S+5XK5fwS44u93+lNPpjOESXDNo9meZpt5e+xMa1FqKgEiaHshkMq8g537JkQ05FGFiI/9gYgUyBrFSQKTgIvl4pOc+kfgDufYXur+Q7NJ7jUgTmaBpoiD9vJAMdP1OdGlUtx5paiWjNshHCBFNVgnxou9JPT7EfmQJFryIYFePx/PCVVddNXbyySdDeom2dh2xLLsoHo/fkclkVtOeJdGLdpiwqY2vGjbDNptHQM7TRFoiY1NMVVGxWq3zFotlt9/v/7HVan3U7/fvM5lMsGwMy/54IQINEUDShIOjaQQgEHzTpk1w9typQG5aIQcLdQIEDLwQ8GAjMUSNPBlQhs7KK53IyWRer79WCB4pS3vT6hGnRqSJ9C83acvJJHdfznj1PHWkTjMTDiFNxNYLESeCFSG4UAfqA1EiZ3iJ7fHLly//8VVXXfXBgYGBl+R0aGBLRyKReM/8/PyN1Wp1sB5OtOzt9IF19I0AjEN4AROJEryAQSzknNPp/IvD4YDcSr/1+XxwzAkrt0ytbyRQeiURQNKkJJoGb2t2dvaY22+//YFUKnW6UqQJluMg5QCZcOEneCTIAw8mQyBV8I8mAHQ5KVGiyY3cUpmce59uS0qaaK9GI9OT3TuN7qu9PEf32w4Ba4QlTQrJW7yUNBFSRjyIQJwgtQRMZD6fb+/Y2NgHjjnmmD+2620qFovLY7HYrYVC4UIYRyRjM5EDSZPBH0jizklaS9qLKv69arPZILfSMzab7VcOh+O3drsdjjqZN5lMRdwFZ/wxorSGSJqURtTA7QFpuuOOOx5IJpM10gQPKCXimshSG5xDR44ngM+QggDaB2IBEyDJyCv1ZLTi8apHfBbyStXzZNV7SGvV7DSRkZLLer+3qgchJsQ2pE3iDQS8gSwR+8F9Mdi/uGzZsvuvuuqqT7Z7ErwgCM75+fn3ZTKZm1iWDUEfMC6hfeKRbFUfLK8vBOoto4vfcZ5hmDmfz/cHu90OuZUeczgcsyaTKYuB3fqysdakRdKkNYtoWJ65ubkVt912G3iaTnO73bWg7YWWn5QiVRqGRPeiderpkvNeSZcAiVcKyI3NZnt6fHz8vUcdddST7U5kHMedcPDgwbtzudyrwaMFFwn+b2b5UfcG1LkCtK3Iyw89pugXJOn9el5Qq9WadTgcB9xu9384nc5f+Hy+J0wmE+RWAq9Sw9QiOocRxe8iAkiaugi23rs6cODAim3btv0okUisAk8QTLhyy09yOstNunL18X5nCMjFXMm1Lmc/QlykS6uiVyhz1llnfeP1r3/9N4LBYFKur3r3BUHwzMzMfDSdTn+sWq16pESpXhxaO/1gHXUQaDR+6i2b015f4smEtCRWq1VwOp0Jh8PxN4fD8aDNZvuNxWJ53uPxJDCwWx279XOrSJr62fot6A75f+bm5pZv3rz5h3D2HDy0IM6I7HIjb4HwEyeqFoDtg6LSJU56STcajT7+CxlrNAAAIABJREFUgQ984F0jIyPPtBNfIgiChWXZ0+fn57fncrmTpeMPx6K2BxghufTOS1riep4mYmOGYXi73Q65lf7sdDof8Xq9sBQHgd2YW0nbZte1dEiadG2+7gkPpGl2dvbojRs3fq9UKp1B0gR0ugSCk1r3bNjAU6OoAPViTOjt3mS8kBgo2Pp98cUXf+Lcc8/9bgdZwkMzMzOfSSQS6wVBsJMlx07HpqLAYGN1EaBJk3S5jcSlScePzWbL2Gy2A7D7LRAI/JvZbH4CjzfBAdYtBJA0dQtpA/STTCaP/vKXv/yjarV6ar2z5+SWaupB0OnykAFg7akKSgTyEwXq2Z+eFCkPQS1QW0xsKqxcufK/L7zwwvcdffTRz7cDBnib0un0m2Kx2Dae55eSMYWkqR00u1uH3ulIe5UIUaIIk2CxWOJOp3OX2+1+xO12/8btdh8wmUywBAdnUuKFCHQFASRNXYHZGJ3E4/HFW7duvWd6evocu91uqRfk26qmcp4mufut9oflj0RASdIELS/kaSKeAzphJizvut3uFy666KK1Z5111q/bnQBzudxwMpm8mWXZK+HUFkLQ0N7aRqBe0D49huDoHcit5HK5/sftdv/Q5XL93uFwQG6vfDvLudpGA6XTAwJImvRgJY3ImEgkAo8++ui1v/nNbz4tCEKEnCJPHnKNPA0aER/FUAGBet4caW4smiSBCHQGbzElAX/KKaf8dM2aNddHo1GISWn5gmW5dDr99ng8fkuxWFxEyDaS7pah7FkFsmQrxkvmrVbrQafT+RikDHC73RC3BCkDcBdczyyEHddexhAGRKBZBGAZ5MCBA6dt27btO7lc7ngyASJpahZB7ZXrlFTU2+VEe5xIni36b6QOuQc7oDwez3NjY2PvbTfZJcTcFYvFpfPz85uy2eyFZKmnnSVj7VnJuBLRmwRET2TS6XTu83g8jzidzl97vd694hJc0bgooGZ6QgBJk56s1WNZYWJKJBKL77777i379u17g81mc8IOukwmUzv+BD7DBEh7EzoVeaEt5N2YEBslt2z09071bbW+HOmRw6iRR0auXrNyyrVDluwsFkvhhBNO+OYVV1zxeZ/PBwemtnxBsstcLnf1zMzMTfl8PgyZ5skxGtLGtGK/lpXUWAUp6akXoyRNSivdMQcZ4W02G+yC+4vX6/2Zw+F4zO127zeZTOl2s8VrDCYUx0AIIGkykDG7oYogCLZdu3ad+ZOf/OTm/fv3vxK8lUCY4EEIR2RAgkHI4QSJL8mESHsZpJ/lZJZ6MqQ7bORIg1z7zdxvNPF3o2+lY46k+srp0GmgfjOkCWTK5/OmpUuXPnn11Ve/Z/HixU+3k4gQSD3HccfOzc1tz2az55Ls4PV0RNLUzMiXL0PHJNHLrmR3LbRAMvoD5nS2dovFknc4HNN2u/1Rt9v9M6fT+SeHwzFjMpkKGK8kjz2W6A0CSJp6g7uuexUEIfjII4+857HHHvtgPp9fDoG34GUCwgQTFBAm+AdZw8nuF6KwdClPbtKWm3Tl6ncKtPStGNojSz/d2J1FT0StEp5mdJfDV+6+XB9y9WFyBZINBzY7HI75t7zlLf983nnn3cUwTFqu7Xr3BUHwzs/PT6b+P3vfAR7Vce2v7VXSSkhCoggwGBBgqg0YE55jQzC9xAJE7x3jEjt/J3kpL++9JI4dx8FxBYNoBowxYGzsuBAbMBhTAkhU0VVQ1+6q7K529/6/3+YeveGyq727WoGA0ffp2zb33pnfnDnzm3POnKmo+E+XyxUbiPRx0hQOujdfgzEgPULH345JdrGk0WjKDQYDElF+YTAYPlcqleeNRmO5QqHgLrjIdAu/SyMiwElTI4J7N9+6qKgo+dixYxOOHTs2taCg4AGVSqWHsoR7DmQJJAoTIR1tEa61CZOb1LpEuDY2YaI6S4kfS5yCkYJIyEB9z2ioJYid8KREIhL4BsMH7jPKq1RVVeVt167dwXnz5s1ISkrKCQc7QRCUVVVVXcvKyt6xWq396WBp9l5snSLRxnDqeTddw46PQFY9ZObGwbkGg+EorEparXafyWS6whNR3k2ScG+0hZOme6OfI95KuEJsNlvcxYsX++zdu/e5y5cv9xIEIcHtdiuhRDFZ4T+YeynYpCqNmSAiQ9aeiDdMckOWlPgLer4Vky6LkZTYBCNNwfBl++d2WF/wTKQdMBgMZJ08P3LkyBcefvjh3QqF4t8BciH+CYIQW1xc/HxJSckzSqXS6A+/W0m8Q6z+HVUc7jbIIB1rQgSKXjUaTaW4C26f0Wj8Qq/XH4VLLioqqjocF+wdBQ6v7F2JACdNd2W33rpGIfi2uLi41eHDhwf961//ml5VVZUQFRWVbLfbLdht52+lH8hy5K/WgQ70vFW7o+iYGCk5ulUEg6wwobo1Q5GA+mK2gp0tGIw0yiBtAqxNGo1GoVQqPUql0ta8efODCxcuXNCsWTMkLwz5D9Ymu93+CI5Wcblc9xPR9leXYPUP+eH32AVSQorPkFm1Wl2m1WovGY3GHTqd7uvo6OgLUVFRcMGFRYTvMVh5c5swApw0NeHOuVOqBqtTVFSUsaKiItFutydkZ2cPOHny5GO1tbXJDodDK/yfZvUlHWRW+YI4odUnhwqRIAmiVcRnycJ3SqXS6/V6cU9c77uXnz/p94HK+aoiud6rVqvdmIQVCsUNdRcEASemR3L8+KuXKioqyivCh8aiemw9vIylKay6MO5P6fPxPKVKpao7Gd7XEWH8Mf1PV+NZAoJ9tVqt2+Px1NbW1qq8Xq9bqVRqEAw8ffr051u1anUxXGsE8ogVFxf/qaysbEZUVJTan4sVlQmzSWGgcHdeAvljjlRya7XaYoPBcMJgMHyk1Wq/N5lM2AWHs+DcdycCvFX3GgJhKcF7DSTeXvkIgGCAQBUXF5tVKpVaSjbk38l/SafTWUcasGvP4ag/dlSv19dHkoJWBxO+w+GAFeQG0gS2Jk66YY0hP0TiprpIn+kPS5G8BW1HqAUi3W+Bnu9wOHBCPfuzAm1q3rx5Ubhn0YlEXIN8Tfn5+X+Niopqw0lTqBIgrzyGgVKprNJoNNcNBsP3BoPhU6PReEjM2o1dcHWkW94deSmOQNNGICyF37SbxGvHEeAIcAR8R7q0zs3NfbWysnK81+sF8fVteccrXEhwvQaLCbvTcQzmHpVa2urbLUpWJcIQLjidTndRr9eDKP1TpVKdMxgM5TxlwJ0uNbz+9SHASROXD44AR+CuREAQBF1paemE8vLyV1wuVyKIEntUB+OavCvbL1rc6m1boM0NRLaAGUgSbRjALjitVltqNBpPmkymDzUazSGj0XiZ74K7a0WIN0yCACdNXCQ4AhyBuxYBh8PRobCw8J2qqqof0xl40s0Fd23jmYYFszhRUanliaxx2AWn1WrztVrtAb1e/7nRaDzMXXD3guTwNkoR4KSJywRHgCNw1yIgCIJJTHb5K5fLFefPHXXXNl4MdJfuvGTbG2hXqFhGUCqVZTgLzmw2f2YymZAyAGfBwQXn5Fm772bJ4W0LhAAnTVw2OAIcgbsWAWxMqKysTCsvL3/TZrP9CA2lNBgUm3PXNl5CmqTuOmnqD3JXqlQqt1qtLlCr1UdjY2M/VqvVP5hMply+C+5ulhTeNrkIcNIkFylejiPAEbgjEUCyy5KSkqdKSkpe8Hg85nuJNAXrMLjfxPQdCI7HLrgCvV7/ndFo/ESn0/2g1+txFpyDW5WCIcl/v1cQ4KTpXulp3k6OwD2KgJjssn9xcfG7TqezC7mr5GSsv1shYwPAcRacVqvFWXCfabXarzUazRmTycQTUd6tnc/b1SAEOGlqEHz8Yo4AR+BOQMBmsyVYrdb/qa6unuFyuXSoM/JDUcb3O6EN4dTRX+Z6kTC5FQpFidFoRCLK7bAuMYkoPeE8i1/DEbgXEOCk6V7oZd5GjsA9joAgCFqbzTa4uLh4hdPpvI+20t8JeZpo1x9isECC6Jw3dKm/Y4aoq9mjhijVAlxw2PVmNBr3abXaL8RdcPwsuHt8fPDmy0eAkyb5WPGSHAGOwB2MQFVVVQvkbLLb7U8KgqAmMtKUmwSiBIJHSSdRV3pPhImtP1mW6BBdp9OJwHdBp9OV63S6K1qtdrdWq/1Ko9GcNhqNcMHVn1K/KYPD68YRuA0IcNJ0G0Dnj+QIcARuPQI4XLqioiK9tLT0JYfDkazRaOqSNt762sh7IpuAk31P571RUDtLpOjOSqXSrdFoinQ63TGj0bhTp9Md4mfBycOdl+IIBEKAkyYuGxwBjsA9gQAOlnY6nR2KioregKsOhENu0sfbBZD0WBPW5UauOtSNztbD72q1uhqJKFUq1aGYmJhd2AWn0+ngguNnwd2ujuTPvWsQ4KTprulK3hCOAEcgGAKCIBhLS0tnlpSU/M7tdifA9dWU/9iDhokwsfmV4L7Dn0iWyjUazWWTyfSpwWD40mw2UyJKnjKgKXcyr9sdhQAnTXdUd/HKcgQ4Ag1BANamysrKzmVlZW/b7fYfNXXSxJz5dkMsExElhULh1mq1JQaD4bjBYNip1Wr3811wDZEQfi1HoH4EOGniEsIR4AjcUwgIghBdWlrqS3YpCEJMU288mzaAyTGFRJR5iFPS6/WfMLvguAuuqXcor98djQAnTXd09/HKcwQ4AqEigGSXNTU1/fLz81fW1tZ2CfX6W12eIU2CSqWq0Gg0V0wm026DwfCF2Ww+GxUVVcbPgrvVvcKfd68iwEnTvdrzvN0cgXsYAavVGu9yuX5VWlq6QKlUGl0uly+YWqvV+l6R9DLSrjs2WFsa0E0746Tfwz2nVCpr1Wp1IVxwiFfS6XQHjUbjFfEsuNp7uBt50zkCtxwBTppuOeT8gRwBjsDtRkAQBJXVan28qKjodY/Hcz8FVNOOOpGsNLiadB82iSYlmsTNaQecvwSWSqWyErvedDodzoL7VK/XH9bpdHQWnLfBleM34AhwBEJGgJOmkCHjF3AEOAJ3AwKVlZXJpaWlf6ypqZnsdrs1ZFli0xCwO9Ua2mbW0oR7sffGbxT0rdVqy/V6/Xm9Xv8Pg8HwtUKhOM3Pgmso+vx6jkBkEOCkKTI48rtwBDgCdxgCOFqlrKxsbHl5+asul6sFrD3sbrVIWJukeaDYoG4iTeIz3Wq1usxgMIAgfaTT6b4xmUzkguNnwd1hssWre/ciwEnT3du3vGUcAY5AEARqampSS0pK/l5ZWTmSLEF0tlttbS0SRTYIQ7j96EgTuhHrnlOpVNUajQYuuB8Qr2Q0Gn9AYsqoqKhKhULBXXANQp9fzBGIPAKcNEUeU35HjgBH4A5BQBAEXXFx8dSKioo/uFyuRFSb3HR07ltDmgJrEpEkOisO99doNFaVSnXZaDR+pdPpPtdqtacMBkOxQqFwNuR5/FqOAEegcRHgpKlx8eV35whwBJo4Ag6Ho2NRUdHf7Xb7YFibQGpYN1pDqk8uP5EwCWq1ulSv1582GAw7tFrt3piYmEtRUVE4ONfdkOfwazkCHIFbgwAnTbcGZ/4UjgBHoIkiIAiCqaSkZH5ZWdmvPR6PBdWUkqdwqw5rlVqtduLgXL1ef1yv138MsmQ2m/O4Cy5cVPl1HIHbhwAnTbcPe/5kjgBHoAkggKNVqqurexYWFr7jcDgeRI4mnU4XRWkIqIrSnXTSoG5YkyiQHNYqlUpVqVKpcvV6/VfR0dH/0Gg0J/R6fVFUVBTOguPxSk2g73kVOAKhIsBJU6iI8fIcAY7AXYeAIAiWwsLCF8rLy5d5PB4zuehAlKQ74PylIWDSCXg1Gg2lDPjUZDJ95fV6L5hMplLugrvrxIY36B5EgJOme7DTeZM5AhyBGxFAskuHwzEwNzf3TbfbnUbpBqSEib0K5Ikyh6vV6hq1Wl2k1WqPGAyGXWaz+XutVksuOJ4ygAscR+AuQYCTprukI3kzOAIcgYYhIAhCUl5e3u8qKytneb1eXSB3HOuWUyqVVp1Ol2c0Gvfo9fpPNRrNSXEXnKNhteFXcwQ4Ak0RAU6ammKv8DpxBDgCtxwBpB+oqKgYUVxc/Lrb7U6hI05QEXK/4b1KpcJZcMUqlSorJibmM41Gcyg6Ovoc3wV3y7uMP5AjcMsR4KTplkPOH8gR4Ag0VQQcDkf7wsLCv9fU1AyF6409SFelUtVoNJrrOp1uH86CQyJKnA0XFRVVo1AohKbaJl4vjgBHIHIIcNIUOSz5nTgCHIE7HAGkHygrK5tcWlr6316vNwmxTRqNplKr1V7TarWfGAwGWJZOGY1GBHa77vDm8upzBDgCISLASVOIgPHiHAGOwN2LgCAISqfT2SEvL+8/o6Kiemq12lKQpejo6L0Gg+FiVFRUCU8XcPf2P28ZRyAYApw0BUOI/84R4AjcUwjgIN/q6upuXq83VqvVFmi12sKoqCg7TxlwT4kBbyxHwC8CnDRxweAIcAQ4AhIEYHGKioqCfvTyeCUuHhwBjgAhwEkTlwWOAEeAI8AR4AhwBDgCMhDgpEkGSLwIR4AjwBHgCHAEOAIcAU6auAxwBDgCHAGOAEeAI8ARkIEAJ00yQOJFOAIcAY4AR4AjwBHgCHDSxGWAI8AR4AhwBDgCHAGOgAwEOGmSARIvwhHgCHAEOAIcAY4AR4CTJi4DHAGOAEeAI8AR4AhwBGQgwEmTDJB4EY4AR4AjwBHgCHAEOAKcNHEZ4AhwBDgCHAGOAEeAIyADAU6aZIDEi3AEOAIcAY4AR4AjwBHgpInLAEeAI8AR4AhwBDgCHAEZCHDSJAMkXoQjwBHgCHAEOAIcAY4AJ01cBjgCHAGOAEeAI8AR4AjIQICTJhkg8SIcAY4AR4AjwBHgCHAEOGniMsAR4AhwBDgCHAGOAEdABgKcNMkAiRfhCHAEOAIcAY4AR4AjwEkTlwGOAEeAI8AR4AhwBDgCMhDgpEkGSLwIR4AjwBHgCHAEOAIcAU6auAxwBDgCHAGOAEeAI8ARkIEAJ00yQOJFOAIcAY4AR4AjwBHgCHDSxGWAI8AR4AhwBDgCHAGOgAwEOGmSARIvwhHgCHAEOAIcAY4AR4CTJi4DHAGOAEeAI8AR4AhwBGQgwEmTDJB4EY4AR4AjwBHgCHAEOAKcNHEZ4AhwBDgCHAGOAEeAIyADAU6aZIDEi3AEOAIcAY4AR4AjwBHgpInLAEeAI8AR4AhwBDgCHAEZCHDSJAMkXoQjwBHgCHAEOAIcAY4AJ01cBjgCHAGOAEeAI8AR4AjIQICTJhkg8SIcAY4AR4AjwBHgCHAEOGniMsAR4AhwBDgCHAGOAEdABgKcNMkAiRfhCHAEOAIcAY4AR4AjwEkTlwGOAEeAI8AR4AhwBDgCMhDgpEkGSLwIR4AjwBHgCHAEOAIcAU6auAxwBDgCHAGOAEeAI8ARkIEAJ00yQOJFOAIcAY4AR4AjwBHgCHDSxGWAI8AR4AhwBDgCHAGOgAwEOGmSARIvwhHgCHAEOAIcAY4AR4CTJi4DHAGOAEeAI8AR4AhwBGQgwEmTDJB4EY4AR4AjwBHgCHAEOAKcNHEZ4AhwBDgCHAGOAEeAIyADAU6aZIDEi3AEOAIcAY4AR4AjwBHgpInLAEeAI8AR4AhwBDgCHAEZCHDSJAMkXoQjwBHgCHAEOAIcAY4AJ01cBjgCHAGOAEeAI8AR4AjIQICTJhkg8SIcAY4AR4AjwBHgCHAEOGniMsAR4AhwBDgCHAGOAEdABgKcNMkAiRfhCHAEOAIcAY4AR4AjoLDb7YlOp1OrUCikBCokQiUIglcQBFtiYqK9KcAqCALqry0pKWmmVCpVDaiTEBUVpfB6vZ6EhIQShULhasC9GnSpIAjqkpKSJJfLpdLr9VEGg0Goqqryou8EQRAMBoM3KioK9Y0S+wNf47sor9frtVgsUWVlZb7P8fHxeHFHRUU5FQqFJ5SKCYIAPHUlJSWWhmDrcDii0I4m9OfDTvon9n2ZQqFwhltX9B3kMSoqipVF6fNozOEV/0rJP/VZZUPqEqgN6Nfr16/He71evV6vZ+sWki6Q3h/9rNVqMX6KFAoFZK5J/ok6Q0M6o6amBmNMWlfZWOj1erfRaCyNioqqxRCtB3ffuGbGEpXF0Pb7PIfDofBTt5BwxT1CukBmYYns+L0KiinQ7UgveDwetxyZIV1/5cqV+JiYGA2uxx/plkAYymzObS8mxYrwgV5q1qxZcTD5kjYA49xut8fV1tYaaO7w00gBcwbzPc0vvq9oXkEfxcbG2kKdQ8IFFXq0qKiomcfj0et0Oq9SqYSOrPvDmMUfOzbYccy+B65oR3x8fKlCofj3hTL+FJs3b/7t2bNnH3E4HJgAQQ68arUakzDe4xZQ8r7BJQqfb4IW7+17RXmz2Wzt2rXrlmHDhmUqFIrbTpwEQdDm5OT02bhx4++8Xm+ix+NBtevGjzjQAkFEykTQarU1tbW1xoSEhNwJEyY8l5KScrY+BSgD87CKoL75+fmttm/f/trVq1fbaLXaWrVa7VKr1YJKparFv06nc2m1WqdGo3Go1Wq3Wq2uNRgMNpVKpXC73U6DweDEQFMqlRgAVSqVqrRLly57mjVrli+nTSJmhuLi4pZnzpzp9913382urKy0iOLgm+hJRsRGKtRqdd3AI7GhTvB6vSRjuJDI3g3KVFovP/12w6CpB1yQS58MsIpAlGu8oJ6+Mr4Por5wOp2KxMTEgvHjx/+2ffv2/wpHOQiCoKusrHzE6XQ+KAiCHrIJrDDe6TkKhQKkyochcFEoFBh3aoVCoRGvgaLyoM/0ev2nZrN5v0KhqA1LmAJchAXUBx988Kv8/Py+LpdL63a7oZR8pfEqKhmViJFSJM/s3eome0CoVCq9brc7SqfTRZlMJmD4i3bt2p1qqsQJ7cnNzb1v27Zt/1teXp6KZtfW1pLug/LwKRDIkChH6CvgQZ99ciz2E8ZYwbx5855NSEjICSQ3uE9paWmLjRs3vlpcXNwKStzr9ULv4I1PTiAPrB4mOSG9LOnOQETI76KYxiI7LkIhGeyE7mcMQx5umCuYz6g22kiyVadzgQH0hl6vz12wYMGy+Pj4vGCk89KlS10++uij31VXV7eqra1Ve71eyKevz2juqkfnS3WIP0In/S7Y51CHpt9+Y+cssR3ADDrfh8+8efNeqE++/FXCarXGf/7550uzsrKGeTwe36pA5OYCxrlSqYSecahUKrdGo4E4OFUqVY1arcb3bqVS6VYoFL7fExMT8wYMGPBOQkLCdTlzSKig3KBcBEFVVFTUdsuWLb+12WxdnE4nFmDQk+hr/Cs8Ho8PR8xxCoWCdL4SHMXlcinRTpVK5cG41uv1lRaL5eqQIUP+nJaWdkKuXlIcOXLksQ8++OCNmpqaThBgjUYD5ehT5vjHQwIsdnzlUL6qqgpl3MnJyfuXLl06rVmzZtcaAk4krrXZbAnbt2//5dGjR2cLghCDtqC+1B6awCVE9aZHozyYvdFovDpq1KjfPProox8oFIqqSNQxlHtAoV+7di3t3Xff3VRYWJhmNBp9AkB/JPQQlKioKA99xnv0kdPpFHQ6ncftditUKhUGndNoNF6eOXPmtBYtWpwLopTwII3Vam15+vTph7799tvlxcXF9wmCkFRbW1uncKg+rMwQ7mxb2d89npCMXDdBVs+C1VdWKrv+yrP1pt/pFfWPj4+/MHPmzBnt27f/Xu7AYitqt9uTampqfmGz2Sa43e5YECSSxQAyUGdxYidkQRBAhAssFstfmjVrtirSclhZWdl85cqVKy5fvjza4/HoJLJ1A5ZSnAhr6lvCFOOruroaiqqie/fu20aNGvX75OTkK42tYEMZW1QWivfatWtd3njjjQ1lZWXdQfYYon+T7sBv1I+sXOG9Wq3Gavfs/PnzJ7Zr1y6rPtJUXl7eesWKFdtKSkoeUKvVWowJlUoVBcKJ+9BzpPIcRIbCgeCWX0NzDNtGfAfLpNlsPrF48eLxweQF1oczZ870XbVq1XvV1dWdIHuEG6vfSSaD6YxbDkI9D2RIZd34w3don9FozJ4/f/6k1q1bnw5lMQd9tH379lcOHz78UxhlpI9nxzBkUPwMQlVHREQvhTs6Ovrs7NmzJ7dq1QoLg4DWw4ZiCkJUVVWV9Pnnn885cODAfI/Hk4rvME5YvsKOSdQbYwkWR7yHHqL3NTU1sGJeGDx48Cvdu3ffarFYyuXWUVFYWHjfqlWr3r9+/XpfdAaZtWpr/72IJaELNPmgUviHgomOjs6eO3fu1JYtW0JJ3DYzPMC0Wq1tV6xY8VFJSUkPf8q/PrLEDip0CgQUIKekpHwzd+7cmc2aNcuVC3CkygmCYDxw4MCYHTt2/MXtdieLROgG0sQKO/UXDTCXy+XrS6fz3x4mmFXbtWt3aO7cuZPBtoOQJnNWVlb3L7/88oX8/HxYS5prtVo1hFCKI0tA8Bzghz8SbFY5sr+Hi1MwBRhIUbKTob/JiOoJ3GJjY3NmzZpFpClklldVVdXCZrO9WlFR8VOPxwPLRN1kK6fdbBu0Wq21WbNm/xMXF/dWpC26xcXFKRs3bnzn6tWrP4E1TEoYCCe2D1n8pfJH9YbMQQ50Ot3FwYMH//mxxx57X6FQWOW0/VaWAWkqLCwEaXq/oqKiG+pMkzrknNWBrHIm+aa6Qh+KpCln7ty56W3btj1Z36RWWloK0rS5uLi4P6z9uI9WCyPTjeOG8Cf5uRtIE6unqL3AD/rNbDafXLJkyWgZpEmVk5Pz0Nq1a9dVVlZ2IOst+oAWZXIWT7dS1uQ+i8WH3hOpNplMOQsXLhzfqlUrWG9l6yWbzdZs27Ztvzt27NhMr9drEq1LN5Aykm/IIat/6HtaDEdHRx9fuHDhhJYtW55vLNIkWgijDxw4MPTLL7/8vd1u74CpBYROtID79ClwkS4wIEeoP+tpxLwF70H//v1fe/TRR9eYTCaEDciXKGC7AAAgAElEQVQmfIqKioq4zz///Offf//9AqfTaQFpwkNAmlhFEUjo8D1NnF6vt+DRRx99ZcCAASvj4+Nvm1LEyuPUqVO9N23atNlut7eldrBtIEEhoFkhZicC+EDNZjMx1rMLFix4snXr1hBS1t8rdwyEVQ5CU1ZW1nLz5s3vnj9//j8UCoVvdYA+IpIrFWYp8aPVL60cNBpN8bBhw14cNGjQpkAWC0wipaWlKVlZWY99//33z5aUlKS5XC6fBQIKiZR3oEb5+11aTyJVYQEj46JgpIkmHn8TIv0WExNzdvLkybM6d+4MS1PI/S4IQnJhYSFI0wS4DdiBLh1X0iahDiS/oiUYpOnXFotlpUKhqJYBgewisDRlZma+evHixfFwKeJ56B+WDNHNqB/9kU+WONN7WGvhGk5MTDw0bty457t27Xq4MeKyZDfWT0GMs6tXr3Z57733Ntlstm5sOwKRJmlfsrrTaDSenz9//pOtWrXCIjKg3OTn56dmZmZurqio6Ce64+os/azlH1UmXSslbQ1p9+28lm0PkSaysIE0LViwQBZpOn/+/IObNm1aW1FR0RF9QPfwJ4vShdvtbH+wZ0sJMj5jzgJukK958+b9NBzStGPHjl9euHBhrtVqjZaSJnbuYMIHbiLxKBcfH3988eLFExISEhqFNImEyXj06NEfffHFF7+/du1aT51OpwaZky7eyDtGmAIrjB8sfEXrpc9ooFarywcMGLDp8ccf/5PFYskNhXD6Fi4gGFlZWX0/+OCDVXa7vTMBiJvjgbS6YV8JVHrFBAohdblczhYtWhxZuHDh5Li4uCvBBKKxfhcEIfbTTz9dtH///udramriofhpciaGjHaSCTwQYSJyILYtKiYmJveJJ5741SOPPAIXXUQnrPqwgOCUlJR0fOWVV7Y5HI40X8CLSuVbjVLQI6scWKHBexJ8tBkChL/o6Ojzc+bMmdC2bVv4cm9S6CBMRUVF7f75z38uOnPmzKjc3Nz7LRYLfMa+SRR9jj/WvSaVC2L4eC7iq1QqVTF84eJE41tRw1XI1NcXNiPKWt33FIvAxlrQdzAZi9dT8LTvcgmekHM2SJ5iTxAvAjenL76I7skSArfb7YqJibk2fvz4Fzp16nQ0HNKEWCGbzfaS1WqdBjcrWTDkWAqINNFKSqPRlCYmJr4QHx+/IdKko7CwsPmHH374Vk5OzjCVSuUjx6yLXrriJIyl1iapriAigVeXy+Vq2bLlgalTpy5t3br1mdtpkZaOOSJN77777gabzdaDCAuRRtaqSjKC71idgs+0MDEYDOcY0hRwJZufn9/mnXfe2QGrOO5LVibSUexkcLeRJsIWfUFtowW70Wg8uWjRIlmkKScnp++6deveLy0tbUOLXKlcBpLfxpqHInVftIMWMMCIIU1nYMkMdREP99wHH3zw6qlTp8bBPccuZGnssgs16dxC9cFrbGzssXnz5k1qLEsT9jedO3fuwa1bt75itVp7uVwutclkgufnBqMOq7NZvUpGHTKOKJVKa1pa2leDBw/+VZs2bRCfHPIi2De5lJeXt1mxYsU6m802oKamRgXrBQY+K8jSFTu7QsYkQJOnwWA4P3v27Knt2rU7EiqDi5SQoT2vvfbaxoqKir5qmt1FU7d05UGEQrr6kCpK4CEIQm1iYuLep59+eobRaLxlLjqs+o8fP/4fO3bseLusrKwtmkSYS1f6UkUB4YcSgiImZVRTU+No3br1oQULFkyLj4+/6m/yQJzF7t27nz127NgUr9ebwD6HBhT7rGCrN41Gkzdu3Lj/bNGixQ8IUgdPcTgcXrh1xYFab0C3y+UCsaEyPrmlHRwUfO4vgNXtduOam4K/iWjBXSY+n+7pC/ale6LfEXQfGxt7MRS/N4upIAjxubm5L1VWVs6AkY4GtRzSRPchpSkIQlHz5s2fi4uL2xLpnZyVlZXJmZmZb16+fHk43HMUT+FHPupifaSTOCsntEom2WN0SmWPHj3WjBkz5uVwVnqR0hP+7nPlypWuq1evXl9RUdGT4iWkljZ20qAyRJ4Yq7vPEjB79mwsTI7XZ/4HaXrrrbc+Li8vf4C1iuO5RLBZ90Ig66m/9vgjvZHCL5j8svpB+kxqA7nQyGJHRB2vMTExsi1NZ8+e7b9u3br1lZWVPv3IWmj8ya9cDORYguu7V7Dr5dRDGtdEuJrN5jPz5s0LhzQlfvTRRy9lZ2dPxA46OXVg+5olKGazOXvRokXjG4M0Yd67cuVKnw0bNvyhtLR0gFKpVGMOQ1wSFv9Y1AAbfIc6YS6BHMHgQ5/Zck6n09ajR49/DB069HcNWbARabJ8++23i7777rvnvF5vM4AomrECBoGzq0m8Jz+rSqWy9ezZ82/Dhw9/NTY2tkxOh0SyDFbyMNVu2LBhfVVVVQfpxO6PNYsT8A3VYEkT7kGEIz4+Pmvy5MlTxODOkFlqOG3FymDr1q3/ffLkyQyFQmFmVxukFOm+UhJF7aCBByGKjo6+9vDDD/9p+PDha/3FxZSWlsb88MMPsw8ePPi83W5vQfiw2NVH1iSEwSfA0dHR52bMmDH1vvvuOwZxCRGHxtgazVqobqiyn7qBQ4Xd14IgWPLz8/9ss9lmRoA0FTZv3vyZuLg4WDsjGjcokqa3RNKk8UeaqN/p1R9pIgVLskeWaLKYgDy1aNEit2fPnn8ZPnz4GoVCITsIM0S5Cbk4kaby8vKeFEzMWkNoLJB1iUgNvbKkyWAw5MybN29CmzZtQJoCyo+4yKsjTaRb2bFLz5PWJVgD2ZjCQHou2D3Y61gSIJUFOfeRlmHJpvR+JpMpa+nSpaObN29+OUjMpYolTWwcS33EjZ3D/JUjS3l97ZJ7/3CwoWuYBZPvK3pmdHT0achXGJYmkKY/ZmdnZ8glTdL6MzFNWcuXL/9ppN1zIEwnT57svWvXrj/k5+cPMBqNGsgy5mG8iptLfLyD4q7IcEP9TxY5zHk1NTWVffr0+WLw4MG/begOXlpdK8+cOdNr1apV671eb2fRjO6Ll2EtMQScv4FDFUSZmJiYI08//fQEi8VysSHCEs61iNH66quvlh84cGC5x+NBGoU6QZNaYeq7P7u6JPeCGBReNGjQoF8NGzZsY6R3LwWqT2FhYfs333xze0lJSVeDwQBXk4/Ukl+XVaTSQcyuSoEFdjomJSWdnzJlyqQOHTpgC/1Nyry4uLjjypUrNxYUFPRSq9U+A4/UtE2rjUAxSVQPTJD4t1gsZxctWgQzbr1BseH0eVO/RhCEuLy8vL/Y7fZp8Eg20NIE0vR0XFzc1kYiTbA0jRAEwUeaAq2U/ZFmkglWT5Bs4jcai+LqT7BYLP8aMWLEM7169ToYaVdjODIB99y1a9e6vvfee+uINEktNdRG1iXHTmqsW0MkTRPbtGnjd5xRHQsKCtq+9dZbOyoqKrqzY43cc9CtLGli3YTB2umP2NSnL4LdLxKWEyl5k5JzhhScWrRo0Ug5pOnChQv9MzMzN9jt9jYUVsJaRNh2+Zu//P0up623mTRh5xpibEPdPZe4bdu2P506dSrD7XaHlSiP5BHWwKVLl/40MTExYrvnoHuys7N77t69+88FBQUPazQaLeYZ2sRE/ATzHy3E2PAbstCib8SNao527dp9O3LkyBc7dOggO7VAoLFQt4LHaufvf//76sLCwh+TL5/MX/5WGiRQZP6iCmJAazSaC9OnT5/ZpUsXKMOIroaDsH4EtiM+YHNeXt5DcMtIB5D0eqmp258linBA22pqarxt27bdM2PGjFuyiw6WM+wMWb9+PdynHcgdAMYtjbmgtrEDmdxzMGniGuTeSUhI+GHp0qWT4uLiLkvxELfvDlyzZs27Ho/HZ6lj3XHSYDsS1kArUHwPYUcwNXZZtGrVCqRJ9k6FYEr8Tvgd7rm8vLy/2u32KWJOkTr3gRzFjDZK3HPLRUtTqBa7euGCpWnNmjVvX7lyBe455LqpKx9oopF+zxInljCRIqPyuLfH46lNSkraP23atKfFHbcRbU+ossGQpvXl5eU9/LnnpKQJ7cF3VJZV3kaj8cLcuXNhaQpKmt5+++2dcM9RNAFLbESsfM+hscguBuW2k+0rqd6Tew8puQhEGgIt3mguYQkNSzoJT5SLjo4+tWTJErmkqR9Ik9Q9J130+9PvgQgTyjY0JUo4uEqvCWRpiomJQVwqAsGzQ7GEw3Oxbdu2P4I0IUlkOHVE/6FeMTEx/1q8ePGTSUlJFyOh1xEWcOHChQd27tz58qVLlx7R6XQajAnwDPQHvacdqvQZ4wHvaX4id6/T6XR16NDhyIgRI57t0KEDYlIbnJy6jjSVlZXF7t2796lvv/32GYVCEUfmZqmQs4MZv6Ex5EvEpIzGIKFily5d3hs7duz/xMTElITTKeFcIxKM7qtXr/7Q4XC0Y5U22w68DzZZ0e/UObgGJAVmQQjrrFmz0tu1awfW2qgEAP3y7bffLjl06NAz1dXVCbSbiVbAZLUItnqiFAV6vb6sV69ebw4ZMuTluLi4Cj+kSf/9998/iTweLpcLWYpvyE/D7jYkfKWKSLqShKUpJibm3Lx582gnUaNiFo7sNOY1giA0y8/Pf81ms2VEgDSVNG/eHKQJMU0RXZAwpAmWJhVLmqRjhrU0sRNwINLEuq3I7SVuYqjq1avX+5MmTfovo9F4W/O7EWlatWoVdmH1Yq2orN6jCYO14lBZ1h1mMBhAmiampqYeq29Sg6XpnXfe2VVRUdGVxjc7rok0UR8AS7mkyZ+ek1oEgyxEb8jVJ7UwBtOj0vKkG0i2pJYCljTFxMRkL1y4cFRycvKlIHXEwhKB4BuxW5oWytIFHuHH9iX7PH/kqaGWpGDXy9E7ZIljLdS4zmw2n5s9e/ZPw3DPIU/TS1lZWZO8Xm9dPjY5daEyjKXp+KJFi34aCdKEhVpeXl7XzZs3v1RQUPComNy1Lq0AufmhN8gFh/pgzJCblz4DK5fL5WnZsuW/hgwZ8nyPHj2+i5Q1u440QUmeO3eud2Zm5jq73d6JtrITOCTkUlcNCR2+x+TI5Gw6smDBggnNmze/ZS46QRDM//znP6fs2rXrvxUKRQINElZJsEIcaMBIhYdWHGRx0mg0JUOGDHlRzDfTqIkuy8rKUleuXJl59erVH2HTnNFovCEnBasIqN6sMsd7WJmw2wD9ExcXR9vnseX7pozSyD797bffjv/iiy9eKy8vT8DzpAOFPksVpj8FSvm+YmNjiTSFtCoKZSA31bKCICSIpGlSBEhTaXJy8jMWiwW5jiJOmjIzM98RY5puIE31TY7+rE1SqwYpNXLj43fIo6jwzg8fPvx/Hn300W2Rzj0VikxQcsv33ntvfVlZWQ82pol1iUndPvhMFiKWHBqNxpwZM2ZkII6vvk0xImnaWVFR4QsEZxcdhBurf9mFjJTY+lkE+b4KRm4C4UQTNulKKVn2R4rYewWzRBGxYS1shC8FgqekpNxkEZc8Q3XhwoV+a9euhXuuLhCcJU1EOHCddCHI4l2fhSwUWYpk2XpI0xm451JTU5ECR/ZCFJamjz766M8IBGeT2Pqrs3SOZOUAWKGPFi1aNK6hpAn848qVKx0///zzP509e/Zxp9NpBAdhFyF4HrwW6D8Yasj6RGOGrEvk/bJYLKeGDh364oMPPvhlJHe73xBgCxcdVllXr159WKvV+gKvyJ9OgxOgsQObTSBGVhmUxSprypQps9PS0sDwIqrcAwlkaWlpq02bNr135swZuBgRjFPvLopApElKrPA8suyICsiTmpr69dSpU2c3ZqJLKPGrV692fueddz4oLy/vAkEhP67U4uNPqZMywDUQNhylkpqaemLGjBmTkpKSLvkbaEiiuX///sm7d+/+Q2VlZYI0HwZLRFllw/YJa3ki0m2xWLJnzJiR3qZNG2wzlz3AI6l8bte9IkyaypKTk5+1WCyIqYvoMSpy3HPSyZfGBWttYidp6e+sHmHGnycuLu7IpEmTnmnfvv0PkW6X3H4n0rRq1SpfTBO7M461qrKkiXQFESzWPYedxHPmzMlITU2t9/gdIk1WqxUJNX06mXDzF8/ELlyDkSZWV/uzEgWzhLCkicY7ERBaKDeElBGWrJtf/A4ZwbMWL148To6l6eLFiw9nZmauR0wTETDSPVJ9TnMYLYal8sHqL9rxGUiGgpHRYPgGk03c3x9pwn2RTHr+/PkZYh4w2TqVJU1utztkSxMr/zExMQjWH5eYmHghXL2OcVdRUZG6e/fuxSdPnpyHY1LRZpAfSt+BPoW8iXHFPl6C3zE/iXFLdak64A0C0e7bt+/vBw8e/FGkN5rcQJoQsLply5anTpw4MQ/pVGjwsoydHbA0iKhBsCogR0Z5eTmYYFXPnj3fGz169O9iYmJwaGWj/pHCe/fddz+oqKjoDOsK6kWWDrkrCKlVirLTorPQgTQQ9Xr92WeeeebJ5s2bw3IiW2BDAQE5Kg4fPjxi+/btf62pqWlJSpw107KTknQ1iHLoL7RBjGnCWXPbhw8f/mJKSgoOerzpTxAE0759+6Zs3779DyqVCoe31iURCzZx0M2k5dAHsbGxp5FTJNRVUSh4NdWyESZN5SkpKS/ExsZi52OD/fMsZsFIk78JgvJ2sS4PdlVP446d3NldLpANcZJztm7d+vNJkyb9Ijk5GYGtYe9WDFcOApEmdpKle0v1hD9Lk1zSBGvy3//+d7iWOqjVal8KDPHcNN8ZWnT4NrgUzhzDP52rhnPIxHMTWR1U9x7XezweL85jw9ETsCxIrUX14UX6hVbxzLU4VqMCRzOJh0pTPXzVZ3Siv7PnfGXpyCe0AWdoiuTL4/V6a5HexWw2586ZM2dJsGO50G8IBF+7di1IUzuWuFJ9pZYmmseYY0J8C2ylUmlTKpXVlHXETxoTOefS1UEqjplgu3/9ngtINxFJky+FnXi2oUsQBGd0dPTV6dOnLwn1PFSRNL2cnZ09gZIV10cKpWSbJU3R0dFZTz31VINIU1VVVco//vGPOUePHl1YWVnZkvqGrNKsDqE5EP1G+ZooXpeMNjqd7nqPHj3eGTFixFs48zJcfRAQE/YH+BQvXbrU+80333xPEISutIJApVnLButTp9UGhIMCsSgbq9Fo/GHx4sUZzZs3vxDpikvvBwvJvn37xnz66aeIxUmBoLEkIxRFIcHE95GNJQKTbd68+ZWf/OQnv+zfvz9cCrJPSA4FBxxrsXbt2jeKi4ufcDqderL8AWu4CjHhSCcyaTtZ4mQ0Gk9PnDhxebdu3b4JNOGCqMHS9PHHH79UW1sbL70/a1EgRcRa7Pw9H9/h2UuWLHlSnBAbhWSGgu2tLAvSlJeXt8Jms00Uz5IL2V3CyPMtI02URkS6Uhcn9RvOZWPxlBIo2iaM+1A7SI7wGbIsEqmynj17rhs3btwfzWbz9VvZR2KbfGfPYfcc8jSRFV1qXfcn94QV7gOdKC4Uzk2bNm1ysIOeEbcIl2hFRYUBh27r9foqpVLpI8T4DNKk0WhAJJBO3k2kCYfa0uG2lLMMM6tGo/F9zxA8wWazpaxfv35VdXX1ffQ9ESHWsiLtW1o0ogwRDFzndDqLx40b92e9Xl8I1yMODFer1b6DwuFZ0Gg08C6gLr5645BU8TB4H+ETD/L2EUL8iRZt30YAagM2CiQnJ+Ow3notqiBNOTk5/ZCnyWq13kcENpCVRyqfeCbkUK1WVwwaNGh9q1atPhPvUcvkhvPBxiTf9flRcSi15BBiWXNtMNkW9QTu7UvMy36GDIh1cXTu3BmuuZBO3yDSlJWVhbMwfZamYBYzaX1pMY24syVLlowJ1z2HeM9PPvlk4uHDh5+2Wq33o88wz+Ff3Ljkc8Xhj12gUd9CbsgaKOZrsvbq1Wvr8OHD/yB6UyK++LqJASPR2oYNGzLz8vIewcGiRIRI4bFWBJosyXzIkibR75iTnp4+r2fPnhE/kV3aiSAYW7du/WtWVtYYvV6vI1LhT8GHKiB0D7ST3FWIgW/ZsuU/pk6dujAhISEv2CAI9XcEpRYXF7dftWrVprKyst44aJcC4YigUu4oRjn63rJKgX5D2fj4+KNTp07NaN++/blA9QFpOnDgQPquXbtecTqdvrgw9i9c0mQymbB9+MkWLVqcDhWLO728IAiJImmaEAnSxLjnGtXSFA5pYgkF6/6gsUOEglartEGBEmDCIjl48OCfDxw48Atkj7+Vfc9YmtYi+/CtIk2ifkGSQVpMQNH7JkzJhCydAOqy51M2e8JLav2GXn/77be322y2ntKwhfpIk0gMfDqFLO2Y0EwmE4KQx7Rt25Y9+YEIBFtPv3WW6JQGLaJE0oRA8HVWqxXWOiI4fo96YttL8xouiImJuZyenj67a9euB8Vccv6sd8HqGsyq1FCRvuH54SSQjjRpWrp06dhw3HOIQd67d+/QgwcP/ubq1asPsBvKyBUHsKA7yGhDBhvWUkhHpbhcrupu3bp9OXbs2BeTk5NxCH2jhAXd1MHl5eWW/fv3L/n666+fUqlUSawpjjVx0sRMpnbW+kQsFHmMevXqtW7MmDG/jo6O9usOaqgEiQpHUVBQ0BmuueLi4q4YNP7SJTAKJaTHEjmkwFWy+Oj1+tPLli1rFOsJFoznzp3rv2HDhpWVlZUdgT2RJlSeVehE6tj2Uf/Q6tDtdjs6deq0Mz09fXlSUlLAVTySih06dGj8jh07XnM6nYkRJE3YCfPTli1bng0J/LugcIRJE2KanhNjmpoUaWJX9qQPsNMFypC1xEAmMT7pwE1YbmFqh96ora11p6amfjdq1KinOnbsiDPbblkagkiTJuQmmz59+vTbeToCDR/Eq7766qs7rVZrdzb5Hy2y2Fep65H0DXQKFl/oJ4vFcvqpp54aGsx1diuGL0OaQHbvD5U0ka40mUxXpk2bhgS8B26l3N0KjNhnRJg0hRXThMX5sWPHHvn888//t6ioqI/L5VLCzUZzLS24KMQGn9kd/azhQwwfwikX+5588skX2rRpg7Q2jUKYfONE2mGwnJ47d67XmjVrVrnd7gfIJEblpMSJfmcDkVl2GB8ff2TWrFnYdttoLjpxoh+yY8eON2tra1tRHBPlMWKVAKsc5AgrrbBoEqDATNzbYDBcHTp06AuPPPLIx5GMzke9xCSdzxw6dGiJy+XyuckoPgm/k+tRSpjYlSH9Jpa9NHLkyBd+9KMffVKfOxFY/vDDD2N27NixwuFwJHHSJEdK6i8jCEJSXl7e32w2WyQsTRQIjt1zt4Q0sTLmz9LI6gYiThSwiWSqtNsF5bAhAb+RhYlkml1Zut3uin79+q0fPHjwHxITE/Mb3gPy7sDsnouIe85isSCJ7PQOHToguP2WkT9/rYWl6Y033thut9t9bkf8sTsZA5EmKscG4ILsms1m5FAa1qJFi5uOYZKHduRKMaQp02q1dpSSJqmOZC1NRNxFmbwyZ84cTppkdA3jnjshJreUHQguHgv20Ndff/3ytWvXHqTzOKEDyGuFKiDQm1zI0BcUCkQhJ3jFXK/T6Rzx8fHfjx8//vmOHTsi+35E9eJNc6Af0gSrTet169atzc/PH6hUKlVSnz57DTWABJNYOxoPgTQajRcnTJgwpzFddDidffXq1a+eO3dunEql0pOViZhpQ0gT7kGH4oIJ415kvREEwZWamvrZtGnTFkfSRQdTO3YTIDgU5+d5vV41DXSy7FFuCmobBdqS2ZLtB/SNTqc7NX/+/Ampqan1BtmKpGnsjh07/lZdXe3L08T2rbTv6Tk0WdYT05QF99w9ammKNGlCyoFNkVYOCMhcvXr1W5TckrUOsf3K9jUpOpY44b1o7a3R6/XWgoKCRKPRqILFCWOJLLV0jhQ7piiWISYm5tSwYcN++fDDD3/eWDGDfnRfRGOaRNI0o0OHDoeaAml69913d1itVt+hwDSm2Y09UkKMMkRqWf2D97GxsQgAHt5ULE3nz59HAmCQpk7+SJM/4k9WDXL96HS6XBw2365dO+z4vq0kVwZvCbvI7bQ0IXnl+fPne3388ccv5+Tk9DcYDGqKgSaLNKUSIGs0S+jpPfpOtEy7WrdufXj06NE/79ixIxYnzrCBkXmhX/8rrBxff/3103DTeTyeZuwqUEpApA2iz+Qr9nq9VQMHDlw3dOjQRnHRgWDk5eXdD9dcWVlZdwAJU7/UxMy6DljlECy+iVUW7A4SIlPYSr948eL0lJSUiG2lB/POzc3t8tZbb22pqanpTFYldhcjBcsxOPu6nCVNtEr0eDzuFi1a7J87dy4O6M0Nco4TLE0+0lRVVZXEWrSkWLHxK3JIE3ZZJCUl5ciUzbumWIQtTZSnafPtJE3U34FIExSeTqc717dv3zXHjh2bWFpamqZF4JJo4WC3sotBuHULEjGvWG1qaurBYcOGvZCWlobDvyOaXsGfcLHHqEQqEDwjI2N2p06dcDLCbZ2ExZgmn3uOnXhY/e2PNNGimEIDaPVvsVhOPPXUUyObGGlaY7VaO7OkiXR2faSJ2RGdO3PmzOmdOnXadyvk7XYpuNtFmuDFunr1ao8tW7b8JS8v72Hki6b5il4pfomVUXLV4ZU2jcBijTGVnJx8YvDgwb946KGHvo20tydQ//glTWKiyz5g7jabzTdp0+4xmqSlK09/1ih8h6SKKSkpRyZOnIizziI+YSL25/Dhw4988sknq2w2232ol3SiD2RpYl2NgQBCJ7JbGmkLLlixuO3x6vDhw5/q168fVsQRCVzFTsB//vOfo7/44otXqqurW1CGWzyP6uwvUM4faUJ5nU5X8Mgjj/x+2LBh64MlD8RK4MiRI8N37Njxht1uT2koaSILmMlkOrls2bLx9zBpQkbwSOyeazKkicYam06A9AL4kcFgODJ16tQFFy5ceGTv3r3P2Wy2VIwbOjcRsoVJGNdgjIkrR99mC3zv9XAqJ2AAACAASURBVHqdnTp1+vLxxx//WceOHRHYGfGdMBLLad3Zc3cjaXrjjTd8pIlSxJAuY91VRC6oH4nckg5C3+G7mJiYEzgXrmXLlrc1i7tYX6VoaaqXNFHb2PbSZhroU7PZfG38+PEzu3fvvvceIE1/zsrKmhiB3XOyYppAmHJzc9N27tz5u1OnTg1Tq9V6pCdCPCN0AuQNYx5/FK9LMcT0GX1Ep3KgXFJS0ulBgwb9oWvXrjvj4+ND2kHYEMIaMNJfDByEe+hhtVqtYN1BbPoBEkR2EmfjnMTdMhfmzZs3r1OnThDGiAZo2Wy2BHTEkSNHpjocjpjY2Ni6SHsyv/qzjhFowSxNtOsHyoLNRwU8xK2Ozvvvv/+zCRMmLI5U/EVxcXGLLVu2/D0nJ2cY0tzTjj3aWkmsnIgsJfcidk6/o934rVmzZscnT548o127dkEDayHcx44dQ3zY2zabrTW7UmOx8ueGk67myISK781mMw525KTp34lWwtriKxJYHKPyjHiMSkR99/7cc5S0UUIu6iy50uBMIlBQhAaD4diCBQt+ih2DH3zwwUvnz58fYTQa9YhzQqZ5KEm6P7nzKRErbTN2uVylQ4YMeaNPnz4rAuUWa4gCbEzShEDwSZMmzWkKlqbS0tLWr7322nar1dpbNPj5yCvwr480sYG4ZFUUSRNOt28y7rlLly49uGbNGpCmNKmlidVLbH/TQl8k6NhdfHXcuHGzu3fvDqtFo1s2IyW3od6HklviGBW32+2z/gabB6XPCCWmCTFnBQUFHXfv3v2bkydPjlIqlSaSK9IfRM7JPQ8dSekEWDcdeXgSEhKu9erV643HHntstdlsLgwVg4aUD0iakDtkz549Tx86dOgph8MRj8pSTAIpNnawUWyLtDJovFqtrr7vvvvWTZ48+T8juYsO5nSr1dr21Vdf3VJaWtpHo9H4DuilNOpEbFjSJJ34WVLACg9dE0yYcL1arc567rnn0hMSEs40pDPo2ry8vE4rV67cVFpa2pMUHNWHdYmhbiRkdC2Z00nB4XNcXNzeJUuWTIVSCFY/kKbs7OzHN27cuNLpdLaqrzw9i322lEyhjugPpLQX83lE3NoYrE23+3e458RjVHyWJlrhh1IvXMOQpqfFA3sbnTThmVIyTJ+p/0nhSclgTEzM8Xnz5o1NTk7OLSgo6Llx48ZXrly58rBer9cgtomO6GFJP7sII1M87jNq1Khf9OzZc09jxjfV556Txu6xiy4iiqKuqzvmKDo6+tyUKVPmdOzY8ZYeXO5PrkCaVqxY8VFFRQX05A0H0dZHmkg/ksWZNtng+Izly5ePaGLuudVS0uQvpID0PLuow3ts7Jk4ceK8bt26/TPSru9Qxnpjl40EaaL5CMkt68sIDq/V9evXW3/zzTfPHj9+fLLT6WwGrIk0BWorO97IfY95RPR6lXXr1m3D6NGjX7FYLNca2wItrWNA0oTJ8/Tp02DvmR6PpyMuZAcbrQylgcc3PUCh8JngkpOTjy5cuDAjMTExYI6gUIUFdTx//nyfjRs3Ij/H/bgexI6UGBOwXXdrKWliP0t9+lJS4K9+uAb5PX7yk588HQkXHbkbP/7445U1NTXtiYQEIk0UqEnlUEfqE0xGWq22uF+/fiseffTRFf4O6PVDctVZWVmPbdq0aaXD4WgdKdIUFxeH2K+x96p77l4gTVJZiY6OPjF//vwxONIAZxoePHjwx3v27PlTUVHRA2S5xjUUqycl3KKVGjLsjouL2zdq1Kjnu3XrVu85bqHqELZ8fbvnwiVNkyZNmncrj5IK1H4iTeXl5X3o6AmW+BGRYAkx+x1tCGFI04nly5c3tZimkEkTeSPQVr1ef2XChAmLHnjgga84aap/JNF8ZDKZTvzsZz8bZ7FYbjpjFouQ6urqlD179szav3//U06n0xcjS+SHzTvILsxYUsvOwQj1MZlMlampqZ+OHTv21y1atDh/qwmTr26BoCErzmuvvYb0/v0ouSJt+yMLBykT6WqF7ksgmc3my2PHjl3Yu3dvrBYjskJGwPqePXueOXjw4DK3220BSaIEWRQfIXUv+SNGrHJgFQk7oALhBGKCLY8tW7b8NCMjY2liYmKD0raL7sZfHz9+fLpCoYhlV7EsMapvdUirQnH34rlZs2ZhB4+sbc8gollZWT/etGnTOw6Ho20kSdOiRYvG3Irs8A2ZOBvjWtHS9BebzTY5Apam4ubNm8PStDVS44jaLHf3HDuxkkWTZE7iksXZYehzn0K12+2J+/btW/zZZ58ti4qKakbubsi1NACUdUFjjLnd7sq0tLTd48eP/0U4ifTk9GtjkKaMjIwFnTt3RmBxRMMS5LSHLeOPNLFW60CkidXjKE8hArD+LV++fNSdbmliLfKipWlJt27d/hHpsRVqfzVmeViatm/f/tLJkyczwnXPEWmKj48/Nn369CfbtGlzA2kSk61a9uzZk75///4XCgsL21PcItom9fBQe/0tnDD+YXixWCyuuLi4/enp6c+2bdsWoSa3ZUzVm73UZrM1+/TTT39+9OjRGS6Xy8cSoRRpKzL5NVnXHEtKWPao1+urU1NTt0yZMuXn0dHRRQ0VCnRKYWFh2/fee+/9wsLCvlqtVkExEiyhoC36UvdhIPcbdRo6law49dUV90VsgMViOb5w4cKJDdlST21atWoVknT2hruRnaBYgWKFjCYsNu8Krd4tFsvhp59+eoLFYrkkB3OYU7Ozswdt2rQJRy60q889Kcc9h2didQpL06JFi0bTBCqnLndLGYY0ZSgUCmUD3XNNijTRwoLceOgz0gtmsxlHLNT1OUhJXl5ehx07dryUnZ39hNFo1LFWUUzIpFtI19BCCGNbp9NdHThw4BsjRox4V6FQlEVaPhqBNJ2fPHnygsaI5Qy17SxpopQsckgT279EmvAaGxt7V5AmyBm5h00m07WxY8c+1adPn923Yut6qH0YqfKRJE2Qg0WLFo2X6nVk+z569OiQ3bt3I3llZ4MBCe+jfClHYOmEXElPtGD5AmuMwTWQWb1ef3nKlCnTunTp8v3tjDmrlzSRi27Dhg3vVVdXp7GDTar4WaLCWkRoBYnfMYEvXbp0SiRcdKjb2bNne65du3ZjdXX1/bSbjVYOLLGTWsPY+pEgSt12cgWULGmxsbEXMeB69uyJ4x/CsqShTTk5Od3XrFmz2eVydaABTStxdjXIkinqFyJNNGmp1Wpr165dNzz55JO/lRtLBtJ05syZgRs3blxVVVXVPoKk6eTChQvHBDuxXC7ud1I5MeXAK3a7HZamO4E0DYObOFCeJlb2yLJEwbcsaTIajVnLli2rszSJ1yF5bu+dO3e+WlBQ0I8S29F92BMG6DtyDUF5tmjR4vvRo0f/v27duiGXTljjLJDsNAJpOtcELU2+xZi/xaTUCs/qG9Y9J5Kmfy1fvnz0nW5pkpCm/JEjRz7Xr1+/7ZHaCd0U9RQsvtu3b/9zJCxNBoMh64UXXhhrsVjqklcj19/Jkyd/9Mknn/wRcbkOh0NFpImSidKpANK5WGppwpiPj4+PstlsOO/1yMKFC5+Mi4u7fDtxDXpOzvXr19utWbNm4/Xr1/thsJF1gfyS/qwfrBUEAxEDDo0HsGPHjl3au3fvrxuq8BCo/t13383bt2/fzx0ORwKtdCkLOKw/NOipDiyTpd/IR09lSDkEskT56ywRA0daWtqHGRkZz4UbzV9aWhpz5MiRaV9//fWv3W53EqvEyE3nT7FRrBkF5FIsl9lsPj1+/PhlvXr1wq5FWRMMkab3338fx7d0iARpgqzEx8fDEjfuHiVNOHvuL3cjaaIxReOPiA7GhNlsPoE4Nmmf4wiF77///ic7dux4ubq62idjYoBnXRA16RUshkjXiCvO2pSUlO/Gjh37TIcOHU5EMv9RY5Cm9PT0Bd26dWsS7rm//e1v2yoqKkCalOxZXvW5+uk3PzFNx5YvXz6miZGm96xWa5dAyS39WTKI5Is7AguHDh36/wYMGLDlVuX8uR2TP0jTRx999FJWVtbkhrrnsCuaTSWDxdbZs2f7bt++/a/5+fk451CN+Yk1AIju9rpUAywG/kJQ6FxKpVJ5cebMmQvS0tIwnzV6EstAfROUNOEsuq+++uqZH374YQki39F4f5Hv0smVGi/G/PhIk8FgqLzvvvs+mjJlyvPhEgtR8JG1PHXDhg3rr1+/3t/j8fgyZpPypbgrNg+J1G0olncbDIYyt9utdLlczTwejw8Pdst+MKEm3yx8rklJSUfmzJmT0bp16/PBrpP+DtdcWVlZyw0bNqy6evXqj91ut4aCZaWWJnZiwn0ojwXVnXYPJiQkfI9jAUIJvmZI0zs4866hpAl1F91zRxcsWDC+RYsW7AGfocJ0R5YXz56LNGn6MNKKo7KyMnnNmjVvX7lyRbaliSYd1tJECw6z2fyvxYsXj/dHlBE/tWPHjp+fOHFipsvl8sXukXIF6afYGXyPWAgxpiGqtLQU5ar79u275bHHHvttJOWJIU3rKyoqerDnO5J+ka6MaSzShEwpFKD3oqOjcyZOnLiwS5cu39yu+AsaMHDPiaSpl0ajUcklTXQ9kWLql9jY2ENIIRLJkxDCHdzoNzFPU8ikiazy6FdY4wcPHvyfgwYNQj67qnDr09SviyRpMhqNJ59//nlYmi4ix9+pU6d6ffLJJ6/k5+f3x2lfwBfJpinUhc4upM8019L4kRphKO0AgsANBoM7JSXlwOTJkxclJycjmfRtSRgblDTBZXTq1Kk+27dvX1NcXOzLtgpFQX5gdoXpjzFSWfym1Wq9Wq0WPtCMBsb+qAoLC9NeffXVbQ6H434oW1Jw6BRS4Kx1BvWQslilUlnQsWPHr6qqqvTl5eU/wnEsZKWRS5woLgDPgpIcP378kh49eoS8ZRWkqaCgoNPrr7++ze12p5H5kgY1tYVWfBSzhHaxyh2/w8qm0+lcKSkpH0+dOnVpfQf0+iFvqnPnzg14//3337XZbJ0iSJqQs2dcJCe5pq6cqH4iaYJ7bkoE3XNNgjQRQWL1AI0zs9l8bOHCheOxe86PnCmvXr2atmHDhr9ZrdaBDodDKx694tMtNA7FHaC+lSoUJ9IUwFQfGxuLcx//a9CgQbAK2CMhC41BmtLT0xFYHLI+iER72HuES5qoL9nz6nDf2NjYfUuWLJl0p5Mm1tJkNBqtgwYNeql3794fYJcWiDqlxRAnda8gCL4Eq4IIDDZ2BOsrusZLSpy5gL5TkmKX3Ay/x8XF4Zn4p2dVN2TXGEjTtm3b/pSdnT2loZam6Ojok3Pnzh3XunXrqzk5Od1wPMrly5cHqVQqnyGDrER0ZBLGs3heXJ0F2R9vwHfk/SEPCuY1s9lc1rt37zeGDh3615iYmNJg2DfG73I6XHH9+vU2b7/99ibsokPFIUhouNSsy1ZQatYlsCwWy+URI0Ys69u3L2J/wjKxieb9Mdu3b3/V5XIl0yqQmaTqku8RyaNEbhSngWvgPkhPT39Gp9MJmZmZbzqdzk7oIFhqKKEkK+csKyYyw8ZQaTSaqg4dOmydNm3az0O1pMEPfPTo0R9v3779DQRg1ydILAHEZEIWNbSRTjBXqVR5EyZMeKp37944oFc2zuLhl/0yMzMza2pq7pcyf6l7kLCXWvKo/qQLlEoljl0YfY+SpoSCgoJXrFbrFKy+iGiHMqDRx2LAPwWCNwnSRJYW2oxAK0a8RkdHByRNYjmfKX/z5s1/tVqtD5KSZBdaKAcZIlJGK1WNRiPo9fpDEydO/FmkAkPDJU1kCab6UwiDVqu9OGnSpEVNiTRZrVYc2KuWuvtJFlkOQO0iazq5WJCfNT4+/tv58+dPjlRC31DGgj8CLlqaVlmt1q6huOdIv+EV15lMplzk19Jqtb5wBoVCgcnfC6uGWq12qNXqGrVa7VQqlV6lUqlwu90Yz/8+oPP//v59uN+/rxeUSmWtSqXCtbVKpbLuN1G2a8UdtbiPQCTM4/HgOkGr1dYolcpqvMKpUFNT4+nbt+/HSUlJl+o7Dqs+PEMhTYF0FS2W9Hr9sWeffXZSdXW1ZufOnb+5fPny0Nra2hjEMIF00nwUyBMVKLyH7Re46HEvWJwxf+v1+jOw4D7wwAPIfyZ7bmuIjN3AbeTcSBCE+K1btz5z+PDhpYIgWMi0S5N3ILJNv7P+TMTWdO7ceeuoUaOeSU5ODnkXHeSqtLS0xebNm1dcvnx5uMfj0dVHmlhFRplFiVzExMQcWbx48SSsBFatWrW2uLi4v9frVVG2YkrjToLDPodIE62EyTIUGxt7dP78+RNDcYmhDyDIH3744X9lZ2dPjoqKihHdmXVuClapsXgzQd91J0RjYjEajacXLFiQHuyAXn8KKCcnp9/atWvXVFVV+fJziYP/hlc25kvqumAtepWVlTCrIpfV0eXLl49tCjEQcmQ+kmUEQYgkaSoSM4I3edKE8bVgwYIn/VmaCF/ssvn222/HfPHFF39wuVytaRwROaIJkGSetbCqVCocmL1n2LBhP2vfvj0Oom6QuT5c0oS2sJZgIk06ne7CxIkTFzcF0oQTHv76179utVqtvdRqtc9two5r6TjH53uBNBEhpDmNwk9o7pIah0Q5BHhEfmB4kBof6oiRaDEFAQLxwv8NqgXESJRpxAuzhMr3HuQJHhpci3sglxTiVLt06QLCEFbWcoY0TUUYiD85YMan32zhVNWYmJizjz/++Is5OTljjh49Okyn0yXU1tYq8TvccuIZcXVtDrS49qdvaY4hlzfttkO727Vrt3/UqFGL27RpE7EzX+Xq/KCWJnHwqM+cOfNQZmbmWq/X24Hd2g9hk06a7ABEwylLNw1Cs9mM7NBPtmjR4rTcijKdqLx+/Xra66+/vtXhcHRmmbDUCoJr2HwQZBWCmT8uLq66Y8eO68aNG/crkKY9e/Y8d+DAgcUOh8NCZ82RWVBKWKgzSbFQegLx+VfS09PnPfjgg4hjkBt87bPm4YDe0tLSBw0Ggy99Avlz6flk6WItTYwg+ZQcyrhcLk9qaur+2bNnTw2VpFB8wLp169aGQprYQcauHshqYDQasf18xL1qacrLy3vVbrdnRMDS1KikKTMz8y0sRkLdPefP0kSkKTk5+UqgVTHF8u3ates3x44dQ0oGE2SJDQCXxt8QcRJfrQ8//PD6sWPH/q/JZMoPVZ+w5SNJmiD3er3+Qnp6+tLu3bs3eONLQ9qFa0XStE08e+6uszSJx6jA0tQtFEuTVG/RfEJzFZtKg/Q9+yr9XdpPgSwsNGdKSZvUsoPPlIwU48BsNufPmDFjavv27cM+VDgU0hRI7kjHq1QqG5I722y2eHh9jEajGvWkjVhSfAiPQLhIn0ekFX2KOZHmvtra2tLRo0e/NHTo0HcUCkVFQ8dHKNfLIk24YUFBAXIibSouLu5HO13IykFMlTWpseCgPBg3xRtptdq8MWPGPNW/f/+QXEeisBoOHTo0cteuXa9WVVW1ZFmyP9JEVi5W0FGX+Pj4a2PGjJnVq1evb7BquHDhAqwr79rt9i7kf2WvkYJKbaUDBIlVq9XqqrS0tA3p6em/CmWb/7Vr19JWrly5paSkJA2WGQgJy9JpkEnN56gXpRwgfJVKZd6Pf/zjPw4dOjQz1HgPTBxQQKtXr86sqqrqzBJGFmuppYmwYr8n0iqS1NPPPffcsLi4uHsxELyZSJpgRWyoe+6uIk2i3KgvXbrUBe72a9eu/cjpdGqwcIEs0filBQwbW0MLNqPReGrUqFEv9u/fHy5/uDHC+mOOUQkpEBwPk1qaME51Ot3FiRMnLm0KGaZF0oSz5x64Gy1N4ZImStPChhSxOpZSM/ibZ/Ad+3sgoWMXudIFJZtjT/ob6VQiTZi3cKjw9OnTp3Xo0GF/uJsLxEDwP2ZlZU0LZmkKNpBQZ5fL5UaeRKVSqaI5iOZ8f9ezHhsijawhgrAm3Ci+kYgTGSni4uKOjx49evkDDzxwQK6BIlh75PwumzRZrdb4r7766tl9+/Yt1el0sQCHTabITpr+CAZ7Xh18vG3btv140qRJy0L1iZeUlGCH2Vu5ubmDPR6PPpBrUErgqHNIucXGxmbNmTNnPO10AynMzMx8Nz8//8dw0YG4sKZZVvBZMgXhEAOv605vx0Gly5Ytm5iYmJgjx++MGK2DBw8O++yzz1ZUVFS0wD2x0gbZkA5mf8QQwoS6Un/ANTdr1qyMdu3anQw1YBCk6eLFi70R01RZWdlFDmmiMqzgSxVPfHz8CST6M5lMBTqdzut0On1xAJS/w4/M+MzTEpN1XTEmIJMNkPT9jt/gYqUyTP18PgnEDbC/ITgbn2tra2vj4+PtcvpMzuBinhtfUFDwFzGmSS1dTcq5FxPTdNeRJrHPtCdPnnwYi6GioqJe+I4srbQ4g0zRjlIiKhgftbW13pSUlD1jx459sWPHjv8K120RaUuTTqe7PH78eMQVfn4rlbo/eeKk6d+o+CMm/sIdaOJm5wB2TiGM6WzQQGOY4k0D/U7eD3+xs2SlZxf+0dHRlzIyMqY35DzDSJIm1Jsy+2MeJG8HXqHbYR1icWcJEd77I02sgQBtR6gKjX0QKDwTRory8nLX/fffvzcjI+Op5OTksw11z8vRw776yy0Ic312dnbf9evXw0V3H0iTP9OldOIUlZoPQDSYTGzYWfPMM89MDuWQW6wES0pK7n/llVe2VVVVdWXTsvuZdOs6C4CzZlCdTme/7777tk6ePBnZyYtREEeyfP3118/t3bt3sUKhiCOSJN3UIG0fOpBdCeA6BIBOmTJllhioFtRFByF+//33/3j69OkMjUZjYN0RbOyB1MpEky9bBtcmJyfvW7BgwRQ5B/T6wc1HmtauXbvaZrN1k5pTpaTNX53YgUG419bW2po1a5brdDq9CKgEMfV6vQZR0ClGgHz6ePX9i7GRCJCUBlDCz+80Go0+fL1efPSlnfAg6FKpVLpBGDUaDX7Ae8gryrrF+AJfnAHIEnaIqlQqZ2xs7LXBgwevlmshDGHsxOfn5//JZrPNRDDnHUCakHJAG0pyy3DdcyyGgiBE7969e8a+fftedLvdLSiHGildwo1WmnStWK6qS5cunw4fPvyXrVq1uhDqYkF8hvLatWtd3nvvvQZZmsgqptPprowbN+7pppBh+h5xz60ULWk36H6JjPk+stYO6e9EjtiNP6wMsuQpwKa3ultK9ac/i4q/OZPqR6SLdLzZbIbLd1aXLl1gXQnrGJFIkSaqI8Yf5kA2dpnIDbwgUtLE4s2SJvqeJU20G5xCfPBKegGY6HS6sr59+/71ySef/HtjnBLgT8eHQpp8cTfr16/fcP369QHEMEmA/AkVviMrCAFBpMlkMp0bP378/+vdu/enciPgscPs+PHj//Hhhx/CjZYqPXjSH3GSWphQX7PZfGnkyJEL+/Xrh7gjX/Q9Js4zZ86AFGLXWAe6FztwSLjZ1QrKscklRYuA7aGHHlo1bNiw/42JiSkJNrkigeibb765ubi4+EGTyaQgqxGbf4mIH5E5qgubAkKsa+mAAQP+NHDgwLebNWtmC/Zsf6TpypUrPVavXr02FNIktexRf1OgPG0jZ2PgAlkJpUpMSsxYhSc1j9NvIha+IEt0r/g9XkGifJ8pmFMchLWJiYnZc+bMmZKUlHQxktYmQRDi8vLy/mi322dBXCJAmp4Vz56L6M4R5GkSY5puC2lCh8Diu3v37t+dP3/+ydLSUiNWlCTzNHGw1ib8Jh6xAuJcNHDgwNcee+yxd+SMO3+yHyppkuoXshzgVa/XXx0zZsyzDz74IMIQHKGOxUiWZwLBkX9K08BAcG98fPzeprR7TnTPhUyaKD6OLBksyRHjQ+u6gZ3r2Pmhvn6SWpqkBInV50Tm2DmH3YyE781m8/n09PQ5DSFNON90+/btf2qIe45wgkXfarX6jBLkTcKcBINGVVVVXfofKU8gvkDjh8WQ5joqQxhC1xOfoOOVxMXa8RkzZizv3LnzLdlNJ5s0oQEi2L/Mzs6e5Xa7Y6kR1GApqaDvydXEHsOi0WhcycnJH8+fP3+p2Wy+LkdB4MycjRs3vnzhwoV0t9ut9we4P+LErhzwu9lsPrp06dIM9jgXOvft3Xff3VJUVNRHr9djO6mPPbPWFanLDoICNxol/MQrPrds2fKHuXPnTgp21hqSSeJYibVr166trq72BbZTzBiZNiVEwNdEwhp1hICiLOoWExNzatasWbPatWt3JBxzJVwUIE1r1qzJxKotmKUpUL/RwCchR31pRQJzKz6j3pQsL9B9Ag026UrRn0IjJUR4sXJK72nShUnLYrGcXLJkSXrLli1xevYNli058llPG+Ly8/NfstlsMzhpqh9JjAccJbR58+bXbTZbv9raWpWUmEjHJLsqN5lMxyZNmvTztLS0b+Uuxhi5IEvTuoqKCmzN97m82ZWvVM7qI006ne7a6NGjn8MW8SZCmrZYrdbeEUg5ANL0zfz586eGGl7RkHFUz/jyxWGuWbMmZNKE/qSFF+ks0q3s5F2fDgnWJnb+YPUOvifXMy2k/Ok1Im+ifr80bdq0WZ07dw47pilc0sQu9qhNwA7ECXMeLZDZMSJdGPszPLBGCHas4T3tpgUBw3xBO9/BJfBMYGI0GmsSExP3TZ48+amUlJRz4ViZg/XhDaQulMKwxly4cKHvW2+9lalUKjuwLJpl0FLFgs9kUidmD4Wk0+mQJXpi69atc+TUo7Cw8L433njjw7Kysp6Us0E6qUvNn7ivxC9d1blz5x3Tpk3DcSc3kDUcUPzhhx/+4tSpU3Nqa2tjqc5S0sQKOOWQoABVMh3GxcWdmjp16vz27dvjcMGAZlTxOJi533zzzc+9Xm8iyA+lPKBgOhq8rACyq246ZsLj8UCZHVywYMHUcI8rEQPBH8jMzFxfWVnZTWpVFTEmQwAAIABJREFUY7EgHAJZmajepJh0Op0NWKC+0dHRiGvy5TFhtu/CLOQRhd6X0E0kfihzU+ySRJFhuzkWASiLV/rsEU/c9lmY2BgpMYeK2+12K1QqlSImJuYa5CIY0ZUjq2wZ8LH8/Pw/W63WGQqFIiRLE40dJmC1KDk5+bmYmJgPQiUFweodjqWJvSfJK5npY2NjfSkH6ts9569OsCifOHFi6ObNm192Op33Q9bJLE9uQFKaZG1mdpq6YmNjv8dJ6J06dToWysIh3GNUSMfQgofGhVarzYWlqamQptdee60u5QARBemkxn72txARv3O3bNnyq+nTp8++00kTkRY2NgdtFD0GwYbMDXNL0MJ+CrAkwt/imCV0SN8SHx9/cdq0abM7d+6MsxfDSjnAkCakHNCyi8tw2iAllCwxxHsyJGDOxh/0vmgttsXFxRWXlJTEGwyGOJAgWhARoQx2b7Iyu93uskceeeS1IUOGvB4bGxvxw7zDJk248NKlS20//PDDjbm5uf0xGVESSLZx/kgTO4GSQGq12vNIUtW9e3esCuv1zyKm6uTJkwO2bduGWJt25BKTTupS0gRQKZ4Kz42Li8vCoYx9+vS5KUsvnnHmzJkHt27d+k5xcbFv66rUPUeDjF3dkmmXfkPHe71eW69evd4aOXLkHy0WS3kgYURg+9q1a9++cOHCT3Q6nQbPxD+YtdRULFVoLFnBNW63u7xfv36Zw4cP/+9ws6Vi4sjNze22cuXKDXJIE/n0pbhTXSm+w2g0FsNlaTKZrmi1WqdOp6sSBMGl1+uRf8SXX0eMPUICOK9KpUKsEeKO3Ig7UqvVcLX5yiE3H5Ef8azBuky9iGEirNlgbzYbL/u9VqutI20ej8eTkpJyPdJkBKQpNzf3ZbvdPj1CpOlnMTExyIR9291zQUjTYeQKC5U04Z7FxcUtvvzyy98cOHBgcmxsrLm8vNy3mICVEjJHYxOKFgsXIuZiMj17586dPx4+fPivmjdvflmu1bAxSNPo0aOf79ev30eR7qtQJze450TSBEuT7+w5f5NlIB0jIVe1rVq1+mzKlCnzQzltINQ6yy1PO37DsTSRO5UWJXgm3tOilGJy2PZLiSajb3xv67O0SNtE/eDP2kJkHNYWWpTHxsaeRMLUTp06HWogaaLdcxEjTf4W2MAPZC8uLs6XoJLCNGJjY8s7duy4AelCzp49O+ybb76Z63Q6W2IsUxka4zcQFibPFfqB5h0YK5KSkv41cuTIZ3v06AFCGVHd2CDShF10+/bt+9mXX365EAHTbCCcv5UJdTxe2QlWJBqV3bt3Xz169Oj/ChaDAHa8a9euXx8/fnyGx+OJwfWs6ZyEVSqw9EwIHhRscnLykSVLliAA/SYXDEhgRUVFm9dff31NQUHBj7RarVLqCqBOYkmTSJLqdq9R6vjY2NiDCxcunBLIcoHBjqNTVqxYsaWmpsYXdE3nb2FyYBk7kU62nWxdxFX++ZkzZ8oioYEUEpGmVatWbbTb7V2DWZpoMwC7YpLKAfopPj4euxUnt2rVClZFshzVERymPtLvbnKTyZ0E5Srdxi6HmKbc3Nw/R4g0FTOWpojGyTCWJtl5mhqLNMFNd+nSpa4fffTRn/Pz8x9Vq9W+wHSSf4wPcksTaSKCjjK1tbVXnnjiiVeGDRu2Tm4el0YgTXkjRozAAbBIRBp2KoRIyCcT01R3YK8c0kTkgXVdYSdg69atd2dkZCy800kT2z7SWyRH5B5iF6/+PBusnpb2VaA5kSVa7IKT5hX2d8xdwB+61mQyZU+dOnWRuHuuIZamiJAmlrhI5178BqMFCBMWPRSqoVQqbe3bt/9i/Pjxv0pJSbmQn59/35YtW17Lzc191OVy6TCuMb7NZvNNaXekMkvhKYirMhqNtampqXvT09OXNeZuupBimkSF5Tv6AHl8PB5Peymz9scK2VUNgUyNt1gsB+fOnZsRJGuworCwsO2qVau2IFiaBJcIkdRlxAoxFCqYrshgbW3btv08IyPj6UBmZbjotm/f/mJWVhZcdBZ/Qsx2HD2bkkwSHiBOer0+OyMjY37nzp3horspW7GYamDIzp07X1cqla3BxCF4ZL2j1TMRJmk7yXVDeSyMRiOOrYC7M+QDg5lBGpKlid1ByRInUkZkmoWFb9myZWObN29+IRKTwJ10D5E0wdI0LQKWpuKkpKSfWSyWzZFeTYV7YC/1hR/3XNiWJnEc+dIQ7Ny582WbzdanurpaQccykOyjHAWF4jsoaShbKOnWrVsfeeKJJ37Ws2dP7DQKuvJsBNJUMGLEiF8OGDBgUxMhTUhuiVgtZSiB4KQDGQsLMrF/OmfOnMVIIXK7x2JDLE0UYkITPOYUhDmoVCpfShR/i0apNY4txxIHvA9klWLnKClpYvEkC5joxcAB82dmzZq1uCEZwUX3XKOQJmozKzOEsWgVrm7duvUeJJVu27ZtFrwL2Kl74cKFhzZs2PAm4mhZ75B0jqe5V4ozdA/mTxhfHnjggbdGjBjxWnR0dGljLLDDIU2KoqKiditXrtxcVFT0IJkN/ZEl+o51abEMGu+NRmPO1KlTZ3Tu3BnmRr8uOsRSXbp0qfeaNWvW1tTUdIKSBGiia6bu0f5cREQ84KIzGAxnhwwZ8uLDDz+8O1BgJlx0p06d6r9x48a1dru9rb/2Ucex1i62PmDJID4KhaK8T58+q4YPH/4Hf37WoqKi5C1btrx88eLF8UqlEtvv63zplHaAhDDQLj4KElSr1dVpaWk7MjIyngn13Du272jiWLVq1Qa73d5duoqSEjd/pFKqBDBY4uPjTy5fvvynSUlJYRO6262cw32+uHvuLzabbSrOspKjTNlxIipyigsEaXreYrFgIg5KBEKpc1MjTah7eXm55dixY9N37dr1gkKhaEmTCBZBdru9LjgUn4lAUX4Y5N1q27bt/rFjxz7drl27bBkhACEHgtN4YF3z1L86ne76E0888cuBAwe+f6eSJpY0sKQJliacNp+YmHhHkyY2MbDb7XYkJyef12g0edgvVFtb++/98v+XmodSn/gs5chxgkkZ6U7gpYDu/P/tfQl4k1XWf5MmTdM0SffFAi1QCggtCBRwRnRkEdBP2UsplH0pw+ioMzo6i9/8Z8ZxdFxAZROkbIKA2AFFEIUBVAQFQWhZCwUKpaVruqTZ883vnXv6v7wmTZqmtED6PDylybvce+695/zOznrRCf8XAigZAcXCm8VZCjGdNpsN1wrtWBiNhefhxSyeTyibguSpwMDAq2PHjv27O/vZ2dlvSdDEywvMBfKT6ixJpVJDRETEt5MnT36uQ4cOJ3j3ot1u1+7YsWPG/v37/2QymcJwnh2VNRLjB6wfxUhRYc2QkJAf0aatpdx0TQZNGDSsMZ999tn/HjlyZKrNZtM6Eqxi4coHY/OLKZVKawcNGrT4F7/4xavOYn8QLI0WJ6ijJJPJwvEssq6I3YNiEyGuBRNFZ/SIiIijc+fOzYyNjXXar4ay6NDSpKqqqsGqJd4MBJxoYck3Tv3tMH+DwWCPiIj4/umnn54UEhJyUQROAD47LV68eGNtbW0/o9GIQGQBDFL1dB6tO4qtwvMIFGo0msuPPvro0wwQeixMcdjRfT47O/uD6urqXq5AU2Pf4zsIOfwLDQ09MW/evLS4uLizTRHkd8K16N2IiuDV1dUZXgBNZczS5HXQVFdXF5udnb3s8uXLKDkgd6dOE78+3rY0sf0tKGnbt29HHbPHbDZbEFleiUkSSCHFhRIjmIZbm5ycvGbixImvKJXKosY0T29bmtoSaEIph6VLl26FpUkul7ttaRKfb/a3KS4ubifcRLc7aKLsXeyd0NDQS4888sizSUlJ3ymVSnt9fb2Aivg9zsdGinlTA+KRSGClanL2LYrsip8J0EWhGiz5CaVRKpujMHGB4JMtFougbbiyiDnjw868PDy4Ye5FY0xMzHfjxo17rkuXLj+I47Fw9kpLS+GmexNNf61WawABWpJz9JsfK844DBTUdgxeJY1GUx8dHf3vyZMnP+MoDKe5MsUj0MSsMQO2bNmyorq62mGrDRL4pIHxrhveOgGCxsXFfZOenj41Pj7+JmBBk7t27Vr7devWrS4sLHxQqVSi67SAwCkdkYjpyKcKRg7iV1ZW6nv06LFl6tSpL7gqcYC4rZ07dz578uTJBXV1dSFiwMSPn8tqEhA1Vbim8QUFBZ2dMmXK9O7du3/Pu+hAw/z8/H7r169fqdfr7wVaRk0aAhnigHP+nTwtaWyouD1r1qyJzU25JNCEAn81NTW9XYEm3rzNj5E2NtEHqeBz5sxJb9eu3bnmbtrb7X673Y42Kgurq6vRW61JbVTIDcXtM4AmWJpgvfAYHDuiYVsETexs+585c6b39u3bFxUVFfW32VCzVN4Q00TnnhJM+FYOTCDkjx49+g8DBw78zM/Pr66RPniCpQnNu1ljW5clB24XSxMDTXDP9WoKaBJbmhhANbFA8KzbHTQRYIA1PCQk5EJGRkZW9+7dkSTkUeHI24E3tQRo4kESD3LY58aoqKijjz/++Av33nsvQlUcFnyGmy4/P7/Pli1b3ikvL+9rNpsbEs3E3guxfEGSCCzPlM2uVCpvPPzww/+8//77V4aGhnq1N51HoAmEQPr/ihUr1pSXl/+cMyveVNOEwA0REUyNhCxZToASbTbb2ZkzZ85JSkr6SZVTCPFr164lL126dL3FYumJ+0mTdGRlEvtU8W7co1KpLo4aNQpZc3DNNSps4A7Mz89Pzc7OXoXaSY2BJryP0C6AD9WSAKBjVVIrUlNTl4wfP/5NuOvoWXA77Nmz55lDhw7NN5vNkcydJ5gkIRDI7eZoPjxoYnS0aDSaAwsWLJiGqtvNObiegCZiPASaeD800cbf3z8vKytr3F1qaYq4evXq2zU1NWk+0OTZ7rTb7YEobLtt27bX0ZSVSg5ASYHAo9IDOINgoFCWcJawJ/39/XE+Dk6ZMuWF+Ph41C9zxrSbVREc55JKIuC9AQEBJSNGjPjjoEGDAHDrPJu5d+7iLE33yeVyoYCuIwuDOF6HV4o4Pmhu3779LrRFut1BE/UZRbZycHDwpUmTJs1PSUnZ42lmmndWq2Wf0hKgSWxx4hQZS0xMzLFhw4a91KdPHxSTbjQhwm63Bx88eHD0J5988kebzdaVD1NxFC9FoQukMOH8AR+APwQEBKDo5dOJiYnIpnPZmcNdqnsMmuCi27lz5wsnTpyYVVdXF0oBwSQkyW0EYvIWIH5gBKqUSmVVt27d1owaNeqv4lR5EPHQoUPjc3JyXrFarTE8Y6IDTc+n3wTIeIIiSHrBggWTY2Nj0aPGUdbWTTRDle5ly5ZtLC8vH0Bpp/gNaxJL729olMtbWHjLGmPYOIzIosug2klwAVZWVrZfuHAhqm7/DMHB5HIQm0nFz3NkDg0KCro8bNiwlx966KENzWXOlNG3bNkyWJr60PvEv8U0F4+bXwtsfI1Gc2Lu3Ll3q3su8urVq0uqqqrGIgiXp40ztzW/GXltPyAgoDQkJOT58PDwlrQ0IXtO6FbOZ0fyQpbX/GisLeGe4+kAnrNnz56n9+/fj1ZHYdhzdBYBmnA2oawASPEMlp2h+o4dO+4ePnz4HxITE+Ged5SYIbimV61atbm8vPxecf9JMVMl3sYrh1TsEtfKZLKyoUOHvjx06ND3m9o4210G7u51AE3Lli3botPphDhUft/x1jLiZTQ3XEc0pgwuq9Vqjo+P3zlr1qys2z0QnM/AViqVBUjn79Gjx7+9KWTdXaNbdR1AU05Ozmt5eXkZVqv1v8GAHv6Qco+zj/MCpYXkMmir1WpPDx48+NWUlJRt7lp8ioqKOnz88cevXLly5XGj0agmQwTVTSRQRPXgaOh8CAsz0Jjvueee/RMmTPh1hw4dvNabzmPQxPWiy7ZarV2olgRVBcWg+YwyZ2sC5obrIiMjv587d+5EcVFG1GtZu3bt0qKiouESiURBmiRpkXiuGJTxB59l7hk6d+68Ky0tbUFERMR1dyLqwaA/+eSTPxw/fnyW3W7XYD5YFLyXgtR4ICE209N8Mbbw8PDcjIyMGZ06dRKK7SGduri4uOvKlSvXwgzJW2gcgSZHc6Tns415MiMjY0rXrl2RjeASEDZ2PgCaioqKuixfvhyB4MLYeGHJgzZ+XK5Ak1ar/XHOnDkT71JLU9S1a9cW63S6Mf7+/oJ7jgdCLtbjJvoHBATcCAsL+11LuOe4QPA2CZqwNy9dupT0+eef/zM3N3eYTCZTEB0h2KnAJXgEb8lGnAMYukQiKU1JSVk3ZsyYfzpy0bNyGz1WrVq1qaqqqjtXMLNRkdIIaCpHrOaIESOWtQXQtHz58o+qqqr6Ngc0MUUUoOmOsDTxljSlUnkpLS1tXs+ePX9Sw89DTNEmb2OWJpyhSc0FTZgglRWAtY6ADc6gWq2+MmjQoEUpKSnrY2JibrhLDMjH3Nzc+3bt2rWwuLg41WazBZDyRvKXgJMY/IuNCig3MmDAgJXDhw9/1VVZI3fH1xzQJNHpdAmLFi36sK6urp9er5dSA13KaqNgbRqMWODiczKjq9Xq/PT09Fndu3dHeXhBCwQTKy4u7v7WW299aLfbewIgkAuMzHFiTV0s5FlM04Xhw4f/6YEHHtgmkUj07hCHimlu2rTpfYPB0Jmei8WiauTieB48lyxDPNAIDAysSk1NXfjwww+/jWB3u90edODAgcd37dr1d4PB0Imu5S1WPOji/y8Wtmaz2d6hQ4dv0DPNkwa9Ylq0lKXpLgdNMVeuXFleW1v7GLnnCHDyLmZH+5JimvAd9r9cLi+Oiop6MSQkBFZFr5mc8fwWAE0eVQR3ASLROLz37t27F128eDE1MDBQRi57xASCXrA4QbHBWQVAoAwb0C88PPzoI4888peBAwd+KeYFfBIEYn/Iqs2PxxEPawQ0VTz00EOvjRw5csntDJpIo+fq7JkSEhJQp6mtBIJLCgoKUj0pbkkWSawxLE0TJ068KyxN//rXv7wCmkA/kvdI+eesvDcGDBiw6uGHH14SHh5e6I7M5a+BO/6rr74asWvXrlfr6uqScMZIicF5x/kWt+DiZT8ppjjzwcHBuePHj3/KW9l0HoMmTJBl0f3+hx9+yKivr4+h+kKk5YmDmUVEaTCh4zq5XF7Ts2fP7NGjR6PQZTkTKsqDBw8++uWXX/4TVcAp3od+O7IwEQCh70A09BSbMWNGeocOHWCWd8sSAxcasnZQ5gANitFmA8yDtFhiqGKfPz9nAoVY3JCQkCNPPfXU+JCQkCt1dXXRq1ateufixYsjJBJJMA+WnFlsHLk48ZlMJisdOHDgwsGDBy9x1/zpQigJBTeXLVsGS9N9zbU04X5mDTs+d+7c9LvU0hRz9erVZQBN8NrQHqW942I9GorCMivutYiIiN+zkgN3HWgivnDo0KGRO3bs+DtKkPBmeqIpmCrOKs4e6jbB2sQYrykkJOS78ePHI0vquCjt+abMUd7FxytBYoXmTgdNlBlM8VrohNG5c+dPp06duqA55U2aKkidXQ9e7Slo4uUFB5r23skxTTU1NZEATSdPnkxvrqUJZ4Sa8wIwAThJpVJd7969c4YMGfKyuy3SHK2tXq+P27Rp059OnTqVZrVaQ3HOqB5TY65zci2TEQMxzHFxcQemTZv2VHh4eLN70zULNCHaPS8vLxUZYAaDoRvrJ9PQAJH3+TsCA4QGcSjB3EJDQw/Onz9/KhVAhGtuw4YN7964cWNYdXV1MEAZ1X3gAy55Sw3P0JiL0JqYmPg5+sBFRESg/obbPyyL7rmjR49modAlueVo3NTKhUCPOM6DPmdot2DKlCkTwahLS0tRdXwTqoAjtdIRQxYDTLqGtD3KstNoNGemTJkyNSkpCa6/Zmd8cJYmt0GTeG2ZYBNAMcWVaTSaY/PmzZt0l4KmyKKiolf0ev1oVLMHkye6OKCdUK+F/pFbmNVzMaL1UERExP/TarWwmjZ7vfl9djtYmmi8qHF24MCBZw8ePDjHZrOFEBOFdYniisikD0aO4HD8ZopMXY8ePT5/7LHHXoyLi8snRQrrghZCS5cu/RAZrbwbqzErcGOg6eGHH351+PDhS29nSxPtUep8IJVK9YmJiVszMjJ+q1ar3Xa7uM14m3ghB5reR5IA1dbjrUiOgK7YMhEYGAhLU1bPnj0R0+RRte0mDr1VLudAE9xzgvzx9Ac0xpnTarVkUKiLioraO3ny5BdiYmLcNlI4ej9rZt9z586dbxYVFQ0yGo1CmzGcb5xl6mXX2NhpfAEBAWWDBw9+fdCgQSua25uuuaBJqDW0YsWKD8vKyvqC0VMWi6MN68i0DaFAZdO1Wu25cePGwaf8NQTC1atXk1auXLmhoqLiPqlUKgXjg8ZIliw6xDxooncAVODZCFR84IEHnh8xYsRHTe00DhfdiRMnBubk5LxXVlbWDXOjd/OVWh2BJp7J4lq1Wl3Vp0+fV4cMGfJ+fn5+j23bti2sqanpCQ+leNF5qxKPmh0EutlDQkLgAklrSo8tF5tMUlRUlLR8+fKN7lqaGrOO+UCT4GYOLi8vH2u1WvtbrdYQZiG0W61Wf/TTg8uOWxMp6rXYbDZ/1HRi36HYHfrr1Uql0gtarfZjlUr1g6eMztl9txNo4uKb/p6fnz/cYDAEUVwT9iOYKpQc7D/wDFibYKGmtgsWi+XqkCFDlj744IPvUawDxTQtWbLkg7q6umQ6b3SWne3zxkDTgw8++Pqjjz4K95zO2+vVlOchENzTmCbir1wCTF1SUtLmtLS0F+4E0ERKHixNkyZNQrXtOzp7DqApJyfn9dzcXFiamgWaIGOhsFRUVOC3ITY29usJEyY8l5CQcLIpzbKd7WWEshw8eHAYAtclEkkS1UXEmaP2MrysFceLUkcKnH+FQnFk3Lhxz/fo0aNZvemaBZowUVhjdu3a9fz3338/x2w2h2GQ5JLhzLlOzzdlZ4DJyeVyFKJbn5aW9lJwcHB1bm7ugx999BHAxb1gYLDsoEglNbWlzc5bYQhkkCUmMjLyxMSJEzMSExNPu+ua47QSoRfdypUr11y7dm0QipdRBgmLzhcu5ZkpH3OEzyl4HE1oo6Oj940dO/b5w4cPZ549e3a0TqeLp8w8us+RG86Rlss+Q8n4daNGjXrZ0wa9DgCb5Nq1a13ee++9D90BTU40BOFjAs6glUaj+TErKyudZS82ufBbUwREW7zWbrer/fz8kKlCVYapUXBDw2BWEI+3NKHYHX9GcS1Sdmu8wZDEdLqdQBPbX7JTp071+eqrr/564sSJwXB9gjnSmcM1FFcJfsDHImJPhoeHHx8zZsxzycnJX8GEzxI0ui1fvlyoUUYMmAdNvBLDn3WKrRRlz1Xdf//9KNz7RmNNu2/FfmXZwFs8CQQnizH4LoRWQECAAJomTJjwvLeCa5tDg+ZYmni+q1QqLyOmKTk5+QtvW3GbMz9v3+tN0ESGC5wflUr1XWZm5rOdOnWC29trVnDUj9u4ceOfrly5Mqm2tjYEZxnxi8AMJGN5g4zY6EBlCAICAkzR0dHfjBs3bkF8fDzcdD/JoHWH1s0GTXDR5ebm9tu6desqnU7XlWnRDZlzjQEnMRhADEJ0dPR3U6dOnaJQKGo2b9782rlz50YHBwerma+0QRhDi0S0Pt+FmjRDjAGEtVgsKKq1f/78+bM8rV+EDbZq1apXrl+/PsFsNgtZdGT259NVOaDVAKQIYGE8GGtYWNi5kSNHvvXpp5/ONpvN96L3HH9oncUtkdsT31PwG2vsm4e4gm7dugE5e8WcDAbELE1o2Ouy5IA7oIky/ObPn58eExMD8HrXgSZ3DmNrX3O7gSYGnFT79+8fu3fv3j/X1NR0ovgbChQlQc+DeLgTwHRNJpM5PDwc2udTXbt2PQ7QevXq1Xvhnquvr7+XYqWaAZqqU1NTlw8dOvSV2xU0geeQixi0ZJWX9V27dt10J4AmPpEoMDDwcnp6+i8ZaPIKP23tM+3o/Qw0vZGbmzvRG5Ymm81mCAsL+yEtLe25bt26oYizV2kHZebq1as9srOzF1VVVf0sICAgAMYTsh7zFmGKKSaFnZQY6tQhlUorBgwY8PbYsWPfkUgkFZ6sjzdAk5BFt3Dhwo1lZWWpSqVSSumAvNna2eBwDZgTCtThJzIyMnfUqFHPxMXFFS1atGg10t7hmhO79ugw4zdfbp3ijvA8rVZ7deTIkS916dJlc0xMjEfF5eCiO3PmzM83bdq0orKyMhHjIKBGWqwzSxOfGcUAkUEikRTZ7fYYtN3jrVT8fGjBiX68j57uYUDqyDPPPDMpKioq35PFdwJ4JKWlpYlLlixZp9PpBtD7eBekq3fxQJAEj1qtzp0/fz5KSvhAkysCttL3tyNoAqnKy8vb5+TkvHT69OlJFotFBR5ASRv4zVufaT+TYiWTyeBS+CQzM/PFqKioy1euXOm6du3aD0tKSnpSNrBYueNdAHTGSfiS5s34UnW/fv2WDRs27B+tDZpQjHjx4sUfVVdX9wY7JXDJ8yBxNjDxJJ6/sfnW9ezZc+PYsWNfbCuWpvPnz/dfv349Ypp6iGOaaP3FXgB+HUEHlUpVOHbs2KzevXvD0uRVwd9KR9rha70BmgicSKVSU2Rk5NFHH330jykpKVDeDS0xVypu+9FHH71lNBq7k2sO7+JBPRR04A/8MMOC8D018gYuUKvVP2ZmZqLopVuNvMXzaTZowgNZocs/HDt2bHp9fX0oH/fTWMNb3Et1nfB/EMJqtSLy/uN27drtPnDgwF9qamq68IxPbJmhiq5kQibLFiPSsRkzZkzv2LGjx/WLWBZdp4ULF35oNpuF0u4YK6U/OmKoPNAgpCv2tfLMirRgMUqmZ5OGx7IMyZeLBr0fpaenP+fNuALMt7S0tPOSJUtiK5JzAAAgAElEQVTWewM0EXP2gaaWYCXefWYLgKYf5s2bNy4mJuZyS1oXoYkWFBT02Lx588KysrIHDAaDEDAKTRTWa1I+CNgQCMDfYKLIqHnggQcWjxgxYv1/SkPELl269AOTyXRT30WxYkR86G4ATbzyx+ig79mz54Y7ATSRwo29EBwcfGHs2LFPJicnoxzF3QCaENNE4QJNYiYkqzQazcWhQ4c+P2jQoF3NLazc2ACYXIreu3fvn7799tspcrlcQ+V/xK5ximfG8/jit8AGKEdiNpsNSUlJXz/xxBNPxcfHu1Xsmh+bV0AT60U3cN26dSuMRmNXOmRiSxPPeOj/4vgnZiEq02q158vKynog24h3u/EuLIorojoReBZZfywWizU6OvqL+fPnz/HUNUeEAjLfuHHjX69cuTJRr9eHUIEtZ+40V6CJ/54AE4EqXhui66gSOQXdsa7O8L8/mZqauttVW5imnAYqtQDBodPpBvJj5eM56JlkFePfwQNbH2hqCvVb99rbFTSxMxRw+vTpgR988MFCvV5/H6xN5D4nbZQHTbSXwXjVarVRqVSefOyxx16IiIjQZWdnr0CShr+/v4yK6DYDNL03bNiwv9+ulibx+b7TQBMJfwhUtVpdMHny5KzExMQ7urglZ2lqNmjCuXnyySfR87TJ4KOp3A5dCs6fP98zJydncUlJyUB4oMTyEx+RzCEsQPHQkJv4wd9Go/HGI4888u4vfvGLxU3NpvMWaBJcdK+99tpGs9nc32QyCQ2fHVXU5S0zFMQF9EduOsbg7DabzYL2IhTPQ4xPLJyJMfImWXZP4aBBg94YOHBgdnh4eHVTF0j0Hnlubu7P169fv9xsNifxsQ7i54pBDx8YyoMsngmLF14MVAh84n4KalOr1T/88pe/RFuYZtedEM1VqE/VHNDEz4cHTbNnz57Uvn37vJa0OjRnne/2ewGa1qxZs+zSpUuPeamNyi2xNHEAXrNv375Jn3322Z/Rcol4Cu/6prNFexR8g8U/1sbGxp7o3bv3tkOHDs1EfKYDC4vwKrHVmFcOefecTCar6du378qRI0d6LVHD0z3qqXvuTgdNxMtZFjfKwixg2XNerYHm6bq1xH3eBE1BQUHHn3766QneDBFxNmco9Ahr+frrr8d+/PHHf5ZIJEJhaJKxBJIIC+BvPnyHvkcWPs68Uqk8NmrUqKfvu+8+NBF2u/m5V0ATBg4X3aeffvriiRMnZhoMBqEXndjSRMQg4MR/T8IV92Fy1C6F/JUEmsSHGN9Tvynez6lUKuG3nN6lSxevpD5WVVV1fv3119fX1tYOCAwMlEBDJRDjyOIkXngeLPJWJWcaLAFK0IPSLDFXAEy5XI46KZ9NnDjxqYiIiGJvghByzy1evHhDdXV1qhjAiecqBomcABP+S2usVqvzZs+enX63gSZYYVnGnN1Vs8qWYJBNeSYHmtBGRe6F3nNerwjuaj5IrUd68sWLF0eaTKZgR/Et/DNgkaLu6CaTyapSqW7U19eHBQUFKZC8Qfc7U3LoXItdBDgXMpmsrlevXmsff/zxl1o79sfboCk5OfmDMWPG/L6158VArPT8+fOoF9jkmCY+LlWpVF5D9lxKSsrn3q6272rf3srvvQmaQkNDj82fPz8tMjLygjflUGPAqaqqqsOGDRv+dubMmdEymSyYsAb4FeEDkju8d4TOMOQpEkEMBoOpc+fO+0eMGIH4Jrd703kNNEEzvXDhQv/33ntvjdlsTkTtBhaj1NBni58Qz2xIO6NK3/iOgskpVonXFsXWKoprwj34Dj7L+Pj4r2fMmDGjua45WjwWt/Xi0aNHp5tMpnACNeKYJVoYsVVJDJq4QLqG/UFgigeVFNAK5o3vUXMmLCzs4pAhQ/4wZMiQ7e62hXH3ULYEaMJm1mg0p2bPnj3xbgFNoCMqv1ut1l4mk6mn3W4PVygU/9Jqtd+5uxa3+ro7ATSBD126dKnn5s2b/37jxo3BqHjMxx/xmTa8dZuyc6GsAUhBG0WoAJ1nT0CTv7+/EPszZsyYVg+Y9iZoQuwKm1ebAU0FBQX9Vq9e7bC4JQlOXsGjzwCM4RFBCIRKpSoaOXLkM0lJSbvCwsIQ0ExZvugiwWf8Cm4hUTkQ8d9udZ4QPUecVexulrGtKYDFGyUHSH5ptdrjs2fPntCuXbtbApoYSPbPz89P+fTTT18vLCy832azKfG52FDDW30p2Qy4hFzuzMqoS0lJyZ4wYcKrKpWqxB06ehM0CTWNli1btqa0tPRnMplM6AnFx7eINy0PJDAR/JBmR/FKRAh8R0iSGB99xt+HZ8rl8kvoL/XQQw9t9lZwGjTv/Pz8fhs2bFheWlqajEPGa7E84GELexPqdQWaeDrxoImeRQIUlqaYmJgjmZmZUz0JYnMliFsQNN1VliYUZauurp5TWVmZbjKZEu12u0mj0WxVKpX/29rxLc72AANNS5l77ra0NLHzgozXftu2bXvrxo0bKCiK4qACUyXeQbEPZKUuKysTvqeMG3xOpUUEaSiRNGThOTrfjixNDDRtGjNmTKvXM2KgaQvLnhPCQRwFxvO8hxRVnndx2XPrx4wZ88e2YmnyFDTxdQXRHqZr165fdu3adXNwcLBOoVCg1tBNwMUOBokCP1Yr1VNrOE4gqo0RVSqVWvEnitLKZDLc5i4Agtyws3ts/v6of2sTg7YGgGY0Gi3t27e/oFarK9ytQ+hN0KTRaI7PmTMnrV27dqis7/YcXckhV9+j1NHRo0d/vnv37r9WVFQM0Ov1MpxdKq7NcECDlwbYAUoQlCHqRUkGj6CgoNOPP/7471JTU5EA8N80/kZ+vAaa8I7KysqQAwcO/Oro0aO/REEqsRXGEWgCWCLwQW1JoO1RWj8xLN7SxIMm7Cdy6dH71Gr18VmzZk3p0KFDkwtaOqMVzkpxcXH8qlWrVldUVDxAjVcbszSJLWv0bD4mQvw+/h56Nl9rxmw2GyMiIvYgwD0yMrLI1QI39XsuEHyjTqfrzwsM3tTJz4Wu4d/FrzWzNJ2eM2dOert27eAuvWWHq6nz99b1AE2VlZXTKyoqfm8wGOJAD61Wezo0NDQrODi4oSm1t97njedwoAnuuQAvuOduaUyTaP8F79+/f8yOHTsQ39SJr6lGFiZSyFjtIb7NivAoinfizwAPmMSuAHxHYIS55/Q9evRAav4LrQ0umguaiAaM96JP6OpRo0b9ualBtN7Ypw54ptRT0MSaYAuPZEDZGBQUVGM2m2G9kQC8MIsS8Sz6LchOm80m/Gb8Tvg/+BsDmgBNDaySGzfP/wQchts4nol3C9Yj9vybCuAyAIbvrRqN5toTTzzxHOqMuVtQEqDp448/fjUvLy/D095zZBBB+v7cuXNhabqloAm0rKmpidq2bdvTBQUFk4uLizvgPFMCCGhJ/+etTABOGDu+IzkMhTY8PPzglClTno2Pj4d8arQwp1dBEwByQUFBn+XLl2f7+fndS4yKqnMTkyFmRX5HsdDlQQUFYzoD6vQMiv1RKBT10dHRX02fPt3jgpbODjZcdJ988snvf/zxx+l+fn5hpKlxh+amWx2BDDGwEJv9xd+DcVNLCBaseHnkyJF/TkpK2uJp7anGGBcOcElJSQIa9up0uvuphAO3wRqC9jF23o9MzxW7T1kbmdPTpk2b1LFjxxN3CWjyN5vN/a5evbrUYDDcx9zMFREREX+LiIhYIZFIaltCgDTnmSx7bllBQcFIgCY+nlDspuItqwSucD3tefxGskJWVlaLlxxwNueysrK47du3/+HkyZOZfn5+wbzgh0ZK7nxn59cdWvJ8iVcU2DP1ycnJG8eNG9cmQNPSpUs3V1VVoQm3UPeO+DHNX2zhxud8BiIBQrlcXt23b9/lw4cP/0dbAU35+fn9kb1dXV2NrEdhbvz+5deS5skrvGIwTH/z1kZH+4GXAe7sFxe89ydfO5MhtNc0Gs35qVOnTk1MTDziStjTwwk0nTp1KsNsNqNLwU1dLdyZB4Gm4ODg41lZWRPj4uLO32q+jrZHxcXF3davX/9GYWHhQ35+fkrCC3xfWGf4gvFkwehiMBhqUlJStowePfql8PDwosbm4m3QJLl+/XqHDz/8cHVhYeEg1E+hppdEZGwCMo27Ylb8oXa2kHgeBY0zDfLSoEGDXh4+fPhGb7nm6N2s0GW/jRs34nD24F2HYlBHQsYBI71pKiRo+IWle/j5M3BoUyqV38+cOXN2586dT7lrjnXnEHBzFLLnli9fjn6CqYTIaf1oTGTtEzMNHjDRnKDBqdXqs9OnT5/YsWNHIPmm+PubMvw2da3dbo9Go97a2tp0+N0RXIpGu/8Bu8/5+fkVtjU6kKXp4sWLgqWJrLjifcgLGPxfLJxo/6rV6qPz588f39J1mpwtOlUS3rhx4z/Lysoeqq2tVWA/U4kSR4qYq/PaxA1W361bt63p6em/8WYttSaOQbgcliaAJp1O1xvhH+6CJv58c6BJx4p2vtoWXM0Qngw0rSS+TICPz4Dk15b4F6+gO5JHjSm1nqyDN0ETxq5Wq89nZmZmdunS5WhTQFNOTs4/cnNzMywWS+DtCprYeilOnDjRH674ioqKPsB/WFuKc+blK097fi9gjSGjgoKCzj/xxBO/69+/PxIB/tvd28GPV0ETng8X3bfffvvknj17npJKpRGE+MWDdGVBaoQR3vQVnoNgPhSyA4HkcvmJOXPmZDanoGUj7xbitt599901KKKnUCik0MScEpdpc44AEd3DxxXwQIvohe/JTWC32w1RUVFfZWVlzQwLC7vWEsieLE0rVqzYUF5ePpAXMBRnRsDXEUMRf4Z5MPccgaa7wtLEDrSyvLx8YmVl5Stms1lIgQ8MDLwQHh4OIbpXIpHUeJvxNud5AE3Z2dmIaboJNPHPdLZHSbvnNePg4OCjsDTFxsZeaYm96s5cAf5Qv2nLli1vVFZW9pXJZAJTJZ5BbYmcCUxnFm56N1krnIzF2Llz50/R6ig4OLjEnfG21DU8aEJogdiCQcCYtyjy1kTSyhmPRXuYJUOHDn2tjYGmBksT6NiYFciR0ucJQPLkHndlG8mNxsC9SqU6w7LEmwSamHsOFfSbBZo0Gs2xuXPnpreGpYnoaLfbQ7du3frL/fv3/0oqlcZgbSEz8duZfOb5GBQpnU6H660dOnQ4MHbs2Gc6duyI0jgO3XReB01w0Z07d67PmjVrVlsslu7iQYtdN7SxXVlqGmMm1EtKr9cb27Vrd2DWrFktBirQoPhf//rX82fOnBEaFIuDKd1lemJrkthCQ5YdXouXSqWFAwcOfG/o0KHvhoaGVrn7rqZcR6Dp3XffXa/X639G5mkCTDRfPq5MzDjEgpVA06xZsybFx8fD937HxzQxISzV6/W9bty4sbq+vj6FCZ7a0NDQFdHR0a/DAOBp08imrKm717oCTfw68wKVgD0JXtojwcHBR+bNmze+NUETWwfNnj17Jn3xxRd/stlscQBMkZGRxCgbyMPzIHeFoQvQZEpISNiRlpY2Pzo6uq2Apl4I1XG2lo6UHmblbojXQuuvfv36LR02bFibtjTxVgZn/NaTNXf3PHl6naMxObKA4rPg4ODTU6dOnZmYmIieb241oGXuOcHSZLVa7wTQJC0qKuqydevWRefPn39QKpUq0QIJuIDkF8+vSNbSXieLOoCTUqnUJScnr0tLS3vZWTZdS4AmIWB69erVG4uLi/vLZDIhPdOR2wafU0yMeIOJ3VuNoXNcC7RoMpluDBs27K/Dhw9f01JaPEDhmTNn+m/YsCFbp9MJhS55S5JYg2vs4PDaHVlvSOOlRabfYM4KheKHadOmZSUlJR1z1xTb1INLgeBvvvkmmpY2uOfE4+E1Un7+/PvoHmxKjUZzetasWZMTEhKONXVMt/P1drs94vr163+rqamZBgYFmmg0miMxMTG/lslkeSw7x7++vj7YYrEo1Wr1VT8/v/rWAJbknisoKHBqaaK1IFBPab1UEoP2P2PoR+bOndvqoAljrqysTFi1atXfSktLRxuNRhXGj0wa6lNF586ZAuDqHHNaL88PjAkJCZ/OmDGjLVia0Bppc3V1dQpAEw/2xELakTWReBV+y+XyGrjnHnnkkVZvREzKCXPPvV9dXS00Wiag54gfiYVmW+EvjixKzuQJXcuBpibFNG3duvW1vLw8VAS/7UET2wMBeXl5qTk5Oa8jgclms0k5D01D0DetPe+ehbWZ4QfBTQeXJ/rf9u/fH96An2TTeR00YQKwxnzxxRcvHD58eLbFYhF60fGWCRKmuLa5gXQ8kw4KCjo1ffr0KYmJiS4j4D09KAAVqH7+1ltvIaiyH7kZxaDQnQMgBk30DJ4++IxVLPYLCQk5/Mwzz6SHhoZe8nT8ru7D/MrLy+9Zu3bt8suXLw+RyWQNh4ofF42dnudIQyUakKVp9uzZGczSdFfENLHDrKiqqnqsoqLidaPR2BH7XalUloWGhr4pk8m+ttlsUfX19clGo7GXv79/jVqtXstqOVGF2kCDwaBFHEpgYCBcsi1WqZgFgi+5fPkyKoLfFAgu3jdi0OTIPadSqb6fN2/ehNa2NLF18L98+XKvdevWLUKKMroNiHmSo73s6ByLBbEYMHHfGzt27NiWQNMWnU6XIpVK/Qk0iYWy+BxTIDizkgr8GpYmBIK3VdAkLmgqVkRJyeN5tqt1dsU3b/X3xIubA5pOnTqV3lz3nFar/WHOnDmTWtM9x50/ze7du9P37t37kl6vj4NShNgm0Eocm0dGCuxv7BeU8kGID+ogajQas0qlOpienv5rFuZzkwWvRUATs8akfvjhh6t0Ol03HjS5slg0ZfPRpmcN+kzx8fH7pk6dOqul4n1obACF27dvfyE3N3eeyWTS8IevqZYmnlE7M42zRa9OTk7OHj9+/F81Gk15U+jU1Gvtdrvim2++Gbx79+63a2pqEmmD8QCVGBExIP43v8YE+oDep0+fPqlz585wz7llRm7quNvq9fX19R1v3LixtL6+fpjFYhFq5KhUqqt2u73aYrFozWYz+hkqAgIC4LrbEBIS8q7dbjeazeb4urq6XmazuSesT6Ghoe+pVKrzzDolr6urU0mlUplSqbzhjQajAE1r1659t6Cg4H+wB0hQigUKv74UN+AINKnV6jYDmkgbPXbs2KCcnJw30JCXN9+L905TLN08fUS0gntuZ0ZGxvzIyMjrrbk/S0pKOi9evPgmSxPG48i9yPMhMWjC/GQyGdxzy4YNG/aPthLTxCqCIxC8Jw+a+NhZsTLq7ho3tm5inu3pGjsDbY1Zmpg191RmZubMpgaCs5gmgCahMGRT50FKk1arPTZ79mzUabplxS2d0RgJAf8JhUiAFe3cuXMjLBaLio/JJRrz8ozkGJX1Ibee2WxG3N6akSNHviI+uy0CmjAQmMMXLly4ubKyMhUMlTeZ8plYztoUOCOMI2CBaxUKxfX77rvv7XHjxi2RSCTN6jXnauOzLLrUdevWrTMYDEL/G97kS4sjtsY40lBdxUSBaSE9Oigo6MyYMWN+2atXr69ayjXHj6+ioqJDdnb224WFhcOkUmmQM0shD/o4xN9Q1BR0YSbPKzNmzJjcqVOnI35+fo6sJY72okuLVGu4sVztD/H3drtddf369afr6up+A8sr1YahyrTE2JkL9rJCodhuNpujzWZzZ7vdHms0GtUymawwPDx8uVqt/kIikQTW1tb2qK+vhxnartFoNmo0GgSCNqszO3PPLbp8+fIogCY+nk4MDMTWYkfCV6PRfJeVlZXWFixN3N4M+/jjj7OOHDnytMFgiHQmLOhzV8KE12AdCD4UHtyVmZk5t62AJp1O14ssTQSaHClARC/sVVpbzhWrS01NXTZkyJA2E9NEbVSQPSfuQ0rzEytzTVFwm3rmm3M9v4/EwI7/m4GmM9OnT5/aqVMnt0M2WHHLV/Ly8iaZzeagOwU0sXWWnzp1qg/cdFVVVQOtVisqizrsFwlassQG4XsqQ0JyOzAw8PSECROe79WrF4peokK88NOSoClk3759zx48eHCBVCoNg/mLKvJCw6PgUT4l1NFGc8W0MFEUrAoNDT01ceLEaV27dsXmaVFLBgVLIy2/srKyP0XrU9A7xkwtYRrRQoWFEhfd44EHv5nlcvmx3/72t7eyx4/8woULqR988MGi8vLyfkDgNF7y/1JRUUdrRCASSB+Bt1qttrxXr17vdOvW7WuVSqVngAGZTBZUzaV5owKuCFyiQJzDwHG5XE7Vcn+CU+RyORWEo4Jz1C/QHhAQIDwPN1OnbP4B+BzXoJQF+gzW19db27dvj9odLqvFOtrD2C81NTU/u379+ko/P79ufP0y3r3L3atH3Imfn18AMXx/f3+LQqE44+/vf9FkMoWZTKZOdrs9RCKRVGi12vdjYmIWSySS0uYw65KSkmgEU164cGE0QBOZrh2R3xFo4vcu1l+tVh9+9tlnJ4aGhl5uzri8eS+00WvXriXm5OS8mp+fP9xqtSphxsda8w3GMT/seTLvO1KAeEscryhxQtoeExOzf86cOZNbohBtU+hSXFzccdmyZRurq6v72mw2GWnUjQlMfo3xf9LamaWpLWbPZZeVlXVDXzGKleXrLGEOPMglodkUOjb1Wlfyy5mFyZ334F6tVnt22rRpmU0BTag3uHXr1pfPnj07BfF9rt4lBnH8Xg8KCvrx2WefTYuIiLjldZqcjbu0tFR9/vz5CZs3b37JZrPF87UGqWg21WgjOQU+TPgEe4S1gLPFxsbuT0tLuymbrsVAE2qknDp1qt+6devWmkymJB4hU4sCmoyrRWvse8qQCA8P/3bmzJkZt6omDFx0u3btevGHH36YYzQaEXPSAASJ+bpzINyxNEml0rru3bvvHD169JNRUVHFzaFXU+5F+YjDhw/P+ve///0bVHgHM8KcCCzxTEjMHOhvzI9ZVuxwI0ml0hqj0Qi0g2q7VgBcVkGXQA5+E3CyS6XSmwCT6D1CxV1U7hUBLf4ZKOTn7Hu0PUAkP74X7qFKvPg/m58kPDy8bOTIkb/v2rUrrDkeZf6hem15eflio9H4BDAZuS2dWTT4IfPdu8kdxmcGqVSqfWFhYb9WqVSogO+xtam0tDR206ZN7128ePERADbKKqF9TAxGDOz560jQ4lqNRnPo17/+NWLw2gxoYoBGlpeXd9+OHTveLC4uHgDLMdGTxewIZ1ksYHmzPr+/HVkGGI3sYWFh38ybNy89IiLiWlPOnrevhXvunXfe+bCurq4vQDzfboJAnhPA35A1R9cFBgbC0vTu4MGD32gr7rlz586hxRW6NXTnLQhkdeKA7E1FPb1NZ/HzXMkAd0EVfx3/TI1GcxLuuU6dOrldERygadu2bS+juKXJZFK7QwOeB/CgKTg4+CQyZNtCTBPHl6SXL1+O37t37z+OHDnymEqlUkH5oT0PwIT4JShKNBcKISKrKhXkRuFxFKgdNWrUX6joZUuCJqGm0fLlyzcWFhYOUCqVwrswKAgBYv7ubhpnC8tcf+X9+/dfMnjw4DdbKhXfwWGQ5+Xl9d+0adP79fX1XelwEoIlF6QrM7+zw0DvYy6bPPR56tu3L4pueWTtcOdgOJijsPl27979hwsXLoyxWCxhZK4nQcl3CXdk7uYLgFJAO+0DMvc3Nja+ZIWjvcIfZp7584dBLOx5Bsq/m7+OhD/WMyQk5MK0adNgxfzW04KUsNyUlZXNqKio+LPNZosmWonHT+Ph58pi9hpc3Pzc2DoUh4eH/y48PDynOVmjtbW10atWrXr34sWLj9tsNqFSsDjRQUxLElBYS9LuySqjVqsPATDcc889bQo0sfUX4vb27dv3l5KSkn5gqARkac+6YUlqaMdA51302x4XF/flzJkzp7e2pYmBps2sOj1ZX/lWEjcdQ1pnnG9o57RfWdZheWpq6qIHH3zwnVvFbxvjEay45YB169a9r9fruxPYpT0pUqiEP13JHU/45a28h3iAVqvNy8zMnNFUS9P27dv/duLEiSkWi0WolO/sxxFPx7VEY61Wi7qIE9oSaGLnG266+z755JN/VlRU3G8ymeRQ+sHP8Q/eEoAmXs4ScCL5QIqTQqE4N27cuN+mpqYiNMLQYqAJL4al4ptvvnnywIEDT9lstggMAmZhYizksmvOZmNWjPwFCxZMSUhIcLvAV3PeyYgqZNEtXrz4g9LS0gFw84C5UAozaaWuhD6laovN+3SoQaPIyEg0RcyIjY0946mlw9P5wmJ46dKlLvv373/xxx9/fMRms8Vgw8Elygf/8m5WXhOCMMLfPGCig0ixPQ7AWsNHrtoYuGCmN7WBcPQennmKASwBw8DAwILZs2cjbgCgyWPXb21tbe/r169nWyyW3gQsXK0LgRICMGKwxcCdMTQ0dJ1Wq/1fdGp39Uxn3wM0rV69+m2AJgSI8nFKjqwsJHzI+kjgjgdNWVlZk2JjY1ss29PTueI+WP9QhPfrr7+eY7FYokgYUOiAWOgSkHCk6PDryQkaW0RExIG24J4j0KTX63vDKw0wRM1qxdYQfn7Q0Cn8gEAlCnXef//9bzz66KPLWzp+1J31BY+6cOHCgFWrVq2oq6u7l+aDsaOrPb9P6Xm3CjS5eo8rS5Sj+fP3KBSK3MzMzDndu3dvUsmBnJyc144cOZIml8uFmKbGQBOBCLqGFEr8VqlUKGCLnqKtHgjOz4H18wv66quvHt+5c+ff6urqOgN74AdyGq3JxLKXnycBJuZVMbdv337fqFGjnktKSsprUdBEhS63b9++uKKiItFoNAb8p8u7EKLCLE3UrNCds9GwZlCA6Z/FYjFotdoff/WrX01tyVR8RwNkLrpnzpw5M7GqqipKLpej0q4QJsMW7SfdrcWHiPO3NjRsZIdcqG9lMpnqEhISvp00aVJWa5n4WTuKjocPH864cNjRSjAAAAinSURBVOHCiPLy8miDwRCiUqnk4pgszJs71Gg4CRcbunVDuxPcYXDNMUZsF3UL/wm9mEYjdBZ3tAaNNcxkQKPhPrYmN2mZ7PkNmjdz00nwXFyv1+stGo3mwtSpU+d169btkKeWJnYgQwoLC9/Q6/VCUTlX8Xx0iEkgizOBSBhgDVQq1cmIiIhfBQcHA9h55KIDaNq0adNb+fn5P0PcFFWOpvcw0CA0I+V+hPPMAAY1HoV7Va9SqU48+eSTs9uae45j/tLz5893/fzzz/9eUVGRZDabkYoP16ngMrZarYgpE2jJ9ong6sU+Zvvcn51f7BfEoAl7BuUh2Pd1sbGxxzMyMhAI7jGYbQpzdHbt9evXE9asWbOyrq4uEeNDFicLI8C4+R9hDrDe4Le/v7/EYrHgvOKf3WKx2FQqVWn//v3fGz58OHootmjSjTtzZ6Cp9+bNm9+or69PxFogNtJisYhd+8Kc2H4WXPHc88lFD75LTXppo7uSk45c9o258en5De4hZ3GbNy3Mfw+eME4WB2oOCwsrGDVq1G8TExPRaaHRRrP0rKqqqtADBw787vjx4+OMRqOGfU7zp7kK42dnnYbX0LQY70eGb0RExIUpU6ZkRUVFFdxqhd7V3sBaV1ZWtt+8efPLqBlptVqDkaUsk8lkDDRh72NPNOAJhiv45skoR4CU5xvJyck7xowZ8xdXm8HVuFx+X11dHXHo0KFx1dXViRaLRY60aqvVKvf390eBNTMTmsJzeMEo2kRg1GKBCoCCH2NUVFReUlLSjsjIyFvaloKsMGhwWlVVdQ9cZ6j/gjmZzeZAf39/MwJ4uU0pphfNS2C01NEaE2WxPDaFQgHG+22fPn0O8hH8Lgnv5QsYs9FeunQpprS0tEt5eXlPnU6nYZYkjFc4yey12ISIFbIhbonFiyDoGkxXYTabsfZWf39/I+J7SMiwOCKBkbFAaICthkBw2h882LBarcTkINiESqPYKxRQbjabIejwjAbhwB1uCdt/eIbQ1VzYZP9lrMJc0OVcoVCUDhgwYEtkZGSztCnsl/Ly8smVlZWo2RTJZyS6Wi5H1gDe6hQQEFCp1WrRDDhbIpFUunqeo+/tdnvwN99882hJSUkyup+DCYsC5YlfiK1tWH8IV4AnXAN6WxUKRcWDDz64Tq1WV7Q1hsoBJ3lxcXEclACj0YhK2ZgyzqLVYrEEMGuMAPaNRiMYrBADB/clLDbYv/gMPM1sNssBRux2uxJ7HPtIrVaXPvDAA81ym3qylj9hNHa75ujRo8gmUmGfY7z4bTKZAN6JtwLsYS4Ye4DVagW4UphMJkHJkcvlVoPBEAgel5CQsDslJeU78F9vjK85zwC7rKurizx79mxviUQSzEIkbHK5XGo2m8GDhH1LCha9S2RJvEkWipU0J0qbWH7+BCiJO2Lg3eI4TX7uLsBTw/MbUIzdburRo8cRlUqFsiMus43xLqxtfn5+z9LS0s4KhYJXKp0CPfa+m94P4CSVSqs6der0Q3h4eKuDZyc8TVZYWBhfUlLSE3u+trZWW19fH+vv72+or6+PwH4GkDKbzUqDwRBkMBjUJpMJfyMRRsAY4GsBAQHWgICAwgkTJrzV4qCJCSCVTqdDMTkwGacLSxtTvHG4DULoV0BLbAPYQ0JCTI012GvOgXR1Lw5sZWWlGionP25Xc+WY9k0bVZDY7IcddFtoaCjAWIsVNXQ1RwcMGPEuKNooWMPc/RFnq4WEhNia+gwGilps3zLASlXsBRCFcYeEhNQ0xzVHNDIYDF2Li4s36vV6dJt3STpHriBGA+FeLsPNqlQqd0RHR/8mMDAw3+WDnVxgt9uDdDqdEM/k6Q+dA6yvn59frbvM3NP3eeM+pm2KH+VogWjPk9YvyEF2I12PvyVlZWWCIhEVFVXrjTE29xkQlmysDZYOLgmCHk9zkZaWlgIEC9a10NBQgR1VVlaCtUm1Wi0yPFsdMHF8FLSXc/OjxBKebDdZUdykp+tD6uaDmnmZ03F4sg5IfoBOSAkwpCSK9rHAahoZt0BjTy3bzaSH27ezs008DdYnOfZzdXU1KdmC9RhzNRgMgreIFGj2uSCj9Xq9vV27dlVtZUO4TQDfhT4K3M4UsNvtmmvXrr1SU1MzSyKRCAUkG/uhrC7eNYfrKa4A3yPGzGw2W+Vy+bft2rX7jVKpRB8qj7L8bmfa+sbuo4CPAj4KtBQFmD3jv/5d34+PAj4K3BoKwE1YVVX1Pzdu3HjHarW2c2RJcvaZOAicgSerVCqtDQgIuBoUFLQzJCRkiVKpLLg1s/G9xUcBHwV8FLi7KOADTXfXevtm2wYoUF9fn1BcXLy6vr7+IVfuN8pg4+sGISZCJpPVSKXS0qCgoHyZTLZPLpcfDggIOBsUFFTiDTdiGyCTbwg+Cvgo4KNAm6OADzS1uSXxDehOpwDihm7cuPHbysrK39hsNspecVg7hi9+KpVKDTKZrFKhUBQEBgbulkql3wYFBZ0LDAysuF1ih+70tfXNz0cBHwXubAr4QNOdvb6+2bVBCrC2KgNLSkpWm83mJBoiWZ0oXol9boZVSaFQFCsUin2BgYF7lErlSWT0MaDkVppxGySDb0g+Cvgo4KPAbUcBH2i67ZbMN+A7gQJ2uz3sypUrbxsMhtFIAxcVu0Q5Bp2/v3+RSqXK9ff3/zIoKOg7lUp1FTUZ3a3HcifQyTcHHwV8FPBRoC1RwAea2tJq+MZy11AA1qbS0tIJlZWVf7RarV2QFuvv76+Xy+WVcrn8vEKh+DIwMHC/RCK5oFarK2+HtP27ZvF8E/VRwEeBu5YCPtB01y69b+KtTYG6urp7iouLn/Pz8+spk8nqFArFYYVCcRBtWwIDA8slEklda4/R934fBXwU8FHAR4H/TwEfaPLtBh8FWokCdrs9sKysbBiKBiqVyqsqleqKz/3WSovhe62PAj4K+CjgBgX+Dy6IOlPo23XxAAAAAElFTkSuQmCC;opacity=50;" vertex="1" parent="WVwV5zhWrvc61_-DkQyH-112">
          <mxGeometry x="78" y="58.5" width="88.91" height="64" as="geometry" />
        </mxCell>
        <mxCell id="WVwV5zhWrvc61_-DkQyH-116" value="" style="group" vertex="1" connectable="0" parent="WVwV5zhWrvc61_-DkQyH-112">
          <mxGeometry x="744" y="234" width="177" height="34" as="geometry" />
        </mxCell>
        <mxCell id="WVwV5zhWrvc61_-DkQyH-117" value="" style="shape=image;html=1;verticalAlign=top;verticalLabelPosition=bottom;labelBackgroundColor=#ffffff;imageAspect=0;aspect=fixed;image=https://cdn1.iconfinder.com/data/icons/social-media-rounded-corners/512/Rounded_Facebook_svg-128.png" vertex="1" parent="WVwV5zhWrvc61_-DkQyH-116">
          <mxGeometry y="4" width="26" height="26" as="geometry" />
        </mxCell>
        <mxCell id="WVwV5zhWrvc61_-DkQyH-118" value="" style="shape=image;html=1;verticalAlign=top;verticalLabelPosition=bottom;labelBackgroundColor=#ffffff;imageAspect=0;aspect=fixed;image=https://cdn1.iconfinder.com/data/icons/social-media-rounded-corners/512/Rounded_Youtube3_svg-128.png" vertex="1" parent="WVwV5zhWrvc61_-DkQyH-116">
          <mxGeometry x="74" y="5" width="25" height="25" as="geometry" />
        </mxCell>
        <mxCell id="WVwV5zhWrvc61_-DkQyH-119" value="" style="dashed=0;outlineConnect=0;html=1;align=center;labelPosition=center;verticalLabelPosition=bottom;verticalAlign=top;shape=mxgraph.webicons.linkedin;fillColor=#1A1A1A;gradientColor=none;aspect=fixed;" vertex="1" parent="WVwV5zhWrvc61_-DkQyH-116">
          <mxGeometry x="107" y="5" width="25" height="25" as="geometry" />
        </mxCell>
        <mxCell id="WVwV5zhWrvc61_-DkQyH-120" value="" style="shape=image;verticalLabelPosition=bottom;labelBackgroundColor=default;verticalAlign=top;aspect=fixed;imageAspect=0;image=data:image/png,iVBORw0KGgoAAAANSUhEUgAAAgAAAAIACAYAAAD0eNT6AAAACXBIWXMAAA7DAAAOwwHHb6hkAAAAGXRFWHRTb2Z0d2FyZQB3d3cuaW5rc2NhcGUub3Jnm+48GgAAGEdJREFUeJzt3XvwbWdd3/F3CPdcgEYQFEEQJIQQ1FKNVlq5/lG1lQpVa2mxWoKtl3rBttOZaqdjR2esFsULRgveKNYWbcs4TkuIWCuxgrfWNojgAYcCYiDmgiYkOf1jJSUCSc7vt9bea6/f83rNfCcMc9azn/09Z/b6rGfdCgAAAAAAAAAAAAAAAAAAAAAAAAAAAAAAAAAAAAAAAAAAAAAAAAAAAAAAAAAAAAAAAAAAAAAAAAAAAAAAAAAAAAAAAAAAAAAAAAAAAAAAAAAAAAAAAAAAAAAAAAAAAAAAAAAAAAAAAAAAAAAAAAAAAAAAAAAAAAAAAAAAAAAAAAAAAAAAAAAAAAAAAAAAAAAAAAAAAAAAAAAAAAAAAAAAAAAAAAAAAAAAAAAAAAAAAAAAAAAAAAAAAAAAAAAAAAD256y1J3C7h1fPqD6rurB6bHVBdW51nxXnBTDHh6obqmuqt1dXV1dVV1bvWXFesGoAuKD68uoF1VNXnAfAGn6t+onqVU0BAfZqjQDwyOqbq79XPXCFzwc4JDdWl1ffVb1r5bkwkLP3+Fn3qb62ek31l7K0D1B13+rS6sW3/+83VreuOiOGsK8VgCdUP109ZU+fB7BVv1l9SfW7a0+Ek+1ee/iML67elJ0/wJn4tKbfzOeuPRFOtl2fAnhh9ePV/Xf8OQAnyf2q51V/2BQGYHG7DACXVT/SflYZAE6ae1VfUL2/+h8rz4UTaFcB4IurV2TnDzDXc6rfbnqGACxmFxcBPq56c3X+DsYGGNEN1V9ICGBBSx+h37f699n5Ayzp3KYHBrl9msUsfQrgJU1P9wNgWY+orqt+Ze2JcDIseQrgE6u3VOcsOCYAH3ZD9anVu9eeCNu35CmAl2TnD7BL5zY9Sh1mW2oF4ILqnXm2P8Cu3Vg9Oi8QYqalVgC+PDt/gH04p/rStSfB9i0VAF6w0DgA3LO/vfYE2L4lTgE8oukVlmu8WhhgRKebfnvfu/ZE2K4lVgCenp0/wD6dVX3e2pNg25YIAJ+1wBgAHM2la0+AbVsiAFy4wBgAHM0T1p4A27ZEAHjcAmMAcDSPX3sCbNsSAeDBC4wBwNH47WWWJQLAuQuMAcDRnLf2BNi2Ja7eP73AGAAcnTuwOLalXwcMAGyAAAAAAxIAAGBAAgAADEgAAIABCQAAMCABAAAGJAAAwIAEAAAYkAAAAAMSAABgQAIAAAxIAACAAQkAADAgAQAABiQAAMCABAAAGJAAAAADEgAAYEACAAAMSAAAgAEJAAAwIAEAAAYkAADAgAQAABiQAAAAAxIAAGBAAgAADEgAAIABCQAAMCABAAAGdO+1JwDAak6vPYEB/HF1Y/UH1Vuq36quvP2/t604r85aYAz/gADWMfc33O/3et5Xvbr6serNa0xAAADYLgHgZHhD9e3Vf93nhwoAANslAJwsV1T/oOlUwc65CBAADsMzq9+ovmofH2YFAGC7rACcXD/ZFARu2tUHCAAA2yUAnGxXVl9UXbeLwQUAgO0SAE6+q6pnNd1KuCjXAADA4bq0elU72F8LAABw2P5q9U+XHtQpAIDtcgpgHLdWT6/+21IDCgAA2yUAjOV/V59WfWiJwZwCAIBtuKj6uqUGswIAsF1WAMbzR9Unt8BdAVYAAGA7Pq76u0sMZAUAYLusAIzpd6qL5w5iBQAAtuVJ1VPmDiIAAMD2fMHcAQQAANiep88dwDUAANvlGoBx3Vid14y/QysAALA951SfOGcAAQAAtunxczYWAABgmx48Z2MBAAC26fw5GwsAALBN95uzsQAAAAMSAABgQAIAAAxIAACAAQkAADAgAQAABiQAAMCA7r32BKjqj6srql+u3ladur1O9+G/owuqi6uLqkuqZ93+/3HP9He39BcGdVodq66vXlZ9TscLYveunl39cPX+A/g+h1b6q78j1Fxrz1/Nqxd99F/pfq3dgK3Vu6pvaeYznD/C+dU/qz5wAN9v7dJf/R2p5lp7/mpeCQAbqVur72vms5vvwYOq76xuOYDvq78nq/T3MGuuteev5pUAsIH6P9Wlx23wMTytD5+DHaH0V39HrbnWnr+aVwLAgdcVLbtceqYeVP3cMea7tdJf/R255lp7/mpeCQAHXK+o7nv81s52dvXK1u+D/m6z9Pfwa66156/mlQBwoPWK6qwZfV3KvarLW78f+rut0t9t1Fxrz1/NKwHgAOsXm/me5oXdq/r51u+L/m6jfjH93UrNtfb81byaFQA8CXB5V1dfVN209kTu5LbqBdU71p7IAvR3t/QXBiEALOu26iuqa9eeyMdwTfW86kNrT2QG/d0t/YWBCADL+oHqqrUncTfeVP3Q2pOYQX93S3+BI1n7HMih1Lva7UNSlnJB09HU2v3S38Mq/d1mzbX2/NW8cg3AgfjX1XVrT+IMXFN9+9qTOAb93S39hcEscZvPEil0626sHtX0UpMtOL/6v9U5a0/kDOnvbunvds39Dff7vW2XNb1Q61isACzjFW3nx7OmI72fWXsSR6C/u6W/MCABYBn/dsGxnlJ9f9Pz1z9Y3VD9r6Yl2osX/JwfXXCsXdPf3dJf4FjWvghi7bq2470P/SM9oPrBpreu3dVn3dL0DvYlHs96Vtu4mEp/9fdj2Up/d11zrT1/Na88CXDles38FvaApqevnelnXtEyP6KvPcJn6u/R6a/+7rrmWnv+al65C2Blv7TAGN9T/eUj/PlnVP9qgc/9lQXG2DX93S39hUEJAPP9/sztL+l4Ke6rqyfN/Ow3z9x+H/R3t/QXBiUAzDf3B/Syjncrz9nVV8787PfO3H4f9He39BcGJQDM986Z2z9zxrbPnvnZ18zcfh/0d7f0FwYlAMx388ztP3nGto+e+dlb+AHV393SXxiUADDfElczH9fZM7e/dZFZ7Jb+7pb+wqAEgPnuM3P7OedgT8387PNmbr8P+rtb+guDEgDme/DM7V8/Y9srZn723Lnvg/7ulv7CoASA+S6auf3Lq9uOsd1tzXgJxO0eP3P7fdDf3dJfGJQAMN/c55v/dtOP6FH9YNMz1ud4wszt90F/d0t/YVACwHxPXmCMb6iuPMKfv6L6pgU+97MXGGPX9He39Bc4trWfhbx2/VHzL6Squl/1A939y1RubXqZyv0X+Lyzmh6ksnb/9Fd/j2Mr/d11zbX2/NW88jKgA6jnzO7ihz25+r7qd6o/qa5vWir93pZ9neqlrd83/T2M0t/t1lxrz1/NKwHgAOo450DX9v2t3zf9PYzS3+3WXGvPX82rWQHgOM/w/khL/CPcug80PRHtupXncabOqd5RXbD2RM6Q/u6W/m7X3N9wv9/bdlkz7qZxEeAyHlJ9/dqTOIIXt60fT/3dLf2FAVkBWM4HqsdW1649kXtwXvW71cPXnsgR6e9u6e82WQEYmxWAA/GQ6p+sPYkz8K1t88dTf3dLf4EjW/siiEOqW6qnzWvnTn1G09vf1u6T/h5m6e/2aq6156/m1ayLAK0ALOvs6lVNR1OH5tymuS1xz/da9He39BcGIgAs75HVK6p7rz2ROzm7+qlOxqNT9Xe39Bc4Y2svgRxq/Uzz33e+hLOqy1u/H/q7rdLfbdRca89fzSsPAjrgurx1V1nObrpCdO0+6O82S38Pv+Zae/5qXgkAB16/0Dr3LJ9f/cdjzHdrpb/6O3LNtfb81bwSADZQp6qnHrO/x/EZ1VsX/g6HXKfSX/0ds+Zae/5qXgkAG6kPNT1z/WHHa/MZeWD1bdVNB/B99fdklf4eZs219vzVvBIANlbXVN/YtMS5lHNuH/PdB/D91i791d+Raq6156/mlQCw0bqhemX1uR3vcZ5nNb0S9WVNP8prf59DK/3V3xFqrrXnr+aVtwGeAO+v3nh7vbl6T9OP4jVNT2c7t3po9ZjqwqYfzqe32+XYk0R/d0t/1+NdAGOb9S4AAQBguwSAsXkZEABwNAIAAAxIAACAAQkAADAgAQAABiQAAMCABAAAGJAAAAADEgAAYEACAAAMSAAAgAEJAAAwIAEAAAYkAADAgAQAABiQAAAAAxIAAGBAAgAADEgAAIABCQAAMCABAAAGJAAAwIAEAAAYkAAAAAMSAABgQAIAAAxIAACAAQkAADAgAQAABiQAAMCABAAAGJAAAAADEgAAYEACAAAMSAAAgAEJAAAwIAEAAAYkAADAgAQAABiQAAAAAxIAAGBAAgAADEgAAIABCQAAMCABAAAGJAAAwIAEAAAYkAAAAAMSAABgQAIAAAxIAACAAQkAADAgAQAABiQAAMCABAAAGJAAAAADEgAAYEACAAAMSAAAgAEJAAAwIAEAAAYkAADAgAQAABjQEgHg5gXGAOBobpq5/f0WmQWbtUQAuGGBMQA4mutnbn/eIrNgs5YIAB9YYAwAjubamdsLAINbIgC8bYExADiat87cXgAY3BIB4OoFxgDgaN4yc/uHLzILNmuJAHDVAmMAcDRvnLn9ExaZBZu1RAB4fXV6gXEAODOnqzfMHEMAGNwSAeC91ZsWGAeAM/OrTb+9cwgAg1vqQUA/sdA4ANyzn5y5/b2qT19iImzXUgHgVdWNC40FwF27sXr1zDGeUl2wwFzYsKUCwDXV5QuNBcBd+6Gm39w5nrHERNi2Jd8F8F1ZBQDYpeubfmvnEgBYNAC8q/oXC44HwJ/1z6v3zBzjQdXTF5gLG7f02wC/u/qNhccEoH69+t4Fxvkb1QMWGIeNWzoAfKjpH9d1C48LMLIbqr/Z9Bs71wsWGIMTYOkAUPV71QurW3cwNsBobq2+vPmP/q16XPW5C4zDCbCLAFD1s9Xf39HYAKM4Xb24+k8LjfeS6qyFxmLjdhUAqn64+orqlh1+BsBJdWv11dWPLDTeI6u/s9BYnAC7DABVr6ye33TrCgBn5rrqr1cvX3DMb67ut+B4bNyuA0DVz1V/PncHAJyJX2/6zVxq2b/qU6rLFhyPE2AfAaDqrdVnVv8wqwEAH8sHm+7z/+ymi6mX9NLq/guPycbtKwDUdC3AS5veQPU9eWogQE2/hd/ddJT+bdXNC4//3OrzFx6TE2CfAeAO766+sXp09bVNr7U8vcI8ANZyurqq+prqUdU3Nf8Jfx/LQ5oOvOCj3HvFz76metnt9bCmR1NeWl1YPaZ6aHVudd+1Jggw081ND/F5X/X71dVNO/4rqz/c8WefVb2i+qQdfw5szr9sSuHq7uu2piuRzztem4GVfEPr/36o3daLmmHNFYC1PWntCWzAO6qvql639kSAI3la9R1rT4LDtsY1AIdCALhrp5se5PTk7Pxha57UdPu106fcrVFXAB5QffLakzhQjvphux5Z/Xz159aeCIdv1BWAJ1Znrz2JA3O66Vy/o37YpkdVV9z+X7hHo64AWP7/sxz1w7ZdVP1CrvjnCEZdAbho7QkcCEf9sH1Pq345O3+OaNQAYAVgOup/TtOrRj2eGbbnrOrrm8L7Q1aeCxvkFMB4TleXN70ZzI4ftun8ptcEP3/tibBdIwaABzbuHQCnms71X7HyPIDje27T430t+TPLiKcAnth43/uO+/ovyc4ftuqx1Wur12TnzwJGXAEY7QLAUznqhy17ZNMpu8vySl8WNGIAGOX8/x1X+H9LzvXDFj2uekn1wjzVjx0QAE4m9/XDNj2o+mvVC6pnNl3pDzsxYgA4yacAHPXDttyrekrT69CfWT0jy/zsyWgB4JxO7h0Ap3KuHw7Nfatzqwc3vVL746tPrS6snlB9enXBarNjaKMFgJN4B8Ch39d/eu0JAPDRRgsAJ+38/6kc9QNwDCftaPienJQA4L5+AGYZbQXgJFwAeCpH/QDMZAVgOxz1A7CYkVYAzq0evfYkjulUjvoBWNBIKwBPbHsP1XDUD8BOjLQCsLXl/1M56gdgR0ZaAdhKAHDUD8DOWQE4LKdy1A/AHoy0AnDItwA66gdgr0ZZATi3etTak7gLp3LUD8CejbICcFGHdweAo34AVjPKCsChnf8/laN+AFY0ygrAoQQAR/0AHAQrAPtzqvrK6vUrzwMAhlkBWPMOgDuO+p/cmDv/m9eeAMAJddOcjUcIAOdWn7TSZ5+qnlVdVt2w0hzWNur3Bti16+ZsPEIAeFL7vwPgdPX9jXvUf2cfWHsCACfUtXM2HiUA7NOppqP+r8nRb9Xb1p4AwAn11jkbjxAA9nX+/3T1suriHPXf2dVrTwDgBLqxetecAUYIABfv4TNONR31f23TXwofdtXaEwA4gd7YdOB5bCMEgCfucGxH/ffsymb+IwXgo1w5d4CTHgDOqj5hR2O/vXpGjvrvyXuqN609CYAT5rVzBzjpAeB0yx993nFf/1OqX1x47JPqJ9aeAMAJ8lvVb88d5KQHgJrOzy/l7dXTG/u+/uN4VVZJAJbyo0sMMkIAWOKZ+3ec67+kesMC443mmurytScBcAK8NwHgjP1QdduM7d/WdNTvXP8835X+Acz1ndUHlxjo7CUGOXDvrR5RPfWI293WdNT/vGY+bIGqrq9uqZ699kQANup3ml4qN+eg9v/b9yNy13L/pismn3mGf/5tTU223L+s+1S/Wn362hMB2Jhbq8+rfnmpAUc4BVD1p9XnV9/X3SenW6qXNl3hb+e/vA9VX9q0GgDAmfvWFtz51zgrAHf2pOpFTasBj2m6wO/t1euql1dvWW9qw3hu9TONcQoKYK6fq764hZb+7zBiAOAwvKgpcAFw165qOmBd5MK/O3MExlreXL2j+oLGORUFcBSvb/qN3MlzZwQA1vSb1f9suj7jfivPBeCQ/FjTNVOLH/nfwSkADsHjq5/O3QEAH2x67sy/2fUHWQHgELy/6clW76/+YlYDgDG9tvrCFnjT35kQADgUtzU9I+CVTdcEXFLdd80JAezJlU3PnvmX1bX7+lCnADhUF1RfVv2t6jPzbxU4Wd5bvbr68erX15iAH1W24GFN72O4tLqw6fkND63OzSoBcNiubbqK/w+qq5te43vl7f9d+nX1AFDV86v3Ne1o1F3Xjx+3wQBwqD6+6Ulya+9kD7l+7djdBYAD9/ymO23W3tkeYl2fU+IAnGCPbnq63No73EOsT5rRVwA4eGc1vYvjhtbf6R5SPXtOU7fIM9gBxnK6+uGm154v+nrZjXvi2hPYNwEAYExva7q99h9XN688l0MwXAAAgCc3PYxm7WX4NevK2V0EgA26T/Vt1S2tvzNeo94zu4MAsGGXVm9p/R3yGnXBAv0DgM16QPUd1a2tv1PeZ33OEs0DgK17VvXO1t8x76u+cpm2bYO7AAC4K6+rLm66bXAEF649AQA4NH+lelfrH6Xvsl67WLcA4AR5aPUfWn9Hvav6veVaBQAnz/Ora1p/h7103dp0ASQAcBceXv3n1t9pL12XLNkkADiJ7nix0PWtv+Neqr5k0Q4dMHcBAHBcp5vuEHhy9YaV57IU7wQAgCO4YzXgxtY/ip9Tr166MQAwgouqX2v9Hflx67eWbwkAjOHe1T+qbmr9HfpR60+qs5dvCQCM45LqN1t/p37U+pRdNAMARnL/phcLbek1w5+/k04AwIA+p/rd1t+5n0l98456cFDcBgjAPvxK9WnV9zbtZA+ZlwIBwA48p/qD1j/Sv6v677v76gAwtgdVL2/9nf3Hqg/s8HsDANXzqve1/k7/I+vjd/mlAYB6WPWzrb/Tv3N93i6/MADwYc+v3t/6O//T1Yt3/F0BgDt5VPW61g8AL931FwUA/qw7Xix0Q+sFgP+y828JAHxMj61+qXUCwDv38P0AgLtwdtOLhf60/QaA26rz9vD9AIC7cXH15vYbAp66l28GANyt+zStBtzcfgLAC/bztQCAM/FZ1dXtPgB8+76+EABwZh7Y9GKh29pdAHjN3r4NAHAkz6je0W4CwBv3+D0AgCM6v928WMhbAQFgA76wenfLBYCf2u/0AYDj+rjq37VMAPiKPc8dAJjpy6prOv7O/w/zICAA2KRPqH6+4wWAF+5/ugDAUu54sdB1nfnO/7tXmSkAsLjHdM+vGb6h+rq1JggA7M5zqp+sTlU3Na0MXFV9a/WI9aYFAAAAAAAAAAAAAAAAAAAAAAAAAAAAAAAAAAAAAAAAAAAAAAAAAAAAAAAAAAAAAAAAAAAAAAAAAAAAAAAAAAAAAAAAAAAAAAAAAAAAAAAAAAAAAAAAAAAAAAAAAAAAAAAAAAAAAAAAAAAAAAAAAAAAAAAAAAAAAAAAAAAAAAAAAAAAAAAAAAAAAAAAAAAAAAAAAAAAAAAAAAAAAAAAAAAAAAAAAAAAAAAAAAAAAAAA7ML/A8BnHdZd4FplAAAAAElFTkSuQmCC;fontColor=#808080;" vertex="1" parent="WVwV5zhWrvc61_-DkQyH-116">
          <mxGeometry x="143" width="34" height="34" as="geometry" />
        </mxCell>
        <mxCell id="WVwV5zhWrvc61_-DkQyH-121" value="" style="shape=image;verticalLabelPosition=bottom;labelBackgroundColor=default;verticalAlign=top;imageAspect=0;image=data:image/png,iVBORw0KGgoAAAANSUhEUgAAAUIAAAEWCAYAAAATsp59AAAAAXNSR0IArs4c6QAAAARnQU1BAACxjwv8YQUAAAAJcEhZcwAADsMAAA7DAcdvqGQAAFBxSURBVHhe7d159F1VeT/+Y23tYG1pAbUWFAXCGJnCZFGGIASSyBAmgVJZhdbSdq0Oa3X1z9+//aN1dXVVEViCoUAIBEIgzCFQFZChRIgatUqtiBXoaO1s88trm50vhXySs+/d59577n3ea511P8O95+5zzt7v/X6G/ew3bN6CZobh8h3f//73m3/6p39q/uEf/qH5x3/8x+bf/u3f0vEv//Ivzfe+973mP//zP5v//u//3vqpQKAf+LEf+7Hmx3/8x5u3vOUtzc/8zM80P/VTP5WOn/u5n2t+/ud/vtlll12aN7/5zc0b3vCGdMwqZoYIM9khtldeeSUdL730UvPyyy+n13/9139t/uM//mPbgfT+53/+JxHgf/3XfzU/+MEPmv/93//derZAoB/4kR/5keaNb3xj86Y3vSkR4o/+6I8mcvyJn/iJbcdP//RPN29961ub3XffPb3utttu6UCcmSSnHVNLhC4LeSEzBzJDeH/3d3/XfOMb32i+/vWvN1/72tfS61//9V8nggwEZhEIb++992722WefZt99900/v+c972ne/va3J2JEogjUgVSnkRinkggRIEX33e9+t/nWt77VfPWrX02kR/1Rgkjvn//5n9ORf0aUgcAsAtEhw5/92Z/ddvidKqQSkeO8efOaPffcs3nb296WFCVCnCZMDRG6DOSX/Xr8fJTfpk2bmqeeeqp5+umn099C+QUC7YAM+RKPOOKIZsGCBc3++++flKK/+R9fI1KcBoU4FUToEpi/FODGjRubDRs2NM8880z6HfH9/d//fTqovgh4BALtgOSoxV133TUdyI8iPOyww5pDDz20Ofjgg9PvTOa+k2GviVDwQpBDtJfvj68PAVJ/Tz75ZPpfIBCoB4GVI488MqlEhMivyJco+ux/gjN9RK+JUESX6Yv81q1b13zpS19K/j7E6JVKDAQC9UD98SEiPq8HHnhgs3DhwkSK++23X4pC9xG9I0KmLRP3hRdeaL75zW82zz33XCLCz372s+n3QCAwOrzrXe9qjjvuuESE8+fPT7/vscceyaRmWvcFvSPCHAi58847mwcffLB5/vnnmxdffHFb0nMgEBgdcrL2O97xjmavvfZqPvjBDzZLly7dFlDpC3pDhPx9zF0KUDDk8ccfT0rQSpDwBQYC4wX/oJUqlOExxxyTgikUIvPZ/yYdvSFCprBgyMqVK5sVK1ZsW/EhYBIrPgKB8UKQxJFXsFxwwQXNeeedl4IpTOVJxxv/vy3Y+vNEghksGfrRRx9t7r333uaJJ55I5jBfIQLsmWUfCEwljEPj0bi0RNXPxq7fM0H+5E/+5NZ3Tx4mXhFaFfKXf/mXiQTXrl2bbnIgEJh8iCAvXry4WbRoUfOBD3wgrU6ZVEysIuT7e/bZZxMJPvDAAylRWlJ0mMGBQH9AEfLtW/YKVqNMojKcOEWY5bViCPfff3+zfv365pFHHkk3MxAI9A8CJscff3xz4oknNqecckoq6iC1ZpKSrydOEYoAU3+f+cxnUnqMKDFfQ55RAoFAv0BrqQGgDB7yy0nZgiqTgomhZDfr3//939NSOUUSqECvf/M3fxOVYQKBHsP4NY5fPa6Nc+N9UgzSiSFC5rBo8Oc///nmoYceSmuFwxwOBKYHxrNxbXwb5zn7YxIwEURoxrA+OAdHJEz/7d/+bZoxAoHAdMB4Nq6Nb+PceDfuJ8HiGzsRksaWx1knTDbfd999STYHAoHphPFtnBvvxr3xP24TeexEKEr85S9/OQVG/uqv/irNGJyqgUBgOmF8G+fGu3Fv/I87LW6sRGgWUCpL5Zhrr722+cpXvrL1P4FAYNphvBv3xj8eGKcqHCsRqhojgvTFL35xm0QOBAKzgewSM/7xAD4YF8ZKhJKm77nnnlRMQfQoVo0EArODvHjC+McD+GBcGAsRqhwjlE4aix7ZaW5S8okCgcDoYNwb/3gAH+CFcdQVHRsRWkuszL4VJN/+9re3/icQCMwajH88gA/wwswQoUTKu+66K0WLAoFAAPABXsAPo8ZIiy74Kn4BF3vNNdekzZbsPdwGtgt0WJ84SWsUu4D7JIrmCN9pYFZgz2SbQV122WXNkiVL0rrkUW0TOlIitPBaAYVbb721+fjHP54SK9tuuK62mRI+thI8+uijt/51+uDhy8C3NpPzWD3G2JQ+MAuwx4mtQa+44ormnHPOSfueGPOjwEiJ8KWXXkrVpm+55Zbm6quvTsTYFm6IG3XWWWelEuBvfvObR3aTRok3vvGNKa1ASoH1mBJOOZMtQxrhowoExgJj+vLLL2/OPffcZt99923e+ta3bv1PtxgpETKFFVl1GOAlTlGle9QwU9Ps1FNPbRYsWJBk9LSBKcAktgbTRvU333xz2qSKQzmq8ASmHdxeJ598ctoNzzGqMT6SeoS4Vj1BzlAl96mdV155pcj35b0Iwt4HfrZ9oD1UzSB2yWI6T8vhmuwI5lptTaBGo2TTcUTTAoFRghBgFXERUYQ2fsrxgS4xkqgxEsy1BhVaZeoNWmjVGkU5R4899ljzhS98IZXvn1b8wi/8Qtoj9oQTTkiugEBg2oEX8AOeyDULR1GUeSSK0MV897vfTcto1q1bl9TgoGAeUkhMZTdol112SerJDGImmSZwBXAY5zJlIsiCTeErnC1klZTdQ16HOZyDteFVX5q0rAT93fUefPDBzZ577pn2ONHeLjESIpQtLvqp2oRaZDWqyyAE5iLVxEx2s6YtrSabBExl+zwwk6lgLoLA7AApIC39O/fzYQ/uJOcyuTomDdr27ne/OwVLCJ2uLaKRBEukgtiISYDEgcRqwMNcuHBhc9JJJ6XDdoFmPOpwmsA3aPJwDwVP+FhF3wPTDYTFIuAn22+//ZL1o38PAxOrIS8z4eWXX07ChCk6aXDdgiYOGz7ttddeW//TDUZChDZj+vSnP50KMRrEJWkzOwLCE1wgof/gD/4g3TQzx7CdZdLgETlk3Iu833jjjc2KFSu2/jcwrUB8BxxwQPIRSxlDiMMOV2OGS0ngMmclPPHEE1v/OzlgBR100EFp97tf+ZVfSWO8S3RqGnto/A9Wj6guYRCbiWr5JJw/r7zI/sHddtstKcWuo0yjRDaRXaNrM5FQiTp0JFtPH5AVImAannbaaSllDCEyEf2d2eh1kMO5uVgeffTRtHeIyi+TujeQ/q2/H3744cn9lcdBF+jUhkRU/Fm57hifXhf+CJFjy/ZWr16dgjLDzpqTClsgWoZ07LHHNosXL04DJTB9MOFZPMAvjAi5fajDTATIbNBD4NLCBtbZ7bffnsblJAJP4ItcpxSPdDmuOyVCjecPVFGiS4esmcPN4jdDiCreiixPK0TSjjvuuOaYY45pDjnkkKQUAtODt7zlLckvZplZrTw6Y4QV8fDDDzcf+9jHkm+wD8Ab+AOPdBkknBoiRHx8aAIKiJBKrLEszbm1vavD+UvbKFLOXDjqqKOaI444onnb296WVERXZkNgNPD8mL2eLxV4+umnp59rPFdKUHBEDu51112X3FR9gDEyCiLs1Efo5otIuemWibmgLsFX6DuZAIIoco923XXX9HspkJPzMSNeeOGFbQ/Da40DUTt8h+gglLQzDxpqUAeXm6mjdNlZAt1Cf+UPPPvss1NhEX4xgb8aRCh1TbGTz33uc2lRQl/AJSBi7l7w/+exUhudRo0NeBEpKTOrVq1KaTSjgKU5TEdrFa1L5nAtTch0W6g1VXMpTekrnMy1kInWMkF+P4TGB1gKZCoif+edd6YJB3EH+gd9dPfdd29+9Vd/NREhJYgEhkVeomn8KXRCmPSpj0ibWbZsWcoIYQF15QbqlAjd8Jw7yGQdVSVqjmadiqP5/PPPT0RjRikFIpTAzJ9iJlVBtybcermPFpZTAkqMlUJHR9bcAZ/61KfSzB/oH/h73//+96cBTw1S+zVWU/CbEyPG3913351IseaE3jV+8Rd/MflLc05hV9VoOjWNpXZYM0ipiP6Mar9iTmFmLL+ZziS3kB+NiVFqJkstoLqQIVKkDh1m1mEPJrfzu0+ImwrQZqsI2sL7c902UTbn09H5VgKTD32T+8ZEyCe4//77b/P5DgNjQF/gkpK65tUY7Fu/0K+RnwAh0SCQ1AU6J0LkQbFQg7USqdsC8SpuyuTcZ599kr+l1MdgZmai6ED8b9b81szdy+uIPWDf5bXEJMrkjjyZDXyjXBDOGZh8cI0IeAmOfOADH0iTWslEOBe4pSxeEByhBk28yLFvyEToPrGcWHtdoFMiNBiffPLJpAjl941akvs+ag75IQuzr5uKPNo4oL2HokRQZmjnEJgw0zKb+fiGBYLNAR5EayA4kHZbVaCd3o/wfcYgcO0mAu0MTB70SYMaCTL9vJqshyVBz9tzlygtYVriNELsazqZ+6Rfv/Od72ze+973DuRHb4NOiRAJ8V15EAYn9TMOiKgy0c0q8+fPT6TjaItsflJriJDZLW+x5vWYNPhUmch5dQwCbgvXo9M4fBapMuGRbGDyQPUz9wT0+LHlC9bwCVJ9ylfxC65cuTJZZIixw1BApzAxGAfuj8nCOOwCnROhbfqsa2ROjiu1gzqi4vhimI5ubMnMkpWhh+Jn18G/hwxrAalm08WszsylGLIS3Rm0y3spQ+aENiJsipMa6OtAmFbwd8loECAxOeuXw8Dz9ay/853vJCXosJaYAOnzs9enTe5EjIBSV1Hj8gS7AjAd+QUdNczIYeD7mQl/8Rd/MXDlFrORyNWiRYvSJjNIpybM3JY+yfeioqnEUuc285+JJQLNAc/5rjMFJguWz11wwQVpcNd4Pvq3iZR/WKrMmjVrkhDpO0bFIZ0qQiapga0WoYc0bn8VlaQdlJZZhjKkntqCMsuqkEL0ygzJSq4GtNGRI78Il0nuuxw7Q1aG2upz2mZA5A4VGC+YeMxhk6m8OJZJiZtme6D4WFyWz0mRsenXtKy515eNORMH9cxt1AU6VYQehAHoGPdD8f0Ulko4zPX169cPlFiKaCR5Kg105plnduK85Yc0qyuRJNqHEEvvHwLVcSSWczJ3lX8VKINCGZdeemnzoQ99KFkYNdRg7ttr165NJdr0mWnBqDikc0UofC+CxQfmYiYBiEV7KCa+Gaqw1FGtA7sepqgZXXpQ7evTpqyi5RhSsaXQNiSYJwGISPLowT+tth6/oIRpuYLZuhgG+rLAyH333ZcCk5bPsSi6JI1RwjjT760Wk17US0U4idBx+FHsn2IDKNFkJIEc2nYeDweBWgOpYCblZXavEfV7NZjddv3jXqASmbmlHZwCkajLZ2h1DeIOjA6IzkC2QiJvUSlabPId1iTWl5nETGE+QYJDlkBMdOWYSUUICEUn0pnMzlkdlnRO7/UZMzBydI3Iqxa0Ufuc20FBaGtJGw1Eh8COwYj0pdUERgOEd9hhhyU16KBspDd5nsOC791kLkJsaWXuz9ME9ykUYYcQoZXorSNJ+rYCpTQy5QEJ5yspzuTJCZ+DmLDbg04tBUaHt/tfruBTGpxBhLLyLea3MT5lWBIkCpQjK0EDV/4bEmRB+N2ENgz0CylR0tL0C1aNtJkIhg2OmVWEGTqVNbraJu2E6Ug96chtoWMjRB1RbiGikrdYCxQnJWdgScT1WppYSkXmdB/qF8GKLAa6ASXDBDY5ihDnHLhhSRAE+aSAWTrHN8gKGfWqrVFhVIpw5olQB8rmrJtMKemwJeanB0UJIiyfQ1o6K9O2xjUja2aPcyNoplUu2NnWxPJZ783J5HyO1KU2T5s5NW6YcEyo1LfB+773vS8N5GFJ0LMyybJkjCvBEUnT00qCEEQ4YnAyM4/d9EMPPTR12hJVCAiKCkCCVp4gmFIzdkegOFUQQWQy7bURsbWF6xHQQfZ+diBExB2oB/2AL5crwsE3q18NC8/fmFLW7vrrr98WHJlmBBGOGAgLKTAb5eAhmdIcQaTEdNVhkSDF5R7UgjYyaXUMJGbAWZucSa0NXJfPe6VcJFsz57U3oo11wGds0IoQ21JhWBJkWXg20p+MJ35B9TH5uacdoyLCmQ2WvBZIGllb2iYpVWBiEHhwTKGLL744PbwuILjziU98Ir0aDKWmLVXIH8pvZUc8AzfSaupBqtLll19ebS/e3DcFRa666qq0giQmrboIRfgaaCOFZBkeXyFiKyEJyswMRh06jw5LIdacvSlD56ZetY8yFDxpqwq9jyLMqtA1C5xoJz9Uaa5i4IdQCf2XfumXUnDEq37j+QwLrpa85YWcUpbGrCAU4ZjA9FRIVseTnzXIciXkgpiWLl3aXHLJJWlJXm0gLINCeX7tRV6lBMb0p14VBZXaYfVDjYE7q7C16hVXXJGWNSJBE00N6IMKceiPs2AOjwOhCF+D7I/xKlJLGeY1oSW+HlFaJihSzKar89WK8FF1OeIr+JGVoaMtnEP7tNW1eUZW3UxzFLILyMtkDi9cuDCpllzura1Cnwv6C3PY2njmsGcjODJLij0U4ZjBMf3AAw80jz/+eEpcLY2sIhckyhdHGTKXaj5Eg8GgkEjLeW4Xu0E3xzKQzzrrrKQMS4g08EOonrxkyZK01FLWgOdeA6wTJOj5yhv0e/gGu0Eowp2A6tIB+QtFaM1QJeZj9scB357zmem91oLB4d5mc8xriXoFxI1cmct+lv7Tx+c1SrAUrNhBgNQgFwi/7bBKUD+RypX9gs8++2zqgzX7TF8QinACgAiYJsobKdKgsgcfTYlpwjyW/CyCaJmVdacUA5O0BgwOgQ5JtlIqtDMnSrdtJ+JDoPyEF110USroivhLyXRWkF0KJkYmsci7FSQ5yX0YmNQEwmQv5OfJOpn2fMFxIxRhC2i3JXMIhhlZsgFUhpmNWkBOzpMjvyWkuiNoI5JGgJSKqDUzt0S9ZkIEbfXMKMPA/wX/nz5gDbG6gia3GoEmz1Auq+CXAqv8glwf+sqsYlSKMIiwBZCL9cjME2WtrBowGEqigpShwYI8pakgQUv73JMaZKiNmWBz0IRi8b0Irg1yp0OiBrrz5RqGzh/4oRrkPqDwmcSKbegTw5IgJWiM8Ecrq2UdsVzWWSZBCCKcUDBRkAIHeenKE/BQmVDO476I+ro3teB8ufI2n5WIcmkEU+ejCEWPPTNtnYb9L4aFe8gkdl/VobRypNbuc3n53OrVq1OqjAixv806gggnEGZt0WPXYQDw9SGZtooLvJ+iRC4Uplf3qRYoCOYVaB8ipAy1sS0Z5oAL6ISUYS4iMctRS/eC+rMi54wzzkh5g6WTzPbgvhojlCB/tEhxkOAPEUQ4gdBhKa58HQiDz9BgaIs8aBCUQYW07D1bG/yF6hgycw1YqqXUfNNGpI38kaHBOcsJvQJIy5YtS4fAEtVcMgluD/qU47bbbmv+/M//PPkHgwT/H4IIJxA6LLOYKmI2IkJE4UGVKAPv834PVRAG0eRoYS1oH5LlK+Sb1EYDuQQ+Y7DnhHDmMULMg3dWgOyYw4IjckIpQm6RGpF/fmIRYnmg99xzT5DgazAqIoz0mQEgD3Djxo3JlHHw55SSPBJFUtakfvSjH02qrQsYZNddd12qWzcIdER19ZSTkjOHGGul/vQFnpWliBdeeOG2KuT+VgPSnpYvX95s2LBh618C40AowgHgOlwPVcQnZ8aiDPPs1QZUIaVhQBlYyJUaoL5qmp+UpnMjMMSLxPzcFtrpmihYKtM1U4XOOQvgC54/f35zyimnpDXEnjOXQVv1Pxeoa64LKTJWMFkVNMtuh7kQirAHkGPHnMmb2COIUiBBRValYjC7RKNrwt4W2mlvFn4oS7VKYdALvFgmeMEFF1Rv4ySDL9BzsQUnn27JJLIjIL5cV3DTpk0RlR8zQhEOAddDwVFJ/HwCExQE4mhrPmZl6P25dBdl6H7VyCHTNu10OLdk6+zf8n1toZ3Uq8/xk2qzaxb1nkbwp/ILWn8tTcZk5b4NqwSpPknSls+ZROUNGifTNjZqIRRhj8DPc+2116a0BykxpQSGVCzW54vji+KUR1g1ISHcci0DUKJuqQJBAMxjapC/UPqItJxphYRyWzYcddRRaQmd3M8aoNCpcj5be45YUxwkOH6EIqwIhOaa5eDZpwJ5lCgI7zX7UWrOQ8FRnDVz96g5kWqmbnb6lzr+vZ/SzAeXQI4s9x3uv/vCH3juueemFSSi7sPC/TFJSpWSNM1VYXKKFTs7RijCHkKBhhtuuCFtts1sRP4l8MBFZg1C61eZYyU5ijuDiYg/SkUTypAyEfTwd4TWBkiQ2bj//vunAIJUEuq1lEwnFSYx6txeI6effnoagMPCveXuULRD37AF57TvPtc3hCKsCB2eekMKzGOqaxDzkbL0WbNhrkNXE9pJbVKGoqAUD9+f720L70Uanilzj+JB/m0JdVIhjUmajMmIv7fknmwP7o++YM32ypUrm3vvvTftRFjD/zsLCEXYQzBzOMOZPzo89YUcSs1Gkcm8J+4BBxyQ/FVtgy9tQIloo6glZZIrH5dACgl/obw6EW8KETH2VRlS3vyAiPC0005LJvGwJAj6hOCI+02JK/Q7K6lHfUIowg6A+BALskAM1F1p2oVBiPwyCT7//PPVI7SeB1WovTYeYuKWRkUt3aMqkauUEM+5j6sj9t5777R0jrmfSZ0aGRYmwjVr1jR33HFHmhip50B7jEoRBhF2ANf6av8P85gD3kNtozJykCWrFPcNyTCnkEwt8xMBih47H7+YhGvkXUIA2qhzZgJkcgsC9AX5HosOi4bzzfKBDqvAPTNLHJGf4IhxgBRrBr5mAUGEPYdrRQpMZQMLEVKFHmpbIE2K0kGtIULpFjUHk3NpK7Vp8AvQlOQXZiBQqhJhCwj0BRQ3FaiuIBI0abnfpcr4tTDJSI/hIhGYshMdM7nvPtRRI4iw59DhkQvyQmgeqIeYTa42A817vJf5iUipTOWwkFet5VieifMx2RAAYtDxSpeRZWVI9ZgADPpJ9oW51re//e3JF2jFDEUo5an0urcH6UQCInyC69evT9Fi9yJIsBxBhFMC181URIqWaFGHFJcH3BaUGiLMPyMag6sWkJZzgnYhaxHTkjZm0uYP1WkFCJSUmlS4Ronr9pExwLQZmQ9LgmC1iDxB+xBLYjfJzGLfr4EgwimBa0aCyMbPHmwu3dWWaLKJ7P38eAYW/5Pz1UjDoFRy+/j5qKJcRAI5tAECcbiuXXbZJSkgCtZzn6QAgTZyM1g+l/chtuWqiWZYEnSd+rwVRnIFEWLejiEwGEZFhJE+MyLwEd14440pepg35Ck1lTj1le2SxGz5V+0lbgatIgAOW0jaHa8USFS7TjjhhOb8889PfsNJgkklm8RyBd1LKr0GuAXkfVKDOV8w0A+EIhwRXLt7kKORZjk+qbaqELIyBApGojVSRag1AihZGXo1qJmPKnBTSvl7dwbv1U7XSU1mZZiPcYO/lRK0+xwyRNraOww8Vz5btSlvv/32ZA6b+EIJDo9QhFMKKwxWrFiRVFdponXGQQcd1JxzzjlJFVIzOkpN8O3ddNNNqY1UYWleIDJkWmunZGuFJLrqwKVA0FSgnEE+2xpAhCYl0WHFNxS1CPQLoQjHAKqLMqHizHhIoxTIxsEf5z5ThrWhnWoZCoDIM8xqry2833UiaonbCJVLwHnHAaaw5XOURb6eYaA/e4aI7/rrr091KSnBUpdHYG6EIpxSIAJJzJZc8RfyxTEZS8jBAKZsjjzyyKQMKS85im3N17ZQPn758uXNk08+mdpcGphBgjowBaatipwK9gxripZCO5A5Irz88suTSTwsCQJFz4XgPiHCRx99tIqLIjB6hCIcE9wL/jN+OIfBmlNk2sBAzoTIF4cIkdUgVbJ3Bt8hIsoMH0S9Ij7X5jwUZs4zHJVysn74rLPOSgEcy+fcrxLf7FyQwqS4qjQZEeIaEfzA/0UowikHU5G/0CoMk4Wfc5pNW1CAUkFEkpcsWZJKeCGrmsqQwqFe77777rRhlcmtdMAjaWSknfyazNLa6nV7QHiCIb7zzDPPTG2gSIf9bs+IErQ9g6RpwZFJCAQFBkcowjHDAJK2gtDyqo62uXsZBja1lSHHsNbKE6oTGXp+ZmcqDtmWqNcMbURMzmcNbmkQphSCISeeeGI6mObucQ0CFhjhLuATZA7ndeDhG6yPUSnCIMIxA2G5T8xjBMiXJQCSTd+dwXsMbofPG4yI1Xn5sGoMTgrIQHc+JMY8RoS+s62JqZ06NLJ3nkwe2lmbQLgZ3ENrhxVXVWRVArXvHwaunYuAeqcERdVzcdsgwW4QRDhDMIiYWshB3p7lba9VeTuDDpMDJkxsB5/hoCk6r4U2Ii3nzVVqKKySAg05vxBRIUREKFUHwdSEQrMCIgaOjZeY4iaJNhPLjqC9+rI0GStHBLr4O6Nfd4cgwhkDpZGDJx48xYXYoM0ARjIGeyZQBKhAg/tegwwRISJwPj/roMxc7fWdbdWrdiJC5jVS1Uey0hoW2oSY1RaUNC1/MUfUhyFB18uF4X5aPsckljITy+e6RxDhDAIhyAfk4/Pgc6n4kkGs0+Qd15yLihOYMZhrIBMsUqReM2GXqFfvpSp1cq8mAObmsHDtBorq3vZfZhojavdwGLh31LXgyKpVq5JZLDpfW8kGXo8gwhmEASeAwCeXzU4+w5LgSVZFgHAoLaX4DdoaZOgZUkfO5/Ad1u7qrG3JMJvI2ur6ECGicb5hoq8GiWoy1KCyWn4flgQ9C5MJfyBzWKl9a4iDBEeDURFhpM9MEBCVAUZxPfDAA+lAEINAcEDFZXvy8ufpUDXBn3nbbbelPDq5gYMEPfgJqbajjz46JV1nJTsoDJKlS5emo9aAMYHz33oWls9RhYHpQyjCCQRCcb8AifHBUU5tFRdQQmZSxEohUjbIqxY8S230PcxkbRSUQLhtTfmsDL2fic2E12ecu8SvybyWoyhCbG2zduTzDopM6nIE165du60fRx8eLUIRzjAQC5XFIc8f5VVgoQRIBjlJHfnt3/7tpAy7gPSR5cuXNw8//HAy6wcxGa32oOL49uyMx69XAj7KxYsXN5dcckmqLdg2eLMzID0R4k9+8pMpmTwwvQhFOMGgSpic1I2UENFWJFEyyL3X5yksqjIHO2rCc+XHdG4kJIgyCMz+8v9UvBGRhR2Z264LedpvhFpAgtpRww0grcckZPmcjfuzXzQwWoQiDKQgwpe+9KVknjkEPUonlLyGWfDgwx/+cNqHmLmNRGqAyU0JWmurFp/leDngUwLtoV4pQykvO1sF4n+UoBUjPmN5YU7yHgbIDum5Hj5QSyCZ7FR6YHoRirAHyCoOWSjmarCXRJKBqYwAmdieA7IywGsBgVCv2adpFkdmJaBetdO1ITnXPFewaN68ecncFyGmCilJpD8sqFGJ0kx9h1SmYSLZgeEwKkUYRNgDIBh17nQISczIhqmMONqayT4rqMDURKhIxiD3e43n4vlSsIgMKWqftBq/O9rAtSAz18iMp4Dz6pjcRiQr+CPSbBtOitAgGZYEtZnqExVGgMrtK69lwgiMD0GEgdfBoLSvMZJQ2y/7/9rC+3NuIjUoxxDJ1lQ8yATBUmgUIXWHuNtCG3V+15X9fRLD88oTA8HKEUvnBEik3JSq4+3B+ZXVki+4Zs2a5CP0tx35KAPdI4gw8DrkbTwRTE5iRmptVaH3ISVmJ5XlmVBceb1sjUHP9FadBeFSb5kQfXcbZeh9SDBfm8/kFTLamweExGlqcFgSdN3uhSi9ZGnL52zMru8GCY4fQYSBOeFeygmUkKyDQFsyBJ2L6YpoEIDnRMnViooiEIpT5Jdic+jMJYEMBJjJ1Pm0DyHKF/z1X//15CMsTbPZHgR1mPRSlG644YZEhhKoo69OBoIIA3MCKVByiFDxAv4xpNEWSIa/kJqitKg45mxNf5jzIhjfQeHlNcm+uw1pe5/rQoTO4focBoN0mRIlvD0gV/1RH7X7nDSZ9evXp4kh+unkIIgwMCdyigcicF8R4iDL05BM3shdrpznVRPUFmIRmJHjJ78QKSK5tsjBE/sjqzStyjQ1W3KOueDeSQi/+uqrm7vuuitdfy1VHKiDIMLAnMhqJhMiHxy1hTRKoqfIhM8QoVKFiItZWJoDOBe0MecUUqA6NAVL2bVVc3kgMINdZ41cQXC9yF//lDgtCBUkOHkYFRFGQnVPgWSoraeffjqVi5f4K0hRAp0MKfG3XXTRRc2iRYuSyVkbzHh7njhMjoMEIShJpG1Q1ICIsMCICPGLL7649a+BWUUowh4jq0KKy/2ltrIyRHJtQJllQkRQzue8gxLW9uA82pcVKFITTS5RdtqZj2Hg+pjD/ILr1q1LydN8mbVUcKAuQhEGWoFpnIszSACmEkvzAnW0XBLr3HPPTcvxkFUtSE9RyNSyNWW7kNC4EpURYd6Vz30TfWcmB2YboQinBFSXfEARZTmGfHLIrERBUWyUISJFVEij5jI8bUQ62qV9FCGf37Aqry2YwNZuqy0oV9ByutJJIzBahCIMFEGQw6SjivIXv/jFFKmlxErArBadpQx1Ois4kFWNCC3wy5kU+TURkeVsiAjhdgkTMNNXZWlL52zFqaxWqU81ML0IRThlQH4Sj5ELIqPwSokM+TGV5QLKL3SumuYjUhJA8T3SdyjEGsnRc4FSltx9//33p4oy9kfJS/YCk41QhIGBQAnyFwoEUFx8c6UTEBI84ogj0hI2lV3kKOqQtUxYJMg/x1fosGwQgdeeKHPwBwmKqls1IsJuoggEXo0gwikF1XPzzTcnU3DQiKjk5QsvvDC9Zp9eTfDXXXfddYmcmKm1/XWum6+TKXzllVem10BgewginFJQQdwSFBdS5EMshdqHNlUSRUaG0nNqQhu1DxEibMEMqrBG2o5zUJ4ixJSg/Yj5CAOB7SGIcErBv6eGocCElJVBdl/L+YUnnHBC2g+En6YLIME/+7M/S22tYSIjQYdrXr58eSLByBMM7AhBhFMKhCJIIHlYQQE+OTmG/tYWfIICGe9+97uTMnzf+96XlKFk6JqgBG1FYKMk7aTkhoFrVE8QsVKcCrxGoC6wIwQRTjmQjGKjVJeAgWBKCZCh1SB77LFHWoK3bNmy9HNNCGjw5TFhRXUR1zCQHyhgRAlKmI4Cq4GdIYhwyiHBWiDCUjKrKeQY+t3f24KJjAyZxvyFyuQfcMAB1VJekBQyRIBUoUM7LX0bBNItVKiRF+m8jkBgRwginBEglltvvTVFTqWPlC5xYyJbsXLwwQc3J510Uto4yaqQWmC6UnLaKchDzclhHASCOgjbbng1yvgHph+RUD0joIo8A+BD4+dT54/p2ybhOr+POkQufs8pL5KtazzbrAz5Nx3aSInm4q5toW0KT+QAibZxCYR53D9EQnWgOpCM0lPXXHNNMpXzeuISMIcpLYqQ6rJ6paQG4s7AZFecwRI8JrJgT6l6zWuYFXK9+OKLU3n/EiINzB5CEc4gKDuqiZLjS8ubK5XAOdQupLKY2p5vid9xZ3BeKUCUoZUuCBjhliwXdE3UpLY5n/43bEQ6MFqMShEGEc4gqED+NyayDqaEvg5XQjJM1ne+853pmVoi51yStmuZn0hVxFe/EaXO1akpu7akjTiRtc9or+WGzz//fPpfmMn9QBBhoFMgQ2SQiYUyRBal0FFzgQaBjlJTe2fg5xNE0XfkM0rwLjVzvR+R5g2lqMwoutAPBBEGOgMCRDAIQbCDEtxzzz1TukmJ4gIm67ve9a4UONm0aVM6b801w/yDlsZpFyK05lk7S9qIPAWGqEz9kHLN+ZShDCcbQYSBzuF55IAJQuNPo5xKiisgJESKqJjY/I6ed20gLOY81br//vunAVIKhKiSjiRz5Oq6Y+ndZCOIMNA5MhEiA0Sjw8kV9NpWGWYiRFB8eZQh355z11SG1BwTmRqkQA2QUlPeZ5nxAiZUIfN40KTtwGgQRBgYGZjI2VRUKJU6LC2hjzgpLp/xWURjbXMt6Dv6EMJGXkxkpnIptE9+ImVoJUsOngQmE0GEgZGBIhT1zf6ybELqhI42oAqZ1DmHjzIUpWV+1kir0TbtdD4ky4SnXn1vyeoR70eiosnaJ4DCnK9dCzFQB0GEgZGDqWij85w0rQOWkAwgUUvcPG+khRBr5u4hVQTGLNY2hCYQUgJkKLVGpBxpU4XM7sDkIYgwMHJQXMgQUSAcHVBxVuZkWzNZx0Uy3u/zSIuCc27HsMgmsvPzbyJChOZ72wZ5fNb7kba2umbnzK+BycGoiDCW2AVeB+W6/uRP/iQtx0OIpQSm8+63337NiSee2Bx++OHJl0dl1oSiq6rpWIZHxTLtS6CNfIUG2Omnn94sXLiwegXuQH8QijDwOjBp+cxywIRyKjU/EY0AioNSU5afmawPZF/kMHAeQR6v/Hx8htSC76Vo28C1ZR+jnylC50Sq7kFg/AhFGBg7NmzY0Fx//fWpCMIgoAJ13jPOOCMVZ+DX07FrgVJVzHXFihWpiITN6BFZCZA8xWrXvuOPPz6VGSv1iwb6j1CEgTlBuTGNERjFZGbmkxsEzuHzkplLzdidQTupQopTniCfofY62oIylGeIXCVu66+lVW8C9TEqRRhEGJgTSFDOHqKhtKTUSFkpIRnvo7AkQQtMWI8sisz0rGEig74l8qu/HXjggSnAwxwvUZ/a6Nq0CRG6bq/RZ8eLIMLAxAAJUlx8hnLwmJOl5qMOjRR93s9WnyDamnBeig7JIm3fVQoEihCpVvsu1yTsQDmCCAMTA0EECol5mwMnTGTmZBtl6D06NPK0cgVZ2WtZInOpT29HQFrMY8T1nve8JxE3YmurXgF55iISisKGiTxeBBEGJgrIRTACKVpTrEOWmp85Qpt/1ifyuuQa0EbnRHzMcAefode2yKQp2q0ij+u1NWhgPBgVEUbUONAKVJzkaCswKKRByAtxUpIiyHIMFyxYkPx5g5iw2wNFiLhUllHq30ZViPbVywfbABnutddezSmnnJL2cuZ3jBzD6UYQYaAVqCrkMH/+/FSZWjIy1TQIRHXtJ5I3jXe+mmDWSgq3nzMy/Na3vlVM3JQr8jvuuOOaSy+9NC05DEwvgggDOwXTBClYJWIjJHUH/Y15OwiQDD8jcjn55JOT4qIUS0zYHUEQRjUdwY5169Y1zzzzTFKzJYUVskm2zz77pPxCG1XZy9kEEJg+BBEGdghmosRofkGEwFwUVa0BAY0lS5YkE1kQRTCmJuylctddd6U9kpXc4uMshQlg3rx56dpPO+20dB8C04cgwsAOQRm9973vTetxmcWc1bWUmwi0YAYizKtPaoIClAvITF61alXzhS98If2Nv7Mt+DX5MFXFZiYfcsghyUVQm7QD40UQYWCH4Ad8//vf31xyySVJGbVNmSkBIrz88svT8rYuYPndlVdemXyG8iFLiBBMBsjv6KOPTn5N7ZSaE5geRPpMYE5QP4sWLUp+PP48vr1B/YI7ArJ1br49fjn5hQIetSCa7NwIjXnM1OfnLCF0n3VQiBSxvi23EqlGv+4O7nmkzwTGCgGC3/zN32yOPPLIRB6DRol3Bud1fv7HX/u1X0tmaBeQUvPHf/zHzdNPP53Iq3TFCHPYPTn11FPTxCDggxgD/UcQYeB1ECldtmxZc+yxxyblVCvPb0egzvLGTIiGz9B31wRlSG1+/vOfb+64446UbzgIqBI+U8ETqUCB/iOIMLANzBAmqqKqH/rQh5IS7CKauz3k6LQEa8nWiIZfrqY5nomQIly7dm0q6Cp44u8lUPvwhBNOSC4DOZDa3YXLIDA6hI8wsA1IT4QYETkoMpHdUQIhMjcd/Hp8cPx6JTmAO4NzOh+C5++jeEvIXhsRnyMnlkvVqV1EIhA+wsAIkZWgtbUSpilBEeJxLCvTFuYm89yqE22RYqN9JcGNucAvqAyYyVlRV4caiYix7UStHchPTiHz+KSTTkrFXXNF70D/EEQYSCRD/Vn2JmAhPQQhjRP8hdojd49K1b6agQkmsrSa9evXp0rcluGVqk5q0mQhun7uuecm0h73fQsMhiDCGQfzjgKzfE6eHNJRy29YnxfzU7EDystSN6kmJWAOUVySuJEhcmbC1iIa5b8UZECG8gslXVOKXDhto8lUIZPaChmqUERZsCdyDPuHIMIZBrIzmDn8zzrrrOQXrBEhRiQSl6mslStXNp/61KdSBelBQAkK3AhM8GHWMpEzkN99993X3Hnnnan+IMIu9WUjPik/kq1FvGuvkAl0jwiWzDCYnxSXCKgBzM/F/ByGaDxjatBytocffrh54IEHUhFWhIYwEFmJicv8FKXNJbaYr0qBleYAzoUcjKEQfRclKj/Qz23vg8lEUMnEIoKMTHMbaxaenUWwACJYEugUBvzZZ5+d/FvSVgzoYdUWIlSvUNWXq666KpmclCFfnIRmm70PAik9l112WVKt2lkbcgqXL1+elCGVOAiBCTaZVLgYJFyPI9gUGAyhCGcQVJnSV9YQC474mZKp4X+Tm2fTdeamV6RIzXn+FJMZ3fc7Sr6PiqQoKUJpKs6JsGoh+zSpD/fCq2h1ia80K0P93PVZJmg/Z8ow+v5gCEUY6AwGOmVFCaqxpxZgrSCE4IN9hu1WR1Vlhbhp06aUqmJVR54YS4BkBCZEZn/jN34jBSa6gLbdeOONzWOPPZbIcRAIOJ1//vkpmuze1ox2B7pBKMIZAnUjPw+ZCD4cdthhyXwr8YfNhe985zvNxo0bk0nsmSuMKkUFKCIKLpOi78p+OMqpzXd7jwNhC+g4D6LKPr5a0EbtpuwoEd9XauL6jGvTNuehDJUDC5QjFGGgOhAh35WKMkcccURK9ai1fI4fEAlSfNTf9qrHIEfveeihh5ovf/nLaaIsnRwFePjiJFtbD43YawLBSrB+6qmnmtWrV6drKQXCNnip7o985CNpEAcmG6EIZwRyA6V48Amqtuz3GiRIjan+7DnffffdKUK8s5xB/YBCopqkmpj1HSVA6pQhvx7yYoZ7rQVtdG5uBOTLNC9JLcoKNh+UoXtVmk856whFGKgChKEzUVGimcxivqthq6Zkc9dkxy8oMPLoo48mZbgzWJcrOos8RWsHIQeBDKk/fIWuy/YBNaLeGfm6bP7Et/nCCy9s83m2BaLnAuCGOPPMMxPp5zSbwGQhFOGUg6Ixi1KC5513XjIlOfCHhefJ/EWAt9xyy7aVGSX5faK/+oY25hqEJUTmvdSCwge+W3u0q2bunnPJCRSxdh8FPnxnCRC0I98bG0ll/2lgxwhFGKgCys/yNMrJUjX5gsPChMbM4z/jE5Q4/dWvfjUpxBL4zMqVK5OStNxNwnQJKCtJ4FZ0uL4cAa8J6lX7qEJrkvk5BUHaEr6BrE1KiklXUtTCM0D+oQwnB6EIpxyCChz2IsQ1ZlPPkEqSHvPpT386JUrLlRs01QSYi/x7CGMQokYoPotckKsIdm3k1SJMcP5VCq/Er6mN2uczeYUMBTvMfZsFjEoRBhFOKZiL1BKTWHTVAK6Rz4awBESsErn11luTKhx2MFOSSIHfTzt1/pK2er8UF6k4Ir5IC9HUMpGpP+1zGIjurQCKYFNbU14bEWG+Lu0zgRgXQYZzI4gwMBQEEi666KK05AshctzXMMWordtuu6255557EiHW8HUhLOSFyCgt/jjri9sCGTmQDDKlMLVt0OV8c0H/1U4FJVScUQSixKcJBrXPIX/uABNLqUtglhBEGBgIlIpByh+1dOnS1IH8TYcaBp6fiPAzzzyTytwLjiCFUr/g9kARUUj5Z+oOEeYgQxtkIvQ51yog4ZxIpkYbgTJ0PvfCgJROQxWaZNpCG5nxzuVapei4rzE2to9REWF4a6cMFNEHP/jBZuHChSldgxlXQwlSfgIjcgXVF0Q0NaOziOArX/lK8jlKZjZ5liolpIlkRKAVk6CGmaO1oI3UoLxJ90FlHfdhEJisRPGl/gw7SQWGRyjCKQGzUiFTK0b4Ba13ZYKVqJXtgXIRJEBSBr41uNmkqw3Emvf9oOJEvBEbgmtD5lSh93k/AqS4RLez8mob6d0RnEPbqE3fl32TORDSFpQhRek8xoVzGi+B/4tQhIEiGFT8gnnPEYpjWBIEA5S/TRVnilC0mEncFRDsZz7zmbTdJuUpQFGqPJmr0lUWLFiQlhNaVlhTdSEvieDcBFKHnnvuuW2mfVvkAS715/d///fTcwuMD6EIew4Diiqx2ZLiqgZUXkNc6sh/LQQbqD/rg6lBz9HfaiiruZB9Zw7k4lW6CqJ3PW2uyXvcF+owqy4J10i9lpLVlx3OR4FSryaekvvufT6rjVwPfkf6yD/wQ4QiDLSCgWQZl2Ria4gpDFHXGkAe0mMoNESIFEcFicurVq1Kq1by8rZSAuYv5YOzUb09WRBqTbg/VLJUIhW5RdRLJ3tmtYlMvucv//Ivb1thExgtQhH2GFkNLl68uFmyZEkaRCLEw4Kfjk+NElRbUHmtQYMCw4IvTd9BgpKtqYNSUIYmC/5CK0Wy6qwF/Ropais/redS6pbQRmk/gjHa5hlEWk0owsBOwIxCegYeJShAIjgyLJAEwuAD4xeUM2giGxckSN91110pmkwl5mBKCfgLuQ34TrkNBGBqgmJVkZtytrIFKZaqV2k/1oFT9J6n54pY2wSJAsMjFGFPwSQ2uFVCFhRgBho0bf1T24Pnw49mQF999dWpoMIkFBRlFlMGyMV1M3FLCMI9yf44k4V+OeiuejuCPu68iJbPFkrbSUnyGfLFUuX8m847qwhFGJgTBhplk5OmKR4dZhgSBI5/fkClp/jnRIjHDSQoSm2rTX7KXOWmNErr3nAduF9SjHLhg5qwX8uaNWtSihFCLI2uI01K0LpwRSRyuTQEPuyzDewYoQh7CM5/+41wsNdcPidX0KoRitAzm6TnxW+GWJiLCIxKKK2p6B4hFfeLbxWhWu9bG0iLT1X77BldCu2UCO86md3GkQlhFsfPqBRhEGGPQAkyC60csSE7JVhj5YjUDSYwU1jBVPl7XafJlAIRMBVdK/M93wu/GyxtkImQb9V9kyiODJ3bUQv8mO4nMzwXjC0Jnni/9knF0T7X7XkM4h/tO4IIA6+DvX0tnbN0TDoIX5JBMyyoIoERycHMOkGJmsRQE8x3a3OlCOUocqmJS1VKW6HckCPSQjS1QL2aXAxi95EyFLUugbZpJ9+vZ2yPl1nMLwwiDGwDZWAgiSiedtppaaUEEhiWBD0TJhxfIP8b36B1tLWSjrsAVYS0ssKi7gyOTGo7g/e5b0jGAPOzfpqLKVCbw8I5EGBOg0GEFJ7vdLSFtmXFjwS1jzqs0ca+IIgwsA1MLMvn7IpmyZjfSwbUXDD4KQ0VmO+9997kIxSEmCSTeC4gcAGUd7zjHSntpJRkkAsSpSapt+we8FoLcgL5NX2HyYxfkopvi0za1Cs3AAL0vGq2cdIRRBhIA9vAUWqfEhRJNOh1jGHgOSBBuYKSpgVHDDD5g30gQaC0XAOSyaQmFw95OHYG73F/EQ116br1VySjr9a4DxQhZeh+OyhD7fSdBvjOkK/F+30uB4ycs0/PahiMiggjfWaCYYB68NSgtA9+QYNiWFAWTC0K8P7770++wT76nxCDidaWAblSdik58DVahkdtq9hDedW4xxncDMqKcT1YhidBHNGWgCJkBRx66KFpNzzpNW3cAIH2CEU4wZArePrpp6cACVVI/bRROzuC5yASiQClyhicfu+rusi+OKYn9UA5DWJ+IhaEQxHKByzNU9wRTDza6Jx+FgDxLLW3zfP0Hu3zftemjfykzjXty/BCEQZSQOScc85Jy+dKBvdcQHZMSlFhJHjTTTeltbd9Rb4eaTAPPfRQuqZBN26iBK3XlqSOVGuDKNA+CdeSrfkPSycfPkaqlYtEDqm9qgN1EIpwAiFCLCiSV0HwfVEEw6pBCgJh2HRJhHgSls/VgmtzUA/ulTzDEl+qe+tATnx5fjZJ1O6zzkvF+R6rSHJ7S0AlUUbOY1LTRhPCNCIU4QzCIFGBxExPnagqk31W/jcMTEQc7EpGKW3VxVrbcYHZiRAEfB555JFUGsskzGxuq7rcX/fZMrxLLrmkOemkk5ICKyHTNshFJExIfuZDLFWG+of28W1qr4kyMBxCEU4Q+I2YPIopWEZneRa/Vali2B74AvkFPQ9Bkml8HgiFyem6BEHcuxylbQv3WjTZueTwuU8SuGuCcqV0qDgBMc95kGesnYIoCNUYm0aEIpwhUCNIUE4cIjz55JNTqX2DWEcYBgabiDAitOEQEqRCqKhpgyCChHAl9OVGShSXgFxyrUjTs5C0LkLLNWHwUeo1gAQ9E4rcxMRFwcc5SBI7cuA/FkWmErU7MBhCEU4AkN2BBx6YyuznNA4+rhIlMxeomaeffjrV85MvKELsWUwzsqlMZfHDCX4gshL3gmciQIW0fI7S1J9rASE6Z57oqFfrkkvh865NJJrPd9Bg0aTC9Y1CEQYRjhk6MRNMtFKajFwxg3dYEuQfM9AowQcffDAVVOBDm3YSBOSl7yEwZIYIEYXf25qgzM4cPfaMqGpEow/XUNPOQQU6n1d+Ps9dG9s+e+9FFPqPAA9lacWNZ+z5TwOCCGcEgiGKKVg5oqqMB11SqWQu5CrTlKAq036umRvXB5gI5AQiMnmY7mvpBIMMRfGZ2A6R2pq5e54J9YrMfI+2com0RSZDZEFVOqjCcW2tUBtBhDMCq0X4efgGbcA0LAlmH5R7bsWI+29lwyA+qL4DyVBxfGeIxoAqHUg+Q1W6r0gHwTgEU2r0Z8oNwVKgzscloo2Z4NrA+7KC9WrcmQT0g777gkdFhBEsGTNUIb744osTCdaAgUUNMolvvPHGFDTo+2AYFoIm1157bapuPQioSAEJKU2UZS3V/mrk55XzO0vVOwJkXfAvS62RdF2iLGcdoQjHBDMcn6DEaflgZj0qYFBkhaKisUIK/ILy6WrW2esrTAQmByk11B1iKzU/PR9mp35MHSIr56wF56XitM1kRhmWJNJ7j886kLT+IDCGUCnDvo69UIRTDhsu/eEf/mEqstq2s+8IOr4Bzyd23XXXNXfccUfxnhnTCm4BxWcff/zxtKpG+a5SeD7I0+SlOrhUp9pAgBKtr7nmmubZZ59N6UBItwSIniqUgaCPWa9OLQZ2jFCEI4Z8LzNb9gua+dv6gnYEUU1msConXikW5Bj44SSRFbNAh3uOMCgnwYm2MGEhlfy8vLrvCKsWkKEJjfpEvla3aG9bZGWorXyGziV4Yvw5d98QinBKIVH6wx/+cFKCHPi1fE0mHQnTlm/5OfB6IAR+QtsRSCcSrS0BkkFQ9oqxjerZZ59dXIK/DZA1ZXj77benVSODQE6iFUr6WRd7OU8bQhGOCLnUPkf2cccdl0wrM/awJjEf0HPPPZfWEOd7TaGE+p4bVJJIrYmI35DKKzEfs+qiMrNbQ1+vqbiySZwnyrxksC1yv9JGvkZ9wubzfesXoQinBDqkzoz4zM7HH398qjLN5BmWBHMQgMqRL2j5nNSOPppAowKCQQgmDRFaP/OlIoi2rgQkiJjkf6oXyR/nedbyxWmjNlmGRxma5Lg6iIm2bQT9y3avZ5xxRlq7ro0lZDpLCEXYMfiizGY6ooRp1UJq+AXdS2WicjEFgQD3230O7BwIBdlQhgoXZCKj8Nri1X44EV/3PucY1oDzUHJe9SPKiIpFxG2BDPU1r6wSEeQ+1aAclSIMIuwIOp6BlU1iS+iQIWU4LAkaeAaI4gLUgjXE9iIOEmwP99CSNGQo/w4RigpT722VuufrM96PrPj2vv3tb6d+XqOva6P2Ufj6jMRwbdXGtn0IWSNORMpXSFnKLNDePlgOQYQ9hwdo9qYApVsgQqRYw3wSqTTgBEZsyK6wQmkCbuCHyDmBlJJAlmeG2NqSISAmqtI5kCuCqbkMz/nkBCI1RCjSjdhK2qg/Uq/OhVi0rzRYNA4EEfYceX0rApQqgxCHJUH3j0qwUVFOlZE0HSQ4OBADQnBvbY1A4SGZtooL+N0UPXAuz4KKGzTauz1kkxvx+S7KEPH6va0pTxX6rFfXiFjzdetTk4pREWEESzqCzsonKM1C4c0aMND4oj73uc81V155ZUq6DQyHTATqGEpXsT570HXZlkledNFFaTleifnaFhLBb7jhhhRAITIGmQC5ZiRay2G1DK8rYukbQhFWhhlaVJhf0J4jRx55ZFKHJWbM9sCno4KMSOc999yTBsMsFlLoAu4tE1ngJJu5Xk1mJc8tK0OR/Bw8qbnEkelNyWkbleT7cnmxtu30WSaya6YOKU3tdf2OSUMowp7Cg5Mr+NGPfjTtR1waidwedFqHfMGrrroqJQMH6kLwid91w4YNzX333ZcKNZRO3J4zopEn+lu/9VupoEYXECT70z/902QZsBJK24kAuW24bFTgZrEgx1lGKMKKsOKA2aG2INOD471GcIQvhxlMBSqo4L4aAIF6MNEwkfVRSpuKF9wysbVdhpeVGQUjRYrC1O8puZrBE+ek4kS6X51W0xa5jY48JvUxvs086U4KQhH2EBQgHxEy9MCYLjXAJF69enVKk9FhwyTuDu6vAJRleLY4GKT0PeJksirQYDmlaHRNMGGRofbZm1oi/SBAoshFeTFt1O5hrZe+IhRhBeQ6cDq+1SN+L/UvbQ9mfQ5yJhAl+I1vfCP9bZJm7GlDVoZe+feQhQCDZ9lW3WdlmCO1/IUUvAmsZoQ/q1dt9D3Zr9kW+ZpeHdSZtIk2FGGPoKIMEmQO871wmNeAfEHBEUTId5WTdQPdwwS0atWqtGLHfUdmJaCsmNYiyZZVGsR+rwlCwz40kupNlKXqNZM1ordjH2VYq+/2DZ0qQhEuD0kmO0U4iVGpYWC9qbWccgVtxr733nunvw0LPiWdmlNcRRmvkn6n7f71AdShnEA+P3mGyKPEfPR+ioby4oOjCAVmavp4tdE55QcKelCHvrMttDGrwhzcowwnwQ+dVfW8efP6qwjzDXYxfp4W5MFg9uQXlI8lXYYyHBYUH8c6d4K9RqhBCdTIMTB6WMstd0+k3qoRhFMC5qrJkt9YJXLbtiKsV5ujw8DkyIesfXybMgukxPh7WxeKtjCvmZ9SvjLhaPu4YazhD23skkM6VYRMOw5dD4ppYeaaBpg1dRypBxKmvTJ7hnU067wijcwyyb3MHaX3gwTHCwMQqVB0CEKtv9JBaSCzFgxqat9k57nW8vc6j3MaZ/IgfRciKyFc1yRgkttEESL/Wm0cBK5BdJyLgevJz12gUyLkbDajqnahEzGPpwHMJFE2vp9ly5alxezDzvA6G7OJG8HMjgiV1woSHD88G0EqSsuz5lNDaI62MKARlM/kVBWuo1riwHn4DJEhskaEDiZyW9LWNsEWEz1CNClbceP6x+WWyRF4RMjyUluxC3RKhG6k0D5V46HXjJiNE1aOXHjhhc3JJ5+cBoZOPqxs15H5AVeuXNnccsstKUJcaoYFugOXhWdkwkMM3CKD+IORjIFNFEjarv2MtZGKM9aY5NpYalZqI8JxDladtpoIxgHEzOV00EEHpaWLg9zzNuiUCLOvCxHaPKfv+W+cth4KiU4JSpmpkXtlkIlMSpoWqZRyFCQ4WaCIkEwO+jGPDUqkUWINUGiUofNktwdztpb56byIUBspV/5I7SxVrxK0swqkXo1fbRx11oL2I3SKUEZGV1sOdEqEHjBlwzT20EtTECYNOr+SWtIMPBgdDAnWUIO237ztttuajRs3JhMsMHlABPowpSQ6axLks/LaFvqKPoMQRaERoVqStQlGW6k5RC3iqo2l/ZQf3Gop1pxxjBhH7apBhNxQqjc5/N4FOiVCqobSkX6g7DhTuY/QmSjBww8/PKXJKKTANKphEpu9lYu3vlW5ff6j8AtOJpCLZ0N1IS4qi5mLFPWRNn3h1UTIl2eMIBokU3N8OB9zVhuZudpn4i7prywg/TwHdrSP+2aUoEyZxYQHl1RJwngJOiVCN4+6ESXjK+zrZuNmRitGrCFGgnvssUfrjr8ziKrLFZQmIzmW2qhlJgW6gWgqQvCaTeTS7RcQFJWmH1GVSIsbqRYQtb7kEERBIMhkEDcOFaYwA1VIvY4SiFhWBjIkRkrUdwnesGXQdTbq+BY4hKWBLF++fKCNtccJRGfGJ835BFWVYSrUiFyZFAwmFaZtxq6TcR8E+gN9QTK9fqH2pEFLRZWABeC5yxSQN1obFBWyNoFr6yDZDQQNor755ptTVXRjmqU3CshtvOSSS9LKLWTYlY+wUyIUHJFDqGrKxz/+8ZHPJsNCp9GB7FJmJzAJsWbyYYMjQCFTg0hwzZo1SV1k53SgH9AXEB+f8e/8zu+kQWuSLLEUPPPse3PUhr6qHzPFS0k6A0XwY0ulscrpE5/4RCpgOwpIQL/iiivSZCNDo6tyYZ2axplj+cFU8/DaF5h5FE+QImOjbA7n0k6+PfAJcWJTAAjQSgCugw7no0BHYH5mfyHFhHCYkF7bTpavJiqDvPbBlESASHtQ6PPayYznF0fYrlngqOtMEJFvaptZz7x3r7rA8NJmB8iOWj4QN7FPYFIwialBRMgvWAOIUPCIGaS0Vt9UcuD18AxZPLZVRQ7U07QBGRIHUlkUdOUvZ3J3jexDxSPDkPnO0CkRunkaz9maM/InnRC1T3CEGfyRj3wk+SVqgOnLZ8q0uPbaa5tHHnkk/S0wPUCI119/fVpNNa2gCHMGhTXJkpyNl9owDvEF3sAfeGRYa2xH6JwISdk8k8ibmnQiZEpIa/Cg+QU5xBHWsAelICnVsrlbb701LZKfRuUwyxAMtCrIZMdk9NynDZmgJDfbksA4yWqtJlH5HnyBN3JEvksi7NRHmKFTiJJKpZFcLaQ/qXDjrRyhBHNagzwvbR/mkCsoaVqVaWkSXTjGA+MFvxnXB98cnxrfnD40jUBMlJrrlP1gjLt296AGqEwkK1jJP1iyFcEgGAkRmhmpH6kCQu+TvMKEs1tpLcpQIqnUBhuoSxcY5hAUkUbk+pFrrQ4TmBxk5Y8cTHS5Uk0OiEwTKDbpQq5Lf87L8GqpYLmZ0n24qPjnu0qkzug0fSYjm4VSRT72sY9NdL6cGVzndeORIcKqQVr5HugwOeoWmE7oQzIOzj777GbRokWpYK/1xdMI1o4cWNWSPvnJTybrqQaQ3+/+7u8m91Qej50CEXaNLbPE5i0EsPmmm27avEXubt4iqTdvsfcRcBxxTOXxpje9afMWEtz8R3/0R5ufeOKJzVsmws1brKKtI2J68IMf/GDzlol98+rVqzefeuqpm/fcc8+hxrbP4gc8gS/wBv7oGiMxjTk5SWizRy5KKZcuVFFgWrFlbG1bPUQNWqHEZyjqOm1g+rOeBBb5/xUOGXRsC7pIWxONFoyhprsOlMDIiNDN4lB1IERZ6rGSIjCtQIT6ukkf+Rngoqs5wND1wB4VXIcDyavSzu3DZ2hsey0F36O1xfJ3lbkziYziXo2ECDN0DjeMr0yKQS3HaiAwqRAkFCzjO7MET+oJUkSG0wTXY3UMX57cP2JHEZFSOIeVJA75ip37BrdiJMGSDDMkk1genUz8HDwIBKYdyOG8885L6SBUjgE/wqE3MhjPxrjgiQINliC2FTzyBQVGrC0+55xzkoKWijQKjJQIfRXfgRt0zTXXpEx8EadAYNphQFM4/F/77bdfypOjFqeNDLMbjMVnhQ3zuG26nHujyMJll12WClmM0oUwUiLMcIOUo7/nnnvSEQhMO5jDzDwqR+CEIiQKpo0IkZeDtZf3Tmm7eMD6ZYele4cccsjWv44IiHDU2DJLbN6iBDf/3u/9nl4QRxxxxJH4AC/gh1FjLB5bs6GkU3sQyB63pjAQCMwmjH88gA/wAn4YNcZGhJbQ8JWQwXwno/IFBAKByYFxb/zjAXyAF2aGCDMkS/IJ2JRF/hDfQiAQmA0Y78a98Y8H8MG4MFbmkVO1YMGCVOkl1x0LBAKzAePduDf+8QA+GBfGSoRksWiapTSXXnppksaBQGA2YLwb98Y/Hhine2zstih5rN6YvUHUH1MGa1TZ5IFAYPQwvo1z4924H3Sb0ZoYOxGaBbJEPv7449P+IKPYCyEQCIwHxrdxbrxnl9i4g6VjJ0KwKF0FWousRY8OPfTQNGOoaBEIBKYDxrNxbXwb58a7cT8JFXkmgghB9EiZfBVp7WFqTaZQeiAQmA4Yz8a18W2cG+/G/SRgpNVndgTS2E0xO+SyRfZAsGhbsYYo2RUI9BPGs1xBSnDhwoXNUUcdlUiQr3DcJnHGxCjCDDfHOkM3zEE+h4kcCPQXxq9xnMe08T1pAdGJUYQZZghqUFVaFTtkmfubBeoqWURV60CgHzCOJUszgxHgMcccMzHBkddiLNVnSmAbTJVq7r333mbt2rUTvRVoIBD4f1CEefHixWkDK8GRefPmbf3P5GHiiVCRR9tpqm/22GOPNU8++WTaJD0QCEwu8p7Exx57bNp/hI9QCbJJxcQTYYYtQG2MvnLlymbFihWpxplAClM5zOVAYLyQEO0QGOHOuuCCC1JFbqaxrTknHb0hQpvg8BHaKH3Dhg3N448/nlSivRH8LxAIjA8qbiuhRf3xBYoQz58/P6XM+N+kozdEmJH3RLjzzjubBx98sHn++eebF198sfne977XuhJuIBCoA+pP8EPBBNt52nRp6dKlyQy2B0lf0DsitBEMk5ip/M1vfjMpRMrws5/9bPo9EAiMDqLAiiZQghSg35nCTORJSZZug94R4atBAW7atCkR4bp169JmUMxnG2t7tTlOIBCoBykxzF1L47zabElqDCJUTUakuI/oNREKkvAPIj6bxQimIMWnn346RZfDdxgI1AV/n2iwTdiRn2CIIgqI0f/GXUVmUPSaCDNcAvVn16yNGzemYApC9Dufos21HSV7rAYCs4685HXXXXdNB5+fPZkRoGDIwQcfnH4fdy3BGpgKIgSXgeSsS84BFXsmM52feuqppBL9LTaUDwTaAfEJelB/KkjbXMnewzkQYuUXsuw7CcLUEOGroUADUqQIJWNbnfK1r32tefnll5tXXnklkSEfoiP/TC0GArMIqg+x8fnlw++77bZbs/vuuzf77rtvWhUiKZoCRH6WwE4TppIIwWUhRCazA9G99NJLyZdIKX79619P5OiVbzGUYmBWgfRsnMTfh/T8TPnx/dmMHlEyf3MNgGlQgK/F1BLha+Eyv//97yfCowodiJFK9CqwYh1zPihKBJpXsCDVWMES6BsEL5BXXvGBzCg60d18CHIgPOrPKyXoQJCTVCqrS8wMEc4Fl59JUvTZShW+RL7G7G/MydoRaAn0DUgvJz1nv56Dn89KENHeTHazQHhzYeaJENwCJIfsqEEFYalBf6MGHX4PRRjoGyhCKpAidCBGv6sRSA0iyWkJeAyDIMJAIDDz6Gf2YyAQCFREEGEgEJhxNM3/D/IuMTXcBA6VAAAAAElFTkSuQmCC;" vertex="1" parent="WVwV5zhWrvc61_-DkQyH-116">
          <mxGeometry x="36" y="4" width="30.5" height="26" as="geometry" />
        </mxCell>
        <mxCell id="WVwV5zhWrvc61_-DkQyH-123" value="" style="html=1;shadow=0;dashed=0;shape=mxgraph.bootstrap.rrect;rSize=5;strokeColor=#DFDFDF;html=1;whiteSpace=wrap;fillColor=#FFFFFF;fontColor=#000000;align=left;" vertex="1" parent="WVwV5zhWrvc61_-DkQyH-78">
          <mxGeometry x="1" y="1874" width="1070" height="467" as="geometry" />
        </mxCell>
        <mxCell id="WVwV5zhWrvc61_-DkQyH-124" value="" style="html=1;shadow=0;dashed=0;shape=mxgraph.bootstrap.topButton;strokeColor=inherit;fillColor=#F7F7F7;rSize=5;perimeter=none;whiteSpace=wrap;resizeWidth=1;align=center;spacing=20;fontSize=14;" vertex="1" parent="WVwV5zhWrvc61_-DkQyH-123">
          <mxGeometry width="1070" height="17" relative="1" as="geometry" />
        </mxCell>
        <mxCell id="WVwV5zhWrvc61_-DkQyH-125" value="&lt;div style=&quot;font-size: 26px;&quot;&gt;&lt;br style=&quot;color: rgb(128, 128, 128); font-size: 14px;&quot;&gt;&lt;/div&gt;" style="perimeter=none;html=1;whiteSpace=wrap;fillColor=none;strokeColor=none;resizeWidth=1;verticalAlign=top;align=left;spacing=20;spacingTop=29;fontSize=14;" vertex="1" parent="WVwV5zhWrvc61_-DkQyH-123">
          <mxGeometry width="1070" height="301" relative="1" as="geometry">
            <mxPoint y="42" as="offset" />
          </mxGeometry>
        </mxCell>
        <mxCell id="WVwV5zhWrvc61_-DkQyH-127" value="" style="group" vertex="1" connectable="0" parent="WVwV5zhWrvc61_-DkQyH-123">
          <mxGeometry x="540" y="52.5" width="449" height="194.5" as="geometry" />
        </mxCell>
        <mxCell id="WVwV5zhWrvc61_-DkQyH-128" value="64x64" style="strokeColor=none;html=1;whiteSpace=wrap;fillColor=#868E96;fontColor=#DEE2E6;" vertex="1" parent="WVwV5zhWrvc61_-DkQyH-127">
          <mxGeometry y="4.58" width="227" height="189.92" as="geometry" />
        </mxCell>
        <mxCell id="WVwV5zhWrvc61_-DkQyH-129" value="&lt;font color=&quot;#1a1a1a&quot; style=&quot;font-size: 23px;&quot;&gt;&lt;font style=&quot;font-size: 23px;&quot;&gt;News heading&lt;/font&gt;&lt;br&gt;&lt;/font&gt;&lt;font style=&quot;font-size: 18px;&quot;&gt;&lt;br&gt;&lt;/font&gt;&lt;div&gt;&lt;font color=&quot;#808080&quot; style=&quot;font-size: 18px;&quot;&gt;Tailored for IIoT scenarios, Weintek’s cMT X Smart HMI has been providing reliable smart monitoring&lt;/font&gt;&lt;/div&gt;" style="strokeColor=none;fillColor=none;fontColor=#000000;perimeter=none;whiteSpace=wrap;resizeWidth=1;align=left;spacing=2;fontSize=14;verticalAlign=top;html=1;" vertex="1" parent="WVwV5zhWrvc61_-DkQyH-127">
          <mxGeometry x="245.29" y="6.5" width="195" height="152.5" as="geometry" />
        </mxCell>
        <mxCell id="WVwV5zhWrvc61_-DkQyH-130" value="&lt;font style=&quot;font-size: 22px;&quot;&gt;&lt;font style=&quot;font-size: 22px;&quot;&gt;News heading&lt;/font&gt;&lt;br&gt;&lt;/font&gt;&lt;font color=&quot;#808080&quot; style=&quot;font-size: 18px;&quot;&gt;Tailored for IIoT scenarios, Weintek’s cMT X Smart .....&lt;/font&gt;" style="strokeColor=none;fillColor=none;fontColor=#000000;perimeter=none;whiteSpace=wrap;resizeWidth=1;align=left;spacing=2;fontSize=14;verticalAlign=top;html=1;" vertex="1" parent="WVwV5zhWrvc61_-DkQyH-123">
          <mxGeometry x="538" y="258" width="459" height="76.05" as="geometry" />
        </mxCell>
        <mxCell id="WVwV5zhWrvc61_-DkQyH-131" value="&lt;h1 style=&quot;margin-top: 0px;&quot;&gt;&lt;span style=&quot;color: rgb(128, 128, 128); background-color: initial; font-weight: normal;&quot;&gt;&lt;font style=&quot;font-size: 38px;&quot;&gt;News&amp;nbsp;&lt;/font&gt;&lt;/span&gt;&lt;font size=&quot;1&quot; style=&quot;&quot; color=&quot;#cccccc&quot;&gt;&lt;span style=&quot;font-weight: 400; font-size: 34px;&quot;&gt;Latest Updates&lt;/span&gt;&lt;/font&gt;&lt;/h1&gt;&lt;div style=&quot;font-size: 39px;&quot;&gt;&lt;span style=&quot;font-size: 21px; color: rgb(128, 128, 128); background-color: initial;&quot;&gt;Weintek News center keeps you updated on the latest products, e-News, seminars,and exhibitions.&lt;/span&gt;&lt;br&gt;&lt;/div&gt;" style="text;html=1;whiteSpace=wrap;overflow=hidden;rounded=0;" vertex="1" parent="WVwV5zhWrvc61_-DkQyH-123">
          <mxGeometry x="124" y="59" width="342" height="288" as="geometry" />
        </mxCell>
        <mxCell id="WVwV5zhWrvc61_-DkQyH-132" value="&lt;font style=&quot;font-size: 22px;&quot;&gt;&lt;font style=&quot;font-size: 22px;&quot;&gt;cMT3108XH, a 10.1”cMT X Advanced HMI&lt;/font&gt;&lt;br&gt;&lt;/font&gt;&lt;span style=&quot;font-size: 18px;&quot;&gt;&lt;font color=&quot;#808080&quot;&gt;Tailored for IIoT scenarios, Weintek’s cMT X Smart .....&lt;/font&gt;&lt;/span&gt;" style="strokeColor=none;fillColor=none;fontColor=#000000;perimeter=none;whiteSpace=wrap;resizeWidth=1;align=left;spacing=2;fontSize=14;verticalAlign=top;html=1;" vertex="1" parent="WVwV5zhWrvc61_-DkQyH-123">
          <mxGeometry x="538" y="316" width="459" height="76.05" as="geometry" />
        </mxCell>
        <mxCell id="WVwV5zhWrvc61_-DkQyH-133" value="&lt;font style=&quot;&quot;&gt;&lt;span style=&quot;font-size: 22px;&quot;&gt;New UAC Login - RFID / Fingerprint&lt;/span&gt;&lt;br&gt;&lt;/font&gt;&lt;span style=&quot;font-size: 18px;&quot;&gt;&lt;font color=&quot;#808080&quot;&gt;Tailored for IIoT scenarios, Weintek’s cMT X Smart .....&lt;/font&gt;&lt;/span&gt;" style="strokeColor=none;fillColor=none;fontColor=#000000;perimeter=none;whiteSpace=wrap;resizeWidth=1;align=left;spacing=2;fontSize=14;verticalAlign=top;html=1;" vertex="1" parent="WVwV5zhWrvc61_-DkQyH-123">
          <mxGeometry x="538" y="378" width="459" height="76.05" as="geometry" />
        </mxCell>
        <mxCell id="WVwV5zhWrvc61_-DkQyH-134" value="&lt;font color=&quot;#808080&quot;&gt;&lt;font style=&quot;font-size: 40px&quot;&gt;&amp;nbsp; &amp;nbsp; &amp;nbsp; &amp;nbsp; &amp;nbsp; &amp;nbsp;Global distribution partners&lt;/font&gt;&lt;br&gt;&lt;/font&gt;&amp;nbsp;&amp;nbsp;&lt;br&gt;&amp;nbsp; &amp;nbsp; &amp;nbsp; &amp;nbsp; &amp;nbsp; &amp;nbsp; &amp;nbsp; &amp;nbsp; &amp;nbsp; &amp;nbsp; &amp;nbsp; &amp;nbsp; &amp;nbsp; &amp;nbsp; &amp;nbsp; &amp;nbsp; This is a simple hero unit, a simple jumbotron-style component for calling extra attention to featured content or information." style="html=1;shadow=0;dashed=0;shape=mxgraph.bootstrap.rrect;rSize=5;strokeColor=none;html=1;whiteSpace=wrap;fillColor=#FFFFFF;fontColor=#474E4F;align=left;spacing=15;fontSize=14;verticalAlign=top;spacingTop=40;" vertex="1" parent="WVwV5zhWrvc61_-DkQyH-78">
          <mxGeometry x="4" y="1630" width="1065.5" height="216" as="geometry" />
        </mxCell>
        <mxCell id="WVwV5zhWrvc61_-DkQyH-135" value="" style="shape=line;html=1;shadow=0;dashed=0;strokeColor=#CED4DA;gradientColor=inherit;fontColor=inherit;fillColor=#E9ECEF;rSize=5;perimeter=none;whiteSpace=wrap;resizeHeight=1;fontSize=14;align=left;spacing=2;labelPosition=center;verticalLabelPosition=bottom;verticalAlign=top;spacingTop=10;" vertex="1" parent="WVwV5zhWrvc61_-DkQyH-134">
          <mxGeometry width="770" height="3.5714285714285716" relative="1" as="geometry">
            <mxPoint x="139" y="115" as="offset" />
          </mxGeometry>
        </mxCell>
        <mxCell id="WVwV5zhWrvc61_-DkQyH-136" value="Check out" style="html=1;shadow=0;dashed=0;shape=mxgraph.bootstrap.rrect;rSize=5;fillColor=#0085FC;strokeColor=none;align=center;spacing=15;fontSize=14;fontColor=#ffffff;" vertex="1" parent="WVwV5zhWrvc61_-DkQyH-134">
          <mxGeometry y="1" width="100" height="40" relative="1" as="geometry">
            <mxPoint x="817" y="-64" as="offset" />
          </mxGeometry>
        </mxCell>
        <mxCell id="WVwV5zhWrvc61_-DkQyH-137" value="&lt;span style=&quot;font-family: Helvetica; font-style: normal; font-variant-ligatures: normal; font-variant-caps: normal; font-weight: 400; letter-spacing: normal; orphans: 2; text-align: center; text-indent: 0px; text-transform: none; widows: 2; word-spacing: 0px; -webkit-text-stroke-width: 0px; white-space: normal; text-decoration-thickness: initial; text-decoration-style: initial; text-decoration-color: initial; float: none; display: inline !important;&quot;&gt;&lt;font style=&quot;font-size: 35px;&quot; color=&quot;#808080&quot;&gt;Best new product&lt;/font&gt;&lt;/span&gt;" style="text;whiteSpace=wrap;html=1;fontColor=default;labelBackgroundColor=none;" vertex="1" parent="WVwV5zhWrvc61_-DkQyH-78">
          <mxGeometry x="137" y="1284" width="349.25" height="70" as="geometry" />
        </mxCell>
        <mxCell id="WVwV5zhWrvc61_-DkQyH-138" value="&lt;b&gt;&lt;font color=&quot;#808080&quot; style=&quot;font-size: 20px&quot;&gt;cMT X Standard&lt;/font&gt;&lt;/b&gt;&lt;div&gt;&lt;br&gt;&lt;/div&gt;" style="html=1;shadow=0;dashed=0;shape=mxgraph.bootstrap.rrect;rSize=5;strokeColor=#DFDFDF;html=1;whiteSpace=wrap;fillColor=#ffffff;fontColor=#000000;verticalAlign=top;align=left;spacing=20;spacingBottom=0;fontSize=14;spacingTop=160;" vertex="1" parent="WVwV5zhWrvc61_-DkQyH-78">
          <mxGeometry x="319.24" y="1367" width="208" height="228" as="geometry" />
        </mxCell>
        <mxCell id="WVwV5zhWrvc61_-DkQyH-139" value="&lt;font color=&quot;#808080&quot;&gt;Image cap&lt;/font&gt;" style="html=1;shadow=0;dashed=0;shape=mxgraph.bootstrap.topButton;rSize=5;perimeter=none;whiteSpace=wrap;fillColor=#D9D9D9;strokeColor=#DFDFDF;fontColor=#DEE2E6;resizeWidth=1;fontSize=18;" vertex="1" parent="WVwV5zhWrvc61_-DkQyH-138">
          <mxGeometry width="208" height="165" relative="1" as="geometry" />
        </mxCell>
        <mxCell id="WVwV5zhWrvc61_-DkQyH-140" value="&lt;b&gt;&lt;font color=&quot;#808080&quot; style=&quot;font-size: 20px&quot;&gt;cMT X Advanced&lt;/font&gt;&lt;/b&gt;" style="html=1;shadow=0;dashed=0;shape=mxgraph.bootstrap.rrect;rSize=5;strokeColor=#DFDFDF;html=1;whiteSpace=wrap;fillColor=#ffffff;fontColor=#000000;verticalAlign=top;align=left;spacing=20;spacingBottom=0;fontSize=14;spacingTop=160;" vertex="1" parent="WVwV5zhWrvc61_-DkQyH-78">
          <mxGeometry x="569.24" y="1370" width="208" height="228" as="geometry" />
        </mxCell>
        <mxCell id="WVwV5zhWrvc61_-DkQyH-141" value="&lt;font color=&quot;#808080&quot;&gt;Image cap&lt;/font&gt;" style="html=1;shadow=0;dashed=0;shape=mxgraph.bootstrap.topButton;rSize=5;perimeter=none;whiteSpace=wrap;fillColor=#D9D9D9;strokeColor=#DFDFDF;fontColor=#DEE2E6;resizeWidth=1;fontSize=18;" vertex="1" parent="WVwV5zhWrvc61_-DkQyH-140">
          <mxGeometry width="208" height="165" relative="1" as="geometry" />
        </mxCell>
        <mxCell id="WVwV5zhWrvc61_-DkQyH-142" value="&lt;b&gt;&lt;font color=&quot;#808080&quot; style=&quot;font-size: 20px&quot;&gt;cMT X Headless&lt;/font&gt;&lt;/b&gt;&lt;div&gt;&lt;br&gt;&lt;/div&gt;" style="html=1;shadow=0;dashed=0;shape=mxgraph.bootstrap.rrect;rSize=5;strokeColor=#DFDFDF;html=1;whiteSpace=wrap;fillColor=#ffffff;fontColor=#000000;verticalAlign=top;align=left;spacing=20;spacingBottom=0;fontSize=14;spacingTop=160;" vertex="1" parent="WVwV5zhWrvc61_-DkQyH-78">
          <mxGeometry x="807.24" y="1370" width="208" height="228" as="geometry" />
        </mxCell>
        <mxCell id="WVwV5zhWrvc61_-DkQyH-143" value="&lt;font color=&quot;#808080&quot;&gt;Image cap&lt;/font&gt;" style="html=1;shadow=0;dashed=0;shape=mxgraph.bootstrap.topButton;rSize=5;perimeter=none;whiteSpace=wrap;fillColor=#D9D9D9;strokeColor=#DFDFDF;fontColor=#DEE2E6;resizeWidth=1;fontSize=18;" vertex="1" parent="WVwV5zhWrvc61_-DkQyH-142">
          <mxGeometry width="208" height="165" relative="1" as="geometry" />
        </mxCell>
        <mxCell id="WVwV5zhWrvc61_-DkQyH-144" value="&lt;b&gt;&lt;font color=&quot;#808080&quot; style=&quot;font-size: 20px&quot;&gt;cMT X Basic&lt;/font&gt;&lt;/b&gt;&lt;div&gt;&lt;br&gt;&lt;/div&gt;" style="html=1;shadow=0;dashed=0;shape=mxgraph.bootstrap.rrect;rSize=5;strokeColor=#DFDFDF;html=1;whiteSpace=wrap;fillColor=#ffffff;fontColor=#000000;verticalAlign=top;align=left;spacing=20;spacingBottom=0;fontSize=14;spacingTop=160;" vertex="1" parent="WVwV5zhWrvc61_-DkQyH-78">
          <mxGeometry x="69.3599999999999" y="1365" width="208" height="228" as="geometry" />
        </mxCell>
        <mxCell id="WVwV5zhWrvc61_-DkQyH-145" value="&lt;font color=&quot;#808080&quot;&gt;Image cap&lt;/font&gt;" style="html=1;shadow=0;dashed=0;shape=mxgraph.bootstrap.topButton;rSize=5;perimeter=none;whiteSpace=wrap;fillColor=#D9D9D9;strokeColor=#DFDFDF;fontColor=#DEE2E6;resizeWidth=1;fontSize=18;" vertex="1" parent="WVwV5zhWrvc61_-DkQyH-144">
          <mxGeometry width="208" height="165" relative="1" as="geometry" />
        </mxCell>
        <mxCell id="WVwV5zhWrvc61_-DkQyH-122" value="" style="verticalLabelPosition=bottom;shadow=0;dashed=0;align=center;html=1;verticalAlign=top;strokeWidth=1;shape=mxgraph.mockup.forms.splitter;strokeColor=#999999;" vertex="1" parent="WVwV5zhWrvc61_-DkQyH-78">
          <mxGeometry x="2" y="2660" width="1066" height="10" as="geometry" />
        </mxCell>
        <mxCell id="WVwV5zhWrvc61_-DkQyH-146" value="&lt;font style=&quot;font-size: 18px;&quot;&gt;Overview 產品&lt;br&gt;(相似機種要如何呈現&lt;/font&gt;&lt;span style=&quot;font-size: 18px; background-color: initial;&quot;&gt;呈現?)&lt;/span&gt;" style="text;html=1;align=center;verticalAlign=middle;whiteSpace=wrap;rounded=0;" vertex="1" parent="1">
          <mxGeometry x="-1415" y="8566" width="251" height="84" as="geometry" />
        </mxCell>
        <mxCell id="WVwV5zhWrvc61_-DkQyH-147" value="&lt;font style=&quot;font-size: 18px;&quot;&gt;最新/主力產品或功能&lt;/font&gt;" style="text;html=1;align=center;verticalAlign=middle;whiteSpace=wrap;rounded=0;" vertex="1" parent="1">
          <mxGeometry x="-1394" y="7566" width="246" height="136" as="geometry" />
        </mxCell>
        <mxCell id="WVwV5zhWrvc61_-DkQyH-148" value="&lt;font style=&quot;font-size: 18px;&quot;&gt;根據最新趨勢(產業)應用介紹&lt;/font&gt;" style="text;html=1;align=center;verticalAlign=middle;whiteSpace=wrap;rounded=0;" vertex="1" parent="1">
          <mxGeometry x="-1410" y="7882" width="273" height="136" as="geometry" />
        </mxCell>
        <mxCell id="WVwV5zhWrvc61_-DkQyH-149" value="&lt;font style=&quot;font-size: 18px;&quot;&gt;產品(硬體)生產履歷(品質)&lt;/font&gt;" style="text;html=1;align=center;verticalAlign=middle;whiteSpace=wrap;rounded=0;" vertex="1" parent="1">
          <mxGeometry x="-1387" y="8184" width="246" height="136" as="geometry" />
        </mxCell>
        <mxCell id="WVwV5zhWrvc61_-DkQyH-150" value="&lt;span style=&quot;font-size: 18px;&quot;&gt;導引至經銷商&lt;/span&gt;" style="text;html=1;align=center;verticalAlign=middle;whiteSpace=wrap;rounded=0;" vertex="1" parent="1">
          <mxGeometry x="-1415" y="8863" width="251" height="84" as="geometry" />
        </mxCell>
        <mxCell id="WVwV5zhWrvc61_-DkQyH-151" value="&lt;span style=&quot;font-size: 18px;&quot;&gt;1. 導引尋找文件&lt;/span&gt;&lt;div&gt;&lt;span style=&quot;font-size: 18px;&quot;&gt;2. 主力文件&lt;br&gt;&lt;/span&gt;&lt;/div&gt;" style="text;html=1;align=center;verticalAlign=middle;whiteSpace=wrap;rounded=0;" vertex="1" parent="1">
          <mxGeometry x="-1399" y="9651" width="251" height="84" as="geometry" />
        </mxCell>
        <mxCell id="WVwV5zhWrvc61_-DkQyH-152" value="&lt;div&gt;&lt;span style=&quot;font-size: 18px;&quot;&gt;Weintek News &amp;gt;&lt;/span&gt;&lt;/div&gt;&lt;div&gt;&lt;span style=&quot;font-size: 18px;&quot;&gt;每則新聞使用hyperlink作為詳閱&lt;/span&gt;&lt;/div&gt;" style="text;html=1;align=center;verticalAlign=middle;whiteSpace=wrap;rounded=0;" vertex="1" parent="1">
          <mxGeometry x="-1413" y="9123" width="251" height="84" as="geometry" />
        </mxCell>
      </root>
    </mxGraphModel>
  </diagram>
</mxfile>
